<?xml version="1.0" encoding="UTF-8" standalone="no"?>
<!-- Created with Inkscape (http://www.inkscape.org/) -->

<svg
   xmlns:dc="http://purl.org/dc/elements/1.1/"
   xmlns:cc="http://creativecommons.org/ns#"
   xmlns:rdf="http://www.w3.org/1999/02/22-rdf-syntax-ns#"
   xmlns:svg="http://www.w3.org/2000/svg"
   xmlns="http://www.w3.org/2000/svg"
   xmlns:sodipodi="http://sodipodi.sourceforge.net/DTD/sodipodi-0.dtd"
   xmlns:inkscape="http://www.inkscape.org/namespaces/inkscape"
   width="600"
   height="600"
   id="svg3049"
   version="1.1"
   inkscape:version="0.48.4 r9939"
   sodipodi:docname="binary_kitchen_2.svg"
   inkscape:export-filename="/home/flo/Documents/binary kitchen/binary_kitchen.png"
   inkscape:export-xdpi="90"
   inkscape:export-ydpi="90">
  <defs
     id="defs3051" />
  <sodipodi:namedview
     id="base"
     pagecolor="#000000"
     bordercolor="#666666"
     borderopacity="1.0"
     inkscape:pageopacity="0"
     inkscape:pageshadow="2"
     inkscape:zoom="1.3155765"
     inkscape:cx="363.40739"
     inkscape:cy="161.47932"
     inkscape:document-units="px"
     inkscape:current-layer="layer1"
     showgrid="false"
     inkscape:window-width="1920"
     inkscape:window-height="1031"
     inkscape:window-x="0"
     inkscape:window-y="25"
     inkscape:window-maximized="1"
     showguides="true"
     inkscape:guide-bbox="true" />
  <metadata
     id="metadata3054">
    <rdf:RDF>
      <cc:Work
         rdf:about="">
        <dc:format>image/svg+xml</dc:format>
        <dc:type
           rdf:resource="http://purl.org/dc/dcmitype/StillImage" />
        <dc:title />
      </cc:Work>
    </rdf:RDF>
  </metadata>
  <g
     inkscape:groupmode="layer"
     id="layer2"
     inkscape:label="BG">
    <rect
       transform="translate(0,-452.36218)"
       style="fill:#003377;fill-opacity:1;fill-rule:nonzero;stroke:none"
       id="rect4126"
       width="600"
       height="600"
       x="0"
       y="452.36218"
       ry="3.4089758" />
  </g>
  <g
     inkscape:label="Layer 1"
     inkscape:groupmode="layer"
     id="layer1"
     transform="translate(0,-452.36218)">
    <path
       style="font-size:54.54985428px;font-style:normal;font-variant:normal;font-weight:bold;font-stretch:normal;line-height:125%;letter-spacing:0px;word-spacing:0px;fill:#ccbbbb;fill-opacity:1;stroke:none;font-family:FreeMono;-inkscape-font-specification:FreeMono Bold"
       d="M 451.5625 484.4375 C 449.17188 484.4375 447.3125 485.03843 447.3125 487.6875 C 447.3125 490.33656 449.10727 490.90625 451.5625 490.90625 L 452.59375 490.90625 L 452.59375 518.3125 L 452.21875 518.3125 C 449.89273 518.3125 447.9375 518.88219 447.9375 521.53125 C 447.9375 523.98648 449.76352 524.78125 452.21875 524.78125 L 459.4375 524.78125 C 461.82811 524.78125 463.78125 524.18031 463.78125 521.53125 C 463.78125 518.88219 461.89273 518.3125 459.4375 518.3125 L 459.0625 518.3125 L 459.0625 506.46875 C 462.74535 502.91513 464.15077 502.15625 467.1875 502.15625 C 472.22717 502.15625 472.875 504.47171 472.875 507.25 L 472.875 518.3125 L 472.5 518.3125 C 470.17399 518.3125 468.15625 518.81758 468.15625 521.53125 C 468.15625 524.1157 470.17399 524.78125 472.5 524.78125 L 479.75 524.78125 C 482.14062 524.78125 484 524.1157 484 521.53125 C 484 518.94681 482.26983 518.3125 479.75 518.3125 L 479.34375 518.3125 L 479.34375 506.40625 C 479.34375 499.94513 474.75505 495.6875 467.90625 495.6875 C 464.54646 495.6875 461.64695 496.97594 459.0625 499.625 L 459.0625 484.4375 L 451.5625 484.4375 z M 96.96875 484.5 L 96.96875 491.3125 L 104.59375 491.3125 L 104.59375 484.5 L 96.96875 484.5 z M 353.25 484.5 L 353.25 491.3125 L 360.875 491.3125 L 360.875 484.5 L 353.25 484.5 z M 383.15625 486.59375 C 380.44257 486.59375 379.9375 488.58235 379.9375 490.84375 L 379.9375 496.53125 L 377.65625 496.53125 C 375.13641 496.53125 373.40625 497.10094 373.40625 499.75 C 373.40625 502.33444 375.26564 503 377.65625 503 L 379.9375 503 L 379.9375 516.875 C 379.9375 522.36695 384.50931 525.8125 391.875 525.8125 C 396.78545 525.8125 406.75 523.59544 406.75 519.71875 C 406.75 517.90965 405.40076 516.4375 403.65625 516.4375 C 401.39487 516.4375 399.30318 519.34375 391.9375 519.34375 C 387.15626 519.34375 386.40625 518.11149 386.40625 515.65625 L 386.40625 503 L 398.09375 503 C 400.48439 503 402.34375 502.33444 402.34375 499.75 C 402.34375 497.10094 400.549 496.53125 398.09375 496.53125 L 386.40625 496.53125 L 386.40625 490.84375 C 386.40625 488.32391 385.80531 486.59375 383.15625 486.59375 z M 51.59375 487.09375 C 49.332356 487.09375 47.34375 487.56547 47.34375 490.34375 C 47.34375 492.99282 49.203133 493.5625 51.59375 493.5625 L 52.5625 493.5625 L 52.5625 518.3125 L 51.59375 518.3125 C 49.203133 518.3125 47.34375 518.88219 47.34375 521.53125 C 47.34375 522.8881 47.975519 524.78125 51.59375 524.78125 L 70.65625 524.78125 C 78.280377 524.78125 83.40625 520.64018 83.40625 514.4375 C 83.40625 510.36698 81.214516 507.38851 76.5625 505.0625 C 79.405394 502.86571 80.625 500.72211 80.625 497.75 C 80.625 491.61192 75.269826 487.09375 67.96875 487.09375 L 51.59375 487.09375 z M 304.96875 487.09375 C 302.44892 487.09375 300.71875 487.69469 300.71875 490.34375 C 300.71875 492.99282 302.57814 493.5625 304.96875 493.5625 L 305.9375 493.5625 L 305.9375 518.3125 L 304.96875 518.3125 C 302.57814 518.3125 300.71875 518.88219 300.71875 521.53125 C 300.71875 522.8881 301.35051 524.78125 304.96875 524.78125 L 314.65625 524.78125 C 317.17609 524.78125 318.9375 523.98648 318.9375 521.53125 C 318.9375 518.81758 316.91766 518.3125 314.65625 518.3125 L 312.40625 518.3125 L 312.40625 511.3125 L 316.28125 508.03125 C 320.22254 509.25886 324.33827 515.54184 327.375 524.78125 L 334.5 524.78125 C 337.01985 524.78125 338.75 523.98648 338.75 521.53125 C 338.75 518.81758 336.7614 518.3125 334.5 518.3125 L 332.4375 518.3125 C 329.46539 510.8822 325.44129 505.50506 321.5 503.4375 L 332.875 493.5625 C 335.52406 493.5625 336.875 492.47592 336.875 490.34375 C 336.875 487.75931 335.14483 487.09375 332.625 487.09375 L 326.15625 487.09375 C 323.63642 487.09375 321.90625 488.01564 321.90625 490.40625 C 321.90625 491.89232 322.54941 492.79562 323.90625 493.3125 L 312.40625 503.1875 L 312.40625 493.5625 L 314.65625 493.5625 C 317.04686 493.5625 318.9375 492.99282 318.9375 490.34375 C 318.9375 487.63008 316.91766 487.09375 314.65625 487.09375 L 304.96875 487.09375 z M 59.03125 493.5625 L 67.625 493.5625 C 71.695509 493.5625 74.15625 495.10305 74.15625 497.6875 C 74.15625 500.65961 70.995761 502.65625 66.34375 502.65625 L 59.03125 502.65625 L 59.03125 493.5625 z M 141.8125 495.6875 C 138.25889 495.6875 136.03883 496.65288 132.9375 499.625 L 132.9375 496.53125 L 126.875 496.53125 C 124.35516 496.53125 122.5625 497.42399 122.5625 499.75 C 122.5625 501.81755 123.98016 502.93539 126.5 503 L 126.5 518.3125 L 126.09375 518.3125 C 123.76774 518.3125 121.84375 518.88219 121.84375 521.53125 C 121.84375 523.98648 123.57392 524.78125 126.09375 524.78125 L 133.34375 524.78125 C 135.60515 524.78125 137.59375 524.18031 137.59375 521.53125 C 137.59375 518.81758 135.60515 518.3125 133.34375 518.3125 L 132.9375 518.3125 L 132.9375 506.53125 C 135.97421 503.23608 138.05913 502.15625 141.03125 502.15625 C 145.03715 502.15625 146.84375 503.64654 146.84375 506.8125 L 146.84375 518.3125 C 144.32392 518.3125 142.90625 519.4637 142.90625 521.53125 C 142.90625 523.66342 144.31125 524.78125 147.21875 524.78125 L 152.96875 524.78125 C 155.35936 524.78125 157.25 524.1157 157.25 521.53125 C 157.25 519.4637 155.83233 518.3125 153.3125 518.3125 L 153.3125 506.53125 C 153.3125 499.42401 148.27364 495.6875 141.8125 495.6875 z M 176.6875 495.6875 C 173.45695 495.6875 168.6951 496.52661 165.59375 497.625 C 164.30152 498.07728 163.65625 498.98691 163.65625 500.34375 C 163.65625 502.21748 165.00339 503.625 166.8125 503.625 C 168.88006 503.625 172.22299 502.15625 176.875 502.15625 C 181.01011 502.15625 182.90625 503.11571 182.90625 505.3125 L 182.90625 506.8125 C 180.25719 506.36022 178.25504 506.15625 176.1875 506.15625 C 166.4958 506.15625 160.53125 511.44132 160.53125 517.0625 C 160.53125 521.84374 165.75973 525.8125 172.15625 525.8125 C 175.9683 525.8125 179.8049 524.89652 182.90625 523.28125 L 182.90625 524.78125 L 190.46875 524.78125 C 192.85938 524.78125 194.71875 524.1157 194.71875 521.53125 C 194.71875 518.94681 192.9886 518.3125 190.46875 518.3125 L 189.4375 518.3125 L 189.4375 505.25 C 189.4375 499.24115 184.63469 495.6875 176.6875 495.6875 z M 427.75 495.6875 C 417.99369 495.6875 411.21875 502.16684 411.21875 511.40625 C 411.21875 517.67355 414.70233 525.8125 428.59375 525.8125 C 438.28545 525.8125 444.21875 522.58486 444.21875 519.03125 C 444.21875 517.22212 442.74451 515.71875 441 515.71875 C 438.35094 515.71875 438.98138 519.34375 429.03125 519.34375 C 421.47173 519.34375 417.65625 516.70438 417.65625 511.40625 C 417.65625 505.9143 421.61192 502.15625 427.75 502.15625 C 430.59289 502.15625 432.91384 502.74746 434.59375 503.78125 C 436.91975 505.46114 435.36909 509.1875 439.375 509.1875 C 442.08866 509.1875 442.59375 507.1989 442.59375 504.9375 L 442.59375 499.96875 C 442.59375 496.99663 441.63216 495.6875 439.5 495.6875 C 438.14315 495.6875 437.45017 496.26817 437.0625 497.625 C 434.54267 496.33278 431.43283 495.6875 427.75 495.6875 z M 504 495.6875 C 494.56674 495.6875 487.34375 502.28383 487.34375 510.8125 C 487.34375 519.59965 494.39151 525.8125 504.40625 525.8125 C 507.18454 525.8125 520.75 525.0249 520.75 520.4375 C 520.75 518.62839 519.36951 517.21875 517.625 517.21875 C 515.10518 517.21875 510.9776 519.34375 504.96875 519.34375 C 499.28296 519.34375 495.86107 517.53293 494.375 513.65625 L 520.75 513.65625 L 520.75 511.125 C 520.75 502.20866 513.62708 495.6875 504 495.6875 z M 545.40625 495.6875 C 541.85262 495.6875 539.63259 496.65288 536.53125 499.625 L 536.53125 496.53125 L 530.46875 496.53125 C 527.94893 496.53125 526.125 497.42399 526.125 499.75 C 526.125 501.81755 527.57391 502.93539 530.09375 503 L 530.09375 518.3125 L 529.6875 518.3125 C 527.36148 518.3125 525.4375 518.88219 525.4375 521.53125 C 525.4375 523.98648 527.16765 524.78125 529.6875 524.78125 L 536.9375 524.78125 C 539.1989 524.78125 541.1875 524.18031 541.1875 521.53125 C 541.1875 518.81758 539.1989 518.3125 536.9375 518.3125 L 536.53125 518.3125 L 536.53125 506.53125 C 539.56798 503.23609 541.65287 502.15625 544.625 502.15625 C 548.63089 502.15625 550.4375 503.64655 550.4375 506.8125 L 550.4375 518.3125 C 547.91765 518.3125 546.5 519.4637 546.5 521.53125 C 546.5 523.66342 547.90498 524.78125 550.8125 524.78125 L 556.5625 524.78125 C 558.95311 524.78125 560.84375 524.1157 560.84375 521.53125 C 560.84375 519.4637 559.42609 518.3125 556.90625 518.3125 L 556.90625 506.53125 C 556.90625 499.42402 551.86737 495.6875 545.40625 495.6875 z M 224.0625 495.75 C 220.89654 495.75 218.45015 496.84207 213.28125 500.71875 L 213.28125 496.53125 L 204.53125 496.53125 C 201.68836 496.53125 200.28125 497.74706 200.28125 499.75 C 200.28125 502.20522 202.01142 503 204.53125 503 L 206.8125 503 L 206.8125 518.3125 L 203.0625 518.3125 C 200.54267 518.3125 198.78125 518.88219 198.78125 521.53125 C 198.78125 523.98648 200.60729 524.78125 203.0625 524.78125 L 222.25 524.78125 C 224.64061 524.78125 226.5625 524.1157 226.5625 521.53125 C 226.5625 518.88219 224.70523 518.3125 222.25 518.3125 L 213.28125 518.3125 L 213.28125 508.8125 C 219.41932 503.77282 221.86994 502.21875 223.9375 502.21875 C 226.06967 502.21875 226.83657 504.53125 228.96875 504.53125 C 230.71325 504.53125 232.1875 503.05912 232.1875 501.25 C 232.1875 498.27788 227.42228 495.75 224.0625 495.75 z M 94 496.53125 C 91.609363 496.53125 89.65625 496.97171 89.65625 499.75 C 89.65625 502.33444 91.609363 503 94 503 L 99.03125 503 L 99.03125 518.3125 L 91.15625 518.3125 C 88.636419 518.3125 86.875 518.88219 86.875 521.53125 C 86.875 522.8881 87.538024 524.78125 91.15625 524.78125 L 113.375 524.78125 C 115.89485 524.78125 117.625 523.98648 117.625 521.53125 C 117.625 518.81758 115.63641 518.3125 113.375 518.3125 L 105.5 518.3125 L 105.5 496.53125 L 94 496.53125 z M 240.1875 496.53125 C 237.79689 496.53125 235.9375 497.4886 235.9375 499.75 C 235.9375 501.55911 237.09081 502.74156 239.09375 503 L 250.21875 524.5625 L 246.65625 531.21875 L 240.1875 531.21875 C 237.79689 531.21875 235.9375 531.81968 235.9375 534.46875 C 235.9375 535.69636 236.655 537.6875 239.5625 537.6875 L 240.1875 537.6875 L 254.09375 537.6875 C 256.41976 537.6875 258.34375 537.05319 258.34375 534.46875 C 258.34375 531.81968 256.54897 531.21875 254.09375 531.21875 L 253.75 531.21875 L 268.625 503 C 270.75716 502.80618 272 501.62371 272 499.75 C 272 497.10094 270.17397 496.53125 267.71875 496.53125 L 261.78125 496.53125 C 259.26142 496.53125 257.4375 497.42399 257.4375 499.75 C 257.4375 501.81755 258.9447 503 261.59375 503 L 253.84375 517.40625 L 246.46875 503 C 248.92397 502.9353 250.28125 501.75294 250.28125 499.75 C 250.28125 497.10094 248.45522 496.53125 246 496.53125 L 240.1875 496.53125 z M 350.28125 496.53125 C 347.89062 496.53125 345.9375 496.97171 345.9375 499.75 C 345.9375 502.33444 347.89062 503 350.28125 503 L 355.3125 503 L 355.3125 518.3125 L 347.4375 518.3125 C 344.91767 518.3125 343.15625 518.88219 343.15625 521.53125 C 343.15625 522.8881 343.81928 524.78125 347.4375 524.78125 L 369.65625 524.78125 C 372.17609 524.78125 373.90625 523.98648 373.90625 521.53125 C 373.90625 518.81758 371.91765 518.3125 369.65625 518.3125 L 361.78125 518.3125 L 361.78125 496.53125 L 350.28125 496.53125 z M 504.0625 502.15625 C 508.77911 502.15625 512.52872 504.41513 513.5625 507.96875 L 494.5625 507.96875 C 495.53167 504.47974 499.34588 502.15625 504.0625 502.15625 z M 59.03125 509.125 L 67.75 509.125 C 73.241958 509.125 76.9375 511.3881 76.9375 514.8125 C 76.9375 517.1385 74.737313 518.3125 70.34375 518.3125 L 59.03125 518.3125 L 59.03125 509.125 z M 175.78125 512.09375 C 177.97803 512.09375 180.3843 512.36022 182.96875 512.8125 L 182.96875 516.03125 C 179.41513 518.22804 175.80151 519.34375 172.3125 519.34375 C 169.5342 519.34375 167.375 518.23395 167.375 516.8125 C 167.375 514.35728 171.38769 512.09375 175.78125 512.09375 z "
       transform="translate(0,452.36218)"
       id="path4555" />
    <path
       style="font-size:23.90202141px;font-style:normal;font-variant:normal;font-weight:bold;font-stretch:normal;line-height:125%;letter-spacing:0px;word-spacing:0px;fill:#ccbbbb;fill-opacity:1;stroke:none;font-family:FreeMono;-inkscape-font-specification:FreeMono Bold"
       d="M 243 457.59375 C 241.82819 457.59375 240.90625 457.88901 240.90625 459.1875 C 240.90625 460.48599 241.79652 460.75 243 460.75 L 243.5 460.75 L 243.5 474.1875 L 243 474.1875 C 241.76485 474.1875 240.90625 474.48276 240.90625 475.78125 C 240.90625 476.82639 241.6065 477.375 243 477.375 L 246.6875 477.375 L 246.6875 472.15625 L 247.25 471.71875 L 250.5 474.59375 C 250.11995 475.00546 250 475.33786 250 475.78125 C 250 476.82639 250.70024 477.375 252.09375 477.375 L 255.84375 477.375 C 256.98389 477.375 257.9375 477.07974 257.9375 475.78125 C 257.9375 474.48276 257.04722 474.1875 255.84375 474.1875 L 254.78125 474.1875 L 249.71875 469.71875 L 253.46875 466.6875 L 254.34375 466.6875 C 255.48388 466.6875 256.4375 466.36057 256.4375 465.09375 C 256.4375 463.82693 255.61057 463.53125 254.34375 463.53125 L 250.78125 463.53125 C 249.6411 463.53125 248.6875 463.76359 248.6875 465.09375 C 248.6875 465.53714 248.80745 465.83786 249.1875 466.28125 L 246.6875 468.28125 L 246.6875 457.59375 L 243 457.59375 z M 480.625 457.59375 C 479.45318 457.59375 478.53125 457.88901 478.53125 459.1875 C 478.53125 460.48599 479.42151 460.75 480.625 460.75 L 481.125 460.75 L 481.125 474.1875 L 480.625 474.1875 C 479.38984 474.1875 478.53125 474.48276 478.53125 475.78125 C 478.53125 477.04808 479.45318 477.375 480.625 477.375 L 484.3125 477.375 L 484.3125 476.25 C 485.95936 477.39014 487.22519 477.8125 489.09375 477.8125 C 493.84434 477.8125 496.875 474.58592 496.875 470.46875 C 496.875 466.38324 493.93977 463.0625 489.0625 463.0625 C 487.16227 463.0625 485.67434 463.57945 484.3125 464.65625 L 484.3125 457.59375 L 480.625 457.59375 z M 186.34375 458.90625 C 185.10859 458.90625 184.25 459.17025 184.25 460.46875 C 184.25 461.38719 184.86113 461.96748 185.90625 462.0625 L 185.90625 474.1875 L 185.71875 474.1875 C 184.48359 474.1875 183.625 474.48276 183.625 475.78125 C 183.625 477.04808 184.54694 477.375 185.71875 477.375 L 189.5625 477.375 C 190.73432 477.375 191.625 477.04808 191.625 475.78125 C 191.625 474.4511 190.67097 474.1875 189.5625 474.1875 L 189.0625 474.1875 L 189.0625 469.71875 L 195.84375 469.71875 L 195.84375 474.1875 L 195.375 474.1875 C 194.20318 474.1875 193.28125 474.48276 193.28125 475.78125 C 193.28125 476.98474 194.17151 477.375 195.375 477.375 L 199.21875 477.375 C 200.39056 477.375 201.3125 477.04808 201.3125 475.78125 C 201.3125 474.4511 200.32722 474.1875 199.21875 474.1875 L 199.03125 474.1875 L 199.03125 462.0625 C 200.07637 461.9675 200.65625 461.38719 200.65625 460.46875 C 200.65625 459.20193 199.79765 458.90625 198.5625 458.90625 L 195.375 458.90625 C 194.13984 458.90625 193.28125 459.17025 193.28125 460.46875 C 193.28125 461.76724 194.20318 462.0625 195.375 462.0625 L 195.84375 462.0625 L 195.84375 466.5625 L 189.0625 466.5625 L 189.0625 462.0625 L 189.5625 462.0625 C 190.73432 462.0625 191.625 461.76724 191.625 460.46875 C 191.625 459.13858 190.67097 458.90625 189.5625 458.90625 L 186.34375 458.90625 z M 367.34375 458.90625 C 366.1086 458.90625 365.25 459.17025 365.25 460.46875 C 365.25 461.76724 366.17195 462.0625 367.34375 462.0625 L 367.84375 462.0625 L 367.84375 474.1875 L 367.34375 474.1875 C 366.17195 474.1875 365.25 474.48276 365.25 475.78125 C 365.25 476.44633 365.5702 477.375 367.34375 477.375 L 372.09375 477.375 C 373.32889 477.375 374.1875 476.98474 374.1875 475.78125 C 374.1875 474.51443 373.32889 474.1875 372.09375 474.1875 L 371 474.1875 L 371 470.34375 L 374.03125 470.34375 C 375.36141 470.81881 378.29148 474.30296 379.875 477.375 L 382.375 477.375 C 383.61015 477.375 384.46875 476.98474 384.46875 475.78125 C 384.46875 474.51443 383.61015 474.1875 382.375 474.1875 L 381.96875 474.1875 C 380.63859 472.06558 379.45726 470.61099 377.96875 469.3125 C 380.28071 468.04568 381.375 466.5265 381.375 464.53125 C 381.375 461.20584 378.52342 458.90625 374.40625 458.90625 L 367.34375 458.90625 z M 371 462.0625 L 374.53125 462.0625 C 376.55816 462.0625 378.03125 463.07566 378.03125 464.4375 C 378.03125 466.02103 376.06658 467.15625 373.40625 467.15625 L 371 467.15625 L 371 462.0625 z M 411.34375 463.0625 C 407.09989 463.0625 403.875 466.25657 403.875 470.46875 C 403.875 474.64927 407.09989 477.8125 411.34375 477.8125 C 412.99061 477.8125 414.35565 477.3268 415.8125 476.25 L 415.8125 478 C 415.8125 479.64688 414.64898 480.53125 412.84375 480.53125 L 409.375 480.53125 C 408.13984 480.53125 407.28125 480.8265 407.28125 482.125 C 407.28125 483.32847 408.13984 483.6875 409.375 483.6875 L 412.9375 483.6875 C 416.38959 483.6875 418.96875 481.35708 418.96875 478 L 418.96875 466.6875 L 419.5 466.6875 C 420.67181 466.6875 421.59375 466.39224 421.59375 465.09375 C 421.59375 463.82693 420.73515 463.53125 419.5 463.53125 L 415.8125 463.53125 L 415.8125 464.65625 C 414.57735 463.61113 413.05396 463.0625 411.34375 463.0625 z M 544.28125 463.0625 C 540.03741 463.0625 536.8125 466.25657 536.8125 470.46875 C 536.8125 474.64927 540.03741 477.8125 544.28125 477.8125 C 545.92813 477.8125 547.29316 477.3268 548.75 476.25 L 548.75 478 C 548.75 479.64688 547.58647 480.53125 545.78125 480.53125 L 542.3125 480.53125 C 541.07735 480.53125 540.21875 480.8265 540.21875 482.125 C 540.21875 483.32847 541.07735 483.6875 542.3125 483.6875 L 545.875 483.6875 C 549.32709 483.6875 551.90625 481.35708 551.90625 478 L 551.90625 466.6875 L 552.40625 466.6875 C 553.57807 466.6875 554.5 466.39224 554.5 465.09375 C 554.5 463.82693 553.6414 463.53125 552.40625 463.53125 L 548.75 463.53125 L 548.75 464.65625 C 547.51484 463.61113 545.99146 463.0625 544.28125 463.0625 z M 211.125 463.09375 C 209.54147 463.09375 207.20768 463.5241 205.6875 464.0625 C 205.05409 464.2842 204.75 464.70992 204.75 465.375 C 204.75 466.29345 205.39446 467 206.28125 467 C 207.2947 467 208.93847 466.28125 211.21875 466.28125 C 213.24567 466.28125 214.1875 466.73571 214.1875 467.8125 L 214.1875 468.5625 C 212.88901 468.34082 211.88845 468.25 210.875 468.25 C 206.12441 468.25 203.21875 470.83842 203.21875 473.59375 C 203.21875 475.93738 205.77088 477.875 208.90625 477.875 C 210.77482 477.875 212.6673 477.41676 214.1875 476.625 L 214.1875 477.375 L 217.875 477.375 C 219.0468 477.375 219.96875 477.04808 219.96875 475.78125 C 219.96875 474.51443 219.11014 474.1875 217.875 474.1875 L 217.375 474.1875 L 217.375 467.78125 C 217.375 464.83589 215.02046 463.09375 211.125 463.09375 z M 230.6875 463.09375 C 225.90525 463.09375 222.59375 466.28362 222.59375 470.8125 C 222.59375 473.88455 224.28458 477.875 231.09375 477.875 C 235.84433 477.875 238.78125 476.27313 238.78125 474.53125 C 238.78125 473.64448 238.04261 472.9375 237.1875 472.9375 C 235.88901 472.9375 236.22102 474.6875 231.34375 474.6875 C 227.63829 474.6875 225.75 473.40949 225.75 470.8125 C 225.75 468.1205 227.6788 466.28125 230.6875 466.28125 C 232.08101 466.28125 233.23907 466.55576 234.0625 467.0625 C 235.20264 467.88593 234.44268 469.71875 236.40625 469.71875 C 237.73642 469.71875 237.96875 468.73346 237.96875 467.625 L 237.96875 465.1875 C 237.96875 463.73064 237.51387 463.09375 236.46875 463.09375 C 235.80365 463.09375 235.44002 463.39742 235.25 464.0625 C 234.01485 463.42909 232.49271 463.09375 230.6875 463.09375 z M 268.28125 463.09375 C 264.48078 463.09375 261.78125 464.90386 261.78125 467.4375 C 261.78125 469.93948 263.62862 471.21244 268.0625 471.6875 C 269.01261 471.7825 272.0625 472.01358 272.0625 473.34375 C 272.0625 474.07216 270.40192 474.6875 268.375 474.6875 C 266.66479 474.6875 265.32469 474.29219 264.40625 473.46875 C 264.12122 472.51863 263.60469 472.0625 262.78125 472.0625 C 261.45109 472.0625 261.15625 473.01569 261.15625 474.1875 L 261.15625 475.25 C 261.15625 476.35847 261.41942 477.34375 262.78125 477.34375 C 263.19297 477.34375 263.46413 477.22254 263.8125 476.9375 C 265.07932 477.53923 266.69477 477.875 268.5 477.875 C 272.5855 477.875 275.5625 476.00323 275.5625 473.40625 C 275.5625 471.94941 274.73724 470.57259 273.34375 469.8125 C 270.65175 468.29232 265.25 468.83184 265.25 467.375 C 265.25 466.80492 266.79106 466.28125 268.40625 466.28125 C 272.58677 466.28125 271.50728 468.46875 273.3125 468.46875 C 274.611 468.46875 274.875 467.57849 274.875 466.375 L 274.875 465.1875 C 274.875 463.73064 274.41971 463.09375 273.40625 463.09375 C 272.9312 463.09375 272.62836 463.33575 272.375 463.9375 C 271.13985 463.36742 269.83309 463.09375 268.28125 463.09375 z M 288.21875 463.09375 C 286.25517 463.09375 284.92685 463.60734 283.375 464.9375 L 283.375 463.53125 L 279.6875 463.53125 C 278.51569 463.53125 277.59375 463.79526 277.59375 465.09375 C 277.59375 466.39224 278.48402 466.6875 279.6875 466.6875 L 280.1875 466.6875 L 280.1875 480.53125 L 279.6875 480.53125 C 278.51569 480.53125 277.59375 480.8265 277.59375 482.125 C 277.59375 483.42349 278.51569 483.6875 279.6875 483.6875 L 285.1875 483.6875 C 286.32764 483.6875 287.28125 483.39182 287.28125 482.125 C 287.28125 480.8265 286.45432 480.53125 285.1875 480.53125 L 283.375 480.53125 L 283.375 475.28125 C 285.02186 476.54807 286.41269 477.03125 288.28125 477.03125 C 292.68346 477.03125 295.9375 474.17673 295.9375 470.28125 C 295.9375 466.19574 292.65263 463.09375 288.21875 463.09375 z M 306.09375 463.09375 C 304.51022 463.09375 302.14518 463.5241 300.625 464.0625 C 299.99159 464.2842 299.6875 464.70992 299.6875 465.375 C 299.6875 466.29345 300.36322 467 301.25 467 C 302.26345 467 303.90723 466.28125 306.1875 466.28125 C 308.21442 466.28125 309.125 466.73571 309.125 467.8125 L 309.125 468.5625 C 307.82651 468.34082 306.8572 468.25 305.84375 468.25 C 301.09316 468.25 298.15625 470.83842 298.15625 473.59375 C 298.15625 475.93738 300.73961 477.875 303.875 477.875 C 305.74355 477.875 307.60481 477.41676 309.125 476.625 L 309.125 477.375 L 312.84375 477.375 C 314.01556 477.375 314.9375 477.04808 314.9375 475.78125 C 314.9375 474.51443 314.0789 474.1875 312.84375 474.1875 L 312.3125 474.1875 L 312.3125 467.78125 C 312.3125 464.83589 309.98922 463.09375 306.09375 463.09375 z M 325.65625 463.09375 C 320.874 463.09375 317.53125 466.28362 317.53125 470.8125 C 317.53125 473.88455 319.25333 477.875 326.0625 477.875 C 330.81308 477.875 333.71875 476.27313 333.71875 474.53125 C 333.71875 473.64448 332.9801 472.9375 332.125 472.9375 C 330.82651 472.9375 331.15852 474.6875 326.28125 474.6875 C 322.5758 474.6875 320.71875 473.40949 320.71875 470.8125 C 320.71875 468.1205 322.64755 466.28125 325.65625 466.28125 C 327.04975 466.28125 328.17657 466.55576 329 467.0625 C 330.14013 467.88593 329.38017 469.71875 331.34375 469.71875 C 332.67391 469.71875 332.9375 468.73346 332.9375 467.625 L 332.9375 465.1875 C 332.9375 463.73064 332.45138 463.09375 331.40625 463.09375 C 330.74117 463.09375 330.40877 463.39742 330.21875 464.0625 C 328.9836 463.42909 327.46148 463.09375 325.65625 463.09375 z M 344.03125 463.09375 C 339.40735 463.09375 335.875 466.35073 335.875 470.53125 C 335.875 474.83844 339.30981 477.875 344.21875 477.875 C 345.58058 477.875 352.25 477.49861 352.25 475.25 C 352.25 474.36322 351.57385 473.65625 350.71875 473.65625 C 349.4836 473.65625 347.44537 474.6875 344.5 474.6875 C 341.713 474.6875 340.04093 473.80648 339.3125 471.90625 L 352.25 471.90625 L 352.25 470.6875 C 352.25 466.31696 348.75016 463.09375 344.03125 463.09375 z M 393.0625 463.09375 C 388.4386 463.09375 384.875 466.35073 384.875 470.53125 C 384.875 474.83844 388.34106 477.875 393.25 477.875 C 394.61183 477.875 401.25 477.49861 401.25 475.25 C 401.25 474.36322 400.60512 473.65625 399.75 473.65625 C 398.51486 473.65625 396.4766 474.6875 393.53125 474.6875 C 390.74423 474.6875 389.07217 473.80648 388.34375 471.90625 L 401.25 471.90625 L 401.25 470.6875 C 401.25 466.31696 397.7814 463.09375 393.0625 463.09375 z M 431.03125 463.09375 C 426.40735 463.09375 422.875 466.35073 422.875 470.53125 C 422.875 474.83844 426.30981 477.875 431.21875 477.875 C 432.58059 477.875 439.25 477.49861 439.25 475.25 C 439.25 474.36322 438.57385 473.65625 437.71875 473.65625 C 436.48359 473.65625 434.44536 474.6875 431.5 474.6875 C 428.71298 474.6875 427.04092 473.80648 426.3125 471.90625 L 439.25 471.90625 L 439.25 470.6875 C 439.25 466.31696 435.75016 463.09375 431.03125 463.09375 z M 451.3125 463.09375 C 449.57062 463.09375 448.52019 463.57439 447 465.03125 L 447 463.53125 L 444 463.53125 C 442.76485 463.53125 441.875 463.95361 441.875 465.09375 C 441.875 466.1072 442.57735 466.65583 443.8125 466.6875 L 443.8125 474.1875 L 443.625 474.1875 C 442.48485 474.1875 441.53125 474.48276 441.53125 475.78125 C 441.53125 476.98474 442.38985 477.375 443.625 477.375 L 447.1875 477.375 C 448.29597 477.375 449.28125 477.07974 449.28125 475.78125 C 449.28125 474.4511 448.29597 474.1875 447.1875 474.1875 L 447 474.1875 L 447 468.4375 C 448.48851 466.8223 449.48065 466.28125 450.9375 466.28125 C 452.90108 466.28125 453.78125 467.01064 453.78125 468.5625 L 453.78125 474.1875 C 452.54611 474.1875 451.875 474.7678 451.875 475.78125 C 451.875 476.82639 452.57483 477.375 454 477.375 L 456.8125 477.375 C 457.98431 477.375 458.90625 477.04808 458.90625 475.78125 C 458.90625 474.7678 458.2039 474.1875 456.96875 474.1875 L 456.96875 468.4375 C 456.96875 464.95374 454.47956 463.09375 451.3125 463.09375 z M 469.25 463.09375 C 465.44953 463.09375 462.71875 464.90386 462.71875 467.4375 C 462.71875 469.93948 464.59737 471.21244 469.03125 471.6875 C 469.98137 471.7825 473 472.01358 473 473.34375 C 473 474.07216 471.3394 474.6875 469.3125 474.6875 C 467.60228 474.6875 466.2622 474.29219 465.34375 473.46875 C 465.05873 472.51863 464.54218 472.0625 463.71875 472.0625 C 462.38859 472.0625 462.125 473.01569 462.125 474.1875 L 462.125 475.25 C 462.125 476.35847 462.35692 477.34375 463.71875 477.34375 C 464.13047 477.34375 464.40162 477.22254 464.75 476.9375 C 466.01683 477.53923 467.63227 477.875 469.4375 477.875 C 473.52299 477.875 476.5 476.00323 476.5 473.40625 C 476.5 471.94941 475.67476 470.57259 474.28125 469.8125 C 471.58925 468.29232 466.1875 468.83184 466.1875 467.375 C 466.1875 466.80492 467.72856 466.28125 469.34375 466.28125 C 473.52426 466.28125 472.44478 468.46875 474.25 468.46875 C 475.54849 468.46875 475.8125 467.57849 475.8125 466.375 L 475.8125 465.1875 C 475.8125 463.73064 475.3572 463.09375 474.34375 463.09375 C 473.86869 463.09375 473.56587 463.33575 473.3125 463.9375 C 472.07736 463.36742 470.80186 463.09375 469.25 463.09375 z M 530.875 463.125 C 529.32314 463.125 528.09614 463.69352 525.5625 465.59375 L 525.5625 463.53125 L 521.3125 463.53125 C 519.919 463.53125 519.21875 464.11197 519.21875 465.09375 C 519.21875 466.29724 520.07735 466.6875 521.3125 466.6875 L 522.40625 466.6875 L 522.40625 474.1875 L 520.5625 474.1875 C 519.32734 474.1875 518.46875 474.48276 518.46875 475.78125 C 518.46875 476.98474 519.35902 477.375 520.5625 477.375 L 529.96875 477.375 C 531.14057 477.375 532.09375 477.04808 532.09375 475.78125 C 532.09375 474.48276 531.17223 474.1875 529.96875 474.1875 L 525.5625 474.1875 L 525.5625 469.53125 C 528.5712 467.06095 529.79905 466.3125 530.8125 466.3125 C 531.85763 466.3125 532.23613 467.4375 533.28125 467.4375 C 534.13636 467.4375 534.84375 466.73052 534.84375 465.84375 C 534.84375 464.38689 532.52186 463.125 530.875 463.125 z M 500.28125 463.53125 C 499.0461 463.53125 498.1875 463.79526 498.1875 465.09375 C 498.1875 466.0122 498.89237 466.6875 499.9375 466.6875 L 500.78125 466.6875 L 500.78125 472.40625 C 500.78125 475.89001 503.23878 477.78125 506.4375 477.78125 C 508.17938 477.78125 509.19772 477.33226 510.78125 475.84375 L 510.78125 477.375 L 513.78125 477.375 C 514.88972 477.375 515.875 477.07974 515.875 475.78125 C 515.875 474.7678 515.17266 474.1875 513.9375 474.1875 L 513.9375 463.53125 L 509.65625 463.53125 C 508.48443 463.53125 507.5625 463.79526 507.5625 465.09375 C 507.5625 465.69549 507.91858 466.6875 509.34375 466.6875 L 509.65625 466.6875 L 510.78125 466.6875 L 510.78125 472.4375 C 509.13438 474.17938 508.33353 474.59375 506.75 474.59375 C 504.84977 474.59375 503.96875 473.86436 503.96875 472.3125 L 503.96875 463.53125 L 500.28125 463.53125 z M 411.40625 466.25 C 413.87655 466.25 415.8125 468.12471 415.8125 470.5 C 415.8125 472.78029 413.81321 474.625 411.40625 474.625 C 408.99929 474.625 407.03125 472.78112 407.03125 470.4375 C 407.03125 468.12554 408.99929 466.25 411.40625 466.25 z M 489.03125 466.25 C 491.84994 466.25 493.71875 468.09388 493.71875 470.4375 C 493.71875 472.87613 491.7866 474.625 489.03125 474.625 C 486.24425 474.625 484.3125 472.90823 484.3125 470.40625 C 484.3125 468.12596 486.0859 466.25 489.03125 466.25 z M 544.34375 466.25 C 546.81404 466.25 548.75 468.12471 548.75 470.5 C 548.75 472.78029 546.75071 474.625 544.34375 474.625 C 541.93679 474.625 539.96875 472.78112 539.96875 470.4375 C 539.96875 468.12554 541.93679 466.25 544.34375 466.25 z M 288.09375 466.28125 C 290.91243 466.28125 292.78125 467.90889 292.78125 470.0625 C 292.78125 472.27943 290.81741 473.875 288.09375 473.875 C 285.30674 473.875 283.375 472.27985 283.375 470.03125 C 283.375 467.94098 285.21173 466.28125 288.09375 466.28125 z M 344.0625 466.28125 C 346.37444 466.28125 348.21203 467.38312 348.71875 469.125 L 339.40625 469.125 C 339.88131 467.41479 341.75054 466.28125 344.0625 466.28125 z M 393.09375 466.28125 C 395.40569 466.28125 397.24326 467.38312 397.75 469.125 L 388.4375 469.125 C 388.91256 467.41479 390.78179 466.28125 393.09375 466.28125 z M 431.0625 466.28125 C 433.37445 466.28125 435.21202 467.38312 435.71875 469.125 L 426.40625 469.125 C 426.88131 467.41479 428.75055 466.28125 431.0625 466.28125 z M 210.6875 471.15625 C 211.76431 471.15625 212.95193 471.2783 214.21875 471.5 L 214.21875 473.09375 C 212.47687 474.17055 210.67896 474.6875 208.96875 474.6875 C 207.60691 474.6875 206.5625 474.16551 206.5625 473.46875 C 206.5625 472.26528 208.5339 471.15625 210.6875 471.15625 z M 305.65625 471.15625 C 306.73305 471.15625 307.88942 471.2783 309.15625 471.5 L 309.15625 473.09375 C 307.41437 474.17055 305.64772 474.6875 303.9375 474.6875 C 302.57567 474.6875 301.53125 474.16551 301.53125 473.46875 C 301.53125 472.26528 303.50264 471.15625 305.65625 471.15625 z "
       transform="translate(0,452.36218)"
       id="path3016" />
    <path
       style="fill:#ccbbbb;fill-opacity:1;fill-rule:nonzero;stroke:none"
       d="M 234.25 46.0625 C 192.55128 46.0941 158.75951 69.33213 158.78125 98 C 158.79965 122.17651 182.78541 142.61455 215.40625 147.9375 C 222.2081 149.0474 226.04931 148.98833 230.09375 149.1875 C 230.94453 149.2299 231.66183 150.10897 231.625 150.875 C 231.5882 151.64103 230.78828 152.47983 229.9375 152.4375 C 223.88646 152.13643 223.13269 152.17479 218.625 151.75 L 218.625 167.03125 L 210.96875 167.0625 C 207.99995 167.0746 205.42509 169.44225 205.59375 172.40625 L 211.90625 283.34375 C 212.0749 286.30776 214.31994 288.47651 217.28125 288.6875 C 269.50128 292.40807 322.3685 292.62918 375.90625 288.5625 C 378.86651 288.33764 381.08634 286.18305 381.25 283.21875 L 387.375 172.28125 C 387.53866 169.31698 385.00002 166.9375 382.03125 166.9375 L 375.90625 166.9375 L 375.875 147.21875 C 374.05148 147.42941 371.87057 147.53284 368.84375 147.53125 C 367.96751 147.53079 367.14871 146.65894 367.15625 145.875 C 367.16425 145.09107 367.99893 144.26373 368.875 144.28125 C 372.21437 144.34805 374.42619 144.32895 376.1875 143.90625 C 399.9449 138.2045 416.79449 123.12844 416.78125 105.65625 C 416.76415 83.06946 388.56139 64.78615 353.8125 64.8125 C 335.59029 64.8263 319.17388 69.88343 307.6875 77.9375 C 309.87783 80.9014 311.7369 83.16039 313.8125 84.6875 C 315.92764 86.2437 318.29174 87.13001 321.96875 87.3125 C 322.81954 87.3547 323.53683 88.23397 323.5 89 C 323.4632 89.76604 322.66328 90.60476 321.8125 90.5625 C 317.65097 90.35582 314.36149 89.38377 311.875 87.3125 C 308.84222 84.78616 307.3295 83.77796 304.65625 79.15625 C 293.50632 59.87941 266.32929 46.03818 234.25 46.0625 z M 263.125 192.96875 L 274.28125 193.09375 C 276.8234 193.12435 278.83725 195.17655 278.8125 197.71875 L 278.15625 266.625 C 278.13145 269.16721 276.04216 271.21813 273.5 271.1875 L 262.375 271.0625 C 259.83285 271.0319 257.81901 268.97971 257.84375 266.4375 L 258.5 197.53125 C 258.5248 194.98905 260.58285 192.93812 263.125 192.96875 z M 321.84375 193.5625 C 335.9778 193.70293 347.27314 210.98646 347.0625 232.1875 C 346.85186 253.38855 335.25905 270.45292 321.125 270.3125 C 306.99097 270.17207 295.69561 252.88856 295.90625 231.6875 C 296.11689 210.48646 307.70972 193.42207 321.84375 193.5625 z "
       transform="translate(0,452.36218)"
       id="path3021" />
    <path
       style="fill:#ccbbbb;fill-opacity:1;fill-rule:nonzero;stroke:none"
       d="m 98.96875,716.01843 c -4.302151,0.12418 -9.599271,1.72351 -11.3125,5.90625 l -10.375,25.3125 c -2.58798,6.3184 4.23851,13.63043 7.8125,15.09375 L 194.5,807.11218 c 1.19855,-1.1948 2.86207,-1.95532 4.6875,-2 3.77989,-0.0925 6.93869,2.97004 7.03125,6.75 0.46168,0.20327 0.95246,0.43367 1.34375,0.59375 3.57439,1.46228 7.63132,-0.26944 9.09375,-3.84375 l 4.40625,-10.78125 51,20.875 15.3125,-6.71875 -61.71875,-25.28125 4.40625,-10.78125 c 1.46244,-3.57434 -0.23397,-7.67292 -3.8125,-9.125 l -1.34375,-0.53125 c -1.21896,1.43281 -3.03388,2.3566 -5.0625,2.40625 -3.77991,0.0925 -7.04805,-3.26028 -6.96875,-7.375 -37.70469,-15.62075 -74.99742,-30.705 -109.09375,-44.625 -1.1103,-0.45328 -2.85698,-0.7127 -4.8125,-0.65625 z m -0.25,12.78125 c 2.116,-0.0388 4.29579,0.20088 5.96875,0.875 35.44338,14.28186 68.90204,28.12122 104.28125,42.5625 1.02459,0.45196 1.51251,1.87845 1.125,2.8125 -0.38752,0.93405 -1.74446,1.61068 -2.78125,1.1875 l -103.875,-42.375 -0.0312,0 c -4.36835,-1.77246 -7.91775,-0.78553 -9.9375,1.78125 -0.7632,0.9699 -2.37816,1.22467 -3.21875,0.53125 -0.84059,-0.69342 -0.90965,-2.35528 -0.09375,-3.28125 2.57498,-2.92235 5.8007,-4.04313 8.5625,-4.09375 z m -3.375,20.625 c 0.287473,-0.0176 0.57142,0.0323 0.875,0.15625 35.3593,14.44238 68.88896,28.21105 104.25,42.6875 1.05541,0.43208 1.60616,1.88898 1.21875,2.84375 -0.38742,0.95478 -1.78841,1.61973 -2.84375,1.1875 l -104.0625,-42.625 c -1.19033,-0.48752 -1.68718,-1.88923 -1.3125,-2.875 0.267675,-0.70426 1.01258,-1.32232 1.875,-1.375 z m 252.28125,87.25 -16.34375,6.28125 100.4375,41.125 c 0.7692,3.32152 9.6803,9.29423 16.0625,12.21875 4.0255,1.84463 8.2189,3.34339 12.3125,5.03125 2.8079,-6.94275 5.6454,-13.8888 8.5,-20.8125 -4.1076,-1.65371 -8.09045,-3.57043 -12.28125,-5 -5.3334,-1.8193 -15.7089,-4.28171 -20.0625,-2.5625 l -88.625,-36.28125 z"
       id="use3078"
       inkscape:connector-curvature="0" />
    <path
       style="fill:#ccbbbb;fill-opacity:1;fill-rule:nonzero;stroke:none"
       d="m 374.77989,754.93793 -9.2162,4.03936 c -1.89371,0.82954 -2.7524,2.99671 -1.92836,4.89282 l 2.49115,5.73207 -9.98036,14.35508 c -44.30192,20.66262 -92.70401,43.54194 -139.00235,65.35077 -3.49374,1.64572 -5.12695,5.64979 -3.57252,9.18509 l 2.94325,6.6941 c -3.96742,1.89454 -7.92374,3.79222 -11.87543,5.60399 -1.32234,-5.48391 -4.94832,-9.92099 -9.5538,-12.33957 -5.51013,-2.89366 -11.86627,-3.12478 -18.64278,-1.02962 -1.7021,0.52625 -3.49517,1.21787 -5.2498,2.11119 -1.75464,0.89331 -3.45789,1.99404 -4.99332,3.32858 -3.07087,2.66906 -5.51448,6.72118 -4.9111,11.43645 0.51529,4.02688 2.30706,8.02437 5.90076,10.51981 3.5937,2.49544 8.63024,3.13713 14.64048,1.54236 5.08377,-1.34893 10.00265,-3.03584 14.82092,-4.9419 -0.27382,0.44291 -0.38961,0.89871 -0.71542,1.33313 -2.18189,2.9092 -5.5308,5.48474 -9.09332,7.223 -14.55541,7.10204 -29.90506,14.65987 -45.26611,20.66068 l 2.39017,6.04855 c 15.7166,-6.13973 31.18584,-13.76604 45.72467,-20.85997 4.36512,-2.12988 8.49016,-5.2197 11.4511,-9.16767 1.93898,-2.58534 3.29875,-5.62055 3.83663,-8.891 4.77156,-2.13292 9.46337,-4.35456 14.1396,-6.58799 l 1.97171,4.45858 c 1.56202,3.53196 5.5776,5.1168 9.14023,3.62609 46.86635,-19.61023 96.88179,-40.63147 142.41898,-57.5676 l 17.27941,2.43991 2.51976,5.71964 c 0.8335,1.89202 2.99928,2.75828 4.89282,1.92835 l 9.21621,-4.03936 c 1.8937,-0.82954 2.78366,-3.01026 1.95701,-4.90527 l -9.13376,-20.9383 116.57676,-50.93657 c 2.28762,-0.99965 3.32854,-3.63107 2.33347,-5.92072 l -1.90573,-4.38504 29.06542,-12.69991 c 1.96611,-0.85883 6.82325,-4.85111 5.96441,-6.81724 -0.85517,-1.96773 -7.10366,-1.10843 -9.06969,-0.24939 l -29.06532,12.69986 -1.90573,-4.38503 c -0.99507,-2.28965 -3.66151,-3.31999 -5.94942,-2.321 l -116.56046,50.89541 -9.16246,-20.92582 c -0.82955,-1.89372 -3.02794,-2.74583 -4.92148,-1.9159 z M 176.277,864.41094 c 0.70685,-0.2903 1.42747,-0.57011 2.11337,-0.78217 5.40576,-1.67136 9.73329,-1.57173 13.76592,0.62764 3.28044,1.78915 5.84583,4.80654 6.49283,9.13807 -6.08039,2.60207 -12.1906,5.00245 -18.49695,6.67579 -4.794,1.27204 -7.55117,0.62969 -9.27652,-0.56838 -1.72535,-1.19808 -2.78183,-3.28977 -3.1328,-6.03247 -0.2823,-2.20612 0.64082,-3.91557 2.69976,-5.7051 1.02947,-0.89477 2.34885,-1.70053 3.72597,-2.40299 0.68855,-0.35125 1.40154,-0.66014 2.10844,-0.95034 z"
       id="path3858"
       inkscape:connector-curvature="0"
       sodipodi:nodetypes="sssccssccasssssscssccssccssccsssscsscscscsscssssacssssss" />
  </g>
</svg>
