<?xml version="1.0" encoding="UTF-8" standalone="no"?>
<svg
   xmlns:dc="http://purl.org/dc/elements/1.1/"
   xmlns:cc="http://creativecommons.org/ns#"
   xmlns:rdf="http://www.w3.org/1999/02/22-rdf-syntax-ns#"
   xmlns:svg="http://www.w3.org/2000/svg"
   xmlns="http://www.w3.org/2000/svg"
   xmlns:sodipodi="http://sodipodi.sourceforge.net/DTD/sodipodi-0.dtd"
   xmlns:inkscape="http://www.inkscape.org/namespaces/inkscape"
   inkscape:version="1.0.1 (3bc2e813f5, 2020-09-07)"
   sodipodi:docname="binary_kitchen_logo_prepared.svg"
   id="svg8"
   version="1.1"
   viewBox="0 0 50.0 50.0"
   height="50.0mm"
   width="50.0mm">
  <defs
     id="defs2" />
  <sodipodi:namedview
     id="base"
     pagecolor="#ffffff"
     bordercolor="#666666"
     borderopacity="1.0"
     inkscape:pageopacity="0.0"
     inkscape:pageshadow="2"
     inkscape:zoom="3.959798"
     inkscape:cx="169.40211"
     inkscape:cy="121.10125"
     inkscape:document-units="mm"
     inkscape:current-layer="g858"
     inkscape:document-rotation="0"
     showgrid="true"
     inkscape:window-width="2560"
     inkscape:window-height="1343"
     inkscape:window-x="0"
     inkscape:window-y="27"
     inkscape:window-maximized="1"
     borderlayer="true">
    <inkscape:grid
       spacingx="2.54"
       spacingy="2.54"
       empspacing="1"
       type="xygrid"
       units="mm"
       id="grid834" />
  </sodipodi:namedview>
  <metadata
     id="metadata5">
    <rdf:RDF>
      <cc:Work
         rdf:about="">
        <dc:format>image/svg+xml</dc:format>
        <dc:type
           rdf:resource="http://purl.org/dc/dcmitype/StillImage" />
        <dc:title />
      </cc:Work>
    </rdf:RDF>
  </metadata>
  <g
     inkscape:label="[fixed] BG"
     inkscape:groupmode="layer"
     sodipodi:insensitive="true"
     id="g840">
    <rect
       x="0"
       y="0"
       width="50.0"
       height="50.0"
       style="fill:#FFFFFF;fill-opacity:1;stroke:none"
       id="rect838" />
  </g>
  <g
     inkscape:label="F.Cu-disabled"
     inkscape:groupmode="layer"
     id="g842" />
  <g
     inkscape:label="B.Cu-disabled"
     inkscape:groupmode="layer"
     id="g844" />
  <g
     inkscape:label="B.Adhes-disabled"
     inkscape:groupmode="layer"
     id="g846" />
  <g
     inkscape:label="F.Adhes-disabled"
     inkscape:groupmode="layer"
     id="g848" />
  <g
     inkscape:label="B.Paste-disabled"
     inkscape:groupmode="layer"
     id="g850" />
  <g
     inkscape:label="F.Paste-disabled"
     inkscape:groupmode="layer"
     id="g852" />
  <g
     inkscape:label="B.SilkS-disabled"
     inkscape:groupmode="layer"
     id="g854" />
  <g
     inkscape:label="F.SilkS-disabled"
     inkscape:groupmode="layer"
     id="g856" />
  <g
     inkscape:label="B.Mask"
     inkscape:groupmode="layer"
     id="g858">
    <rect
       style="fill:#000000;fill-opacity:1;stroke:none;stroke-width:0.121985;stroke-miterlimit:4;stroke-dasharray:none"
       id="rect1560"
       width="35"
       height="4.9082699"
       x="-43.228382"
       y="41.870064"
       ry="0.30000001"
       transform="scale(-1,1)" />
    <text
       xml:space="preserve"
       style="font-style:normal;font-weight:normal;font-size:2.82222px;line-height:1.25;font-family:sans-serif;letter-spacing:0px;word-spacing:0px;fill:#000000;fill-opacity:1;stroke:none;stroke-width:0.264583"
       x="-35.699261"
       y="40.601498"
       id="text1564"
       transform="scale(-1,1)"><tspan
         sodipodi:role="line"
         id="tspan1562"
         x="-35.699261"
         y="40.601498"
         style="font-style:normal;font-variant:normal;font-weight:normal;font-stretch:normal;font-size:2.82222px;font-family:FreeMono;-inkscape-font-specification:FreeMono;stroke-width:0.264583">Soldered by:</tspan></text>
  </g>
  <g
     inkscape:label="F.Mask"
     inkscape:groupmode="layer"
     id="g860">
    <g
       id="g922"
       transform="matrix(0.27266276,0,0,0.27266276,19.09657,13.948382)">
      <path
         style="fill:#000000;fill-opacity:1;fill-rule:nonzero;stroke:none;stroke-width:0.264583"
         d="m 6.0986451,-36.072631 c -11.032786,0.0084 -19.9735251,6.156756 -19.9677731,13.741796 0.0049,6.396702 6.3511001,11.804267 14.9820311,13.2126305 1.799656,0.293661 2.815976,0.278032 3.886068,0.330729 0.225102,0.01122 0.414888,0.243806 0.405143,0.446485 -0.0097,0.202678 -0.221382,0.424611 -0.446484,0.413411 -1.601005,-0.07966 -1.80044,-0.06951 -2.993099,-0.181901 v 4.043164 l -2.02571702,0.0083 c -0.785494,0.0032 -1.46675998,0.629642 -1.42213498,1.413867 L 0.18686108,26.708064 c 0.04462,0.784227 0.638623,1.358043 1.42213602,1.413867 13.8165489,0.984401 27.8043349,1.042903 41.9695309,-0.03307 0.783235,-0.05949 1.370566,-0.629563 1.413867,-1.413867 l 1.620573,-29.3522135 c 0.0433,-0.784296 -0.62838,-1.413867 -1.413867,-1.413867 h -1.620573 l -0.0083,-5.217252 c -0.482473,0.05574 -1.059505,0.0831 -1.860352,0.08268 -0.231838,-1.22e-4 -0.448479,-0.230799 -0.446484,-0.438216 0.0021,-0.207415 0.222959,-0.4263155 0.454753,-0.4216795 0.883541,0.01767 1.468752,0.01262 1.934765,-0.09922 6.285812,-1.508588 10.743933,-5.497462 10.74043,-10.120313 -0.0045,-5.976132 -7.46646,-10.813592 -16.660437,-10.80662 -4.821293,0.0037 -9.164801,1.341684 -12.203906,3.472656 0.579525,0.784199 1.071404,1.38189 1.620573,1.785937 0.559631,0.411745 1.185132,0.646248 2.158008,0.694532 0.225105,0.01117 0.414888,0.243805 0.405143,0.446484 -0.0097,0.202682 -0.221382,0.424593 -0.446484,0.413412 -1.101072,-0.05468 -1.971413,-0.311873 -2.629297,-0.859896 -0.802423,-0.668428 -1.202664,-0.93518 -1.909961,-2.158008 -2.950099,-5.100317 -10.140688,-8.762476 -18.6283339,-8.756041 z m 7.6398439,38.8689445 2.951758,0.03307 c 0.67261,0.0081 1.205441,0.551074 1.198893,1.223698 L 17.715507,22.284526 c -0.0066,0.672627 -0.559353,1.215266 -1.231966,1.207162 l -2.94349,-0.03307 c -0.67261,-0.0081 -1.205439,-0.551072 -1.198893,-1.223698 L 12.514791,4.0034755 c 0.0066,-0.672624 0.551087,-1.215266 1.223698,-1.207162 z m 15.536003,0.157097 c 3.739634,0.03716 6.728192,4.610089 6.672461,10.2195305 -0.05573,5.609444 -3.122997,10.124392 -6.862631,10.087239 C 25.344694,23.22303 22.35613,18.650096 22.411861,13.040649 22.467591,7.4312075 25.534863,2.9162545 29.274492,2.9534105 Z"
         id="path3021" />
      <path
         style="fill:#000000;fill-opacity:1;fill-rule:nonzero;stroke:none;stroke-width:0.264583"
         d="m -29.694518,21.499048 c -1.138278,0.03286 -2.539807,0.456012 -2.993099,1.562695 l -2.745052,6.697266 c -0.684737,1.671743 1.121439,3.606384 2.067057,3.993554 l 28.9470701,11.848373 c 0.317116,-0.316125 0.757256,-0.517345 1.240234,-0.529167 1.000096,-0.02447 1.835862,0.785823 1.860352,1.785937 0.122152,0.05378 0.252005,0.114742 0.35553398,0.157097 0.945724,0.386895 2.01912002,-0.07129 2.40605402,-1.016992 l 1.165821,-2.852539 13.4937499,5.523177 4.051432,-1.77767 -16.3297529,-6.688997 1.165821,-2.852539 c 0.386937,-0.945711 -0.06191,-2.030127 -1.008724,-2.414323 l -0.355534,-0.14056 c -0.322517,0.379098 -0.802714,0.623517 -1.339453,0.636654 C 1.2868901,35.455484 0.42219508,34.568398 0.44317608,33.479712 -9.5328559,29.346722 -19.39989,25.35568 -28.421211,21.67268 c -0.293767,-0.11993 -0.755909,-0.188568 -1.273307,-0.173632 z m -0.06615,3.381705 c 0.559858,-0.01026 1.136594,0.05315 1.579231,0.231511 9.377728,3.778742 18.2303321,7.440406 27.59108108,11.261328 0.271089,0.119581 0.400185,0.497006 0.297656,0.744141 -0.102531,0.247134 -0.461555,0.426159 -0.73587198,0.314192 L -28.512161,26.220206 h -0.0083 c -1.155788,-0.468963 -2.0949,-0.207838 -2.629292,0.47129 -0.20193,0.256619 -0.629222,0.324027 -0.851628,0.140559 -0.222406,-0.183467 -0.240678,-0.623167 -0.02481,-0.868164 0.681297,-0.773205 1.534769,-1.069744 2.265495,-1.083138 z m -0.892969,5.457032 c 0.07606,-0.0047 0.151188,0.0085 0.23151,0.04134 9.355482,3.821213 18.226871,7.464173 27.5828121,11.294401 0.279244,0.114321 0.424964,0.499792 0.322461,0.752409 -0.102504,0.252619 -0.473183,0.428553 -0.752408,0.314192 L -30.802461,31.462264 c -0.314941,-0.12899 -0.4464,-0.499859 -0.347266,-0.760677 0.07082,-0.186336 0.267912,-0.349864 0.496094,-0.363802 z M 36.095781,53.42268 31.771497,55.084594 58.345585,65.96558 c 0.203518,0.87882 2.561246,2.4591 4.24987,3.23288 1.06508,0.48806 2.174587,0.88461 3.257687,1.33119 0.74292,-1.83694 1.49367,-3.67475 2.24895,-5.50664 -1.0868,-0.43755 -2.14059,-0.94468 -3.24941,-1.322921 -1.411129,-0.481356 -4.156313,-1.132869 -5.308203,-0.677995 z"
         id="use3078"
         inkscape:connector-curvature="0" />
      <path
         style="fill:#000000;fill-opacity:1;fill-rule:nonzero;stroke:none;stroke-width:0.264583"
         d="m 43.280512,31.796499 -2.438453,1.068747 c -0.501044,0.219482 -0.728239,0.79288 -0.510212,1.294559 l 0.659117,1.51661 -2.640637,3.798115 C 26.628777,44.941515 13.822391,50.995001 1.5726221,56.765254 0.64823608,57.200684 0.21611608,58.260095 0.62739308,59.195476 l 0.77873502,1.771147 c -1.04971402,0.501264 -2.09649002,1.003359 -3.142041,1.482723 -0.349869,-1.450952 -1.309243,-2.624929 -2.527777,-3.264845 -1.457888,-0.765614 -3.139617,-0.826765 -4.932568,-0.27242 -0.450347,0.139237 -0.9247641,0.322228 -1.3890101,0.558585 -0.464248,0.236355 -0.9149,0.52759 -1.321149,0.880687 -0.812501,0.706189 -1.459039,1.778312 -1.299395,3.025894 0.136337,1.065443 0.61041,2.123113 1.561243,2.783363 0.950833,0.66026 2.2834171,0.83004 3.8736261,0.40809 1.345081,-0.35691 2.646535,-0.80324 3.921369,-1.30755 -0.07245,0.11719 -0.103085,0.23779 -0.189289,0.35273 -0.577291,0.76972 -1.463357,1.45117 -2.40594,1.91108 -3.8511191,1.87908 -7.9123801,3.87876 -11.9766581,5.46647 l 0.632399,1.60035 c 4.15835,-1.62447 8.2512531,-3.64227 12.0979851,-5.5192 1.154938,-0.56353 2.246355,-1.38105 3.02977,-2.42561 0.513022,-0.68404 0.872794,-1.48711 1.015109,-2.35241 1.26247498,-0.56434 2.50384998,-1.152149 3.741102,-1.743077 l 0.521682,1.179666 c 0.413284,0.934501 1.47574,1.353821 2.418352,0.959401 C 17.434993,59.502012 30.668245,53.940142 42.716627,49.459124 l 4.571844,0.64556 0.666686,1.513321 c 0.22053,0.500597 0.79356,0.729795 1.294559,0.510209 l 2.438455,-1.068747 c 0.501042,-0.219482 0.73651,-0.796465 0.517792,-1.297853 l -2.41664,-5.539925 30.844269,-13.476967 c 0.60526,-0.264491 0.88067,-0.960721 0.6174,-1.566524 l -0.50423,-1.160209 7.69023,-3.360184 c 0.5202,-0.227232 1.80532,-1.283523 1.57808,-1.803728 -0.22626,-0.520629 -1.87951,-0.293272 -2.39969,-0.06598 l -7.6902,3.360172 -0.50422,-1.160206 c -0.26328,-0.605803 -0.96878,-0.878414 -1.57412,-0.614098 L 47.006888,37.840037 44.582654,32.303414 C 44.363168,31.802367 43.781511,31.576913 43.280512,31.796499 Z M -9.2400439,60.761233 c 0.18702,-0.07681 0.377684,-0.150842 0.559162,-0.20695 1.430274,-0.442214 2.575266,-0.415853 3.642233,0.166063 0.86795,0.47338 1.546709,1.271731 1.717895,2.417782 -1.60877,0.688464 -3.22543,1.323562 -4.893985,1.766302 -1.268412,0.33656 -1.9979131,0.16661 -2.4544121,-0.15038 -0.456499,-0.317 -0.736026,-0.870422 -0.828887,-1.596095 -0.07469,-0.583702 0.169551,-1.035994 0.714312,-1.509474 0.27238,-0.236741 0.621466,-0.449932 0.9858291,-0.635791 0.182179,-0.09293 0.370825,-0.174662 0.557858,-0.251444 z"
         id="path3858"
         inkscape:connector-curvature="0"
         sodipodi:nodetypes="sssccssccasssssscssccssccssccsssscsscscscsscssssacssssss" />
    </g>
    <text
       xml:space="preserve"
       style="font-style:normal;font-weight:normal;font-size:10.5833px;line-height:1.25;font-family:sans-serif;letter-spacing:0px;word-spacing:0px;fill:#000000;fill-opacity:1;stroke:none;stroke-width:0.264583"
       x="7.4777875"
       y="44.467918"
       id="text1513"><tspan
         sodipodi:role="line"
         id="tspan1511"
         x="7.4777875"
         y="44.467918"
         style="font-style:normal;font-variant:normal;font-weight:bold;font-stretch:normal;font-size:4.93889px;font-family:FreeMono;-inkscape-font-specification:'FreeMono Bold';stroke-width:0.264583">I can solder</tspan></text>
  </g>
  <g
     inkscape:label="Dwgs.User-disabled"
     inkscape:groupmode="layer"
     id="g862" />
  <g
     inkscape:label="Cmts.User-disabled"
     inkscape:groupmode="layer"
     id="g864" />
  <g
     inkscape:label="Eco1.User-disabled"
     inkscape:groupmode="layer"
     id="g866" />
  <g
     inkscape:label="Eco2.User-disabled"
     inkscape:groupmode="layer"
     id="g868" />
  <g
     inkscape:label="Edge.Cuts"
     inkscape:groupmode="layer"
     id="g870">
    <path
       id="rect1748"
       style="fill:none;fill-opacity:1;stroke:#ff0000;stroke-width:0.347717;stroke-miterlimit:4;stroke-dasharray:none;stroke-opacity:1"
       d="M 96 0 L 92.123 0.109375 L 88.2969 0.412109 L 84.5273 0.902344 L 80.8184 1.57617 L 77.1758 2.42578 L 73.6016 3.45117 L 70.1035 4.64453 L 66.6836 6.00195 L 63.3496 7.51953 L 60.1035 9.18945 L 56.9512 11.0117 L 53.8965 12.9785 L 50.9473 15.084 L 48.1035 17.3262 L 45.373 19.7012 L 42.7598 22.1992 L 40.2676 24.8203 L 37.9023 27.5586 L 35.6699 30.4082 L 33.5723 33.3672 L 31.6152 36.4258 L 29.8047 39.584 L 28.1426 42.8359 L 26.6367 46.1758 L 25.2891 49.5996 L 24.1074 53.1016 L 23.0938 56.6777 L 22.2539 60.3242 L 21.5938 64.0352 L 21.1152 67.8066 L 20.8242 71.6328 L 20.7266 75.5098 L 20.7773 78.3086 L 20.9316 81.0898 L 21.1875 83.8496 L 21.541 86.584 L 21.9922 89.2949 L 22.541 91.9785 L 23.1836 94.6309 L 23.9199 97.25 L 24.75 99.8359 L 25.668 102.387 L 26.6777 104.896 L 27.7734 107.365 L 28.9551 109.791 L 30.2227 112.17 L 31.5723 114.502 L 33.0039 116.783 L 34.5176 119.012 L 36.1074 121.188 L 37.7773 123.305 L 39.5215 125.363 L 41.3398 127.359 L 43.2324 129.293 L 45.1953 131.16 L 47.2285 132.961 L 49.332 134.689 L 51.5 136.346 L 53.7363 137.928 L 55.5879 139.139 L 55.6476 139.599 L 55.6699 140.07 L 55.6594 140.42 L 55.6281 140.764 L 55.5767 141.101 L 55.5059 141.432 L 55.4161 141.754 L 55.3082 142.069 L 55.1826 142.375 L 55.0399 142.671 L 54.8808 142.957 L 54.706 143.233 L 54.5159 143.498 L 54.3113 143.751 L 54.0927 143.992 L 53.8608 144.22 L 53.6161 144.434 L 53.3594 144.635 L 32.0898 144.635 L 30.9277 144.693 L 29.7988 144.865 L 28.7109 145.143 L 27.668 145.523 L 26.6758 146 L 25.7402 146.566 L 24.8691 147.219 L 24.0645 147.949 L 23.334 148.754 L 22.6816 149.625 L 22.1152 150.561 L 21.6387 151.553 L 21.2578 152.596 L 20.9805 153.684 L 20.8086 154.812 L 20.75 155.975 L 20.75 170.883 L 20.8086 172.045 L 20.9805 173.174 L 21.2578 174.262 L 21.6387 175.305 L 22.1152 176.297 L 22.6816 177.232 L 23.334 178.104 L 24.0645 178.908 L 24.8691 179.639 L 25.7402 180.291 L 26.6758 180.857 L 27.668 181.334 L 28.7109 181.715 L 29.7988 181.992 L 30.9277 182.164 L 32.0898 182.223 L 160.383 182.223 L 161.545 182.164 L 162.674 181.992 L 163.762 181.715 L 164.805 181.334 L 165.797 180.857 L 166.732 180.291 L 167.604 179.639 L 168.408 178.908 L 169.139 178.104 L 169.791 177.232 L 170.357 176.297 L 170.834 175.305 L 171.215 174.262 L 171.492 173.174 L 171.664 172.045 L 171.723 170.883 L 171.723 155.975 L 171.664 154.812 L 171.492 153.684 L 171.215 152.596 L 170.834 151.553 L 170.357 150.561 L 169.791 149.625 L 169.139 148.754 L 168.408 147.949 L 167.604 147.219 L 166.732 146.566 L 165.797 146 L 164.805 145.523 L 163.762 145.143 L 162.674 144.865 L 161.545 144.693 L 160.383 144.635 L 140.084 144.635 L 139.827 144.434 L 139.583 144.22 L 139.351 143.992 L 139.132 143.751 L 138.927 143.498 L 138.737 143.233 L 138.563 142.957 L 138.403 142.671 L 138.261 142.375 L 138.135 142.069 L 138.027 141.754 L 137.937 141.432 L 137.867 141.101 L 137.815 140.764 L 137.784 140.42 L 137.773 140.07 L 137.79 139.637 L 137.837 139.212 L 137.916 138.798 L 138.023 138.395 L 138.736 137.928 L 140.973 136.346 L 143.141 134.689 L 145.244 132.961 L 147.277 131.16 L 149.24 129.293 L 151.133 127.359 L 152.951 125.363 L 154.697 123.305 L 156.365 121.188 L 157.955 119.012 L 159.469 116.783 L 160.9 114.502 L 162.25 112.17 L 163.518 109.791 L 164.699 107.365 L 165.795 104.896 L 166.805 102.387 L 167.723 99.8359 L 168.553 97.25 L 169.289 94.6309 L 169.932 91.9785 L 170.48 89.2949 L 170.932 86.584 L 171.285 83.8496 L 171.541 81.0898 L 171.695 78.3086 L 171.746 75.5098 L 171.648 71.623 L 171.355 67.7891 L 170.875 64.0098 L 170.211 60.293 L 169.369 56.6387 L 168.352 53.0547 L 167.164 49.5469 L 165.812 46.1191 L 164.301 42.7734 L 162.633 39.5176 L 160.814 36.3555 L 158.85 33.291 L 156.744 30.332 L 154.502 27.4785 L 152.129 24.7383 L 149.629 22.1172 L 147.008 19.6172 L 144.268 17.2422 L 141.414 15.002 L 138.455 12.8965 L 135.391 10.9316 L 132.229 9.11328 L 128.973 7.44727 L 125.629 5.93359 L 122.199 4.58203 L 118.689 3.39453 L 115.107 2.37695 L 111.455 1.53516 L 107.736 0.871094 L 103.957 0.390625 L 100.121 0.0976562 L 96.2363 0 L 96 0 L 96 0"
       transform="scale(0.264583, 0.264583)" />
  </g>
  <g
     inkscape:label="Margin-disabled"
     inkscape:groupmode="layer"
     id="g872" />
  <g
     inkscape:label="B.CrtYd-disabled"
     inkscape:groupmode="layer"
     id="g874" />
  <g
     inkscape:label="F.CrtYd-disabled"
     inkscape:groupmode="layer"
     id="g876" />
  <g
     inkscape:label="B.Fab-disabled"
     inkscape:groupmode="layer"
     id="g878" />
  <g
     inkscape:label="F.Fab-disabled"
     inkscape:groupmode="layer"
     id="g880" />
  <g
     inkscape:label="Drill"
     inkscape:groupmode="layer"
     id="g882" />
</svg>
