%TF.GenerationSoftware,KiCad,Pcbnew,5.1.7*%
%TF.CreationDate,2020-10-10T22:14:26+02:00*%
%TF.ProjectId,ICanSolder,4943616e-536f-46c6-9465-722e6b696361,rev?*%
%TF.SameCoordinates,Original*%
%TF.FileFunction,Profile,NP*%
%FSLAX46Y46*%
G04 Gerber Fmt 4.6, Leading zero omitted, Abs format (unit mm)*
G04 Created by KiCad (PCBNEW 5.1.7) date 2020-10-10 22:14:26*
%MOMM*%
%LPD*%
G01*
G04 APERTURE LIST*
%TA.AperFunction,Profile*%
%ADD10C,0.100000*%
%TD*%
G04 APERTURE END LIST*
D10*
%TO.C,Ref\u002A\u002A*%
X180899968Y-95500000D02*
X179874180Y-95528939D01*
X179874180Y-95528939D02*
X178861859Y-95609037D01*
X178861859Y-95609037D02*
X177864487Y-95738745D01*
X177864487Y-95738745D02*
X176883175Y-95917028D01*
X176883175Y-95917028D02*
X175919405Y-96141820D01*
X175919405Y-96141820D02*
X174973732Y-96413121D01*
X174973732Y-96413121D02*
X174048194Y-96728864D01*
X174048194Y-96728864D02*
X173143347Y-97088014D01*
X173143347Y-97088014D02*
X172261227Y-97489540D01*
X172261227Y-97489540D02*
X171402364Y-97931372D01*
X171402364Y-97931372D02*
X170568319Y-98413509D01*
X170568319Y-98413509D02*
X169760098Y-98933890D01*
X169760098Y-98933890D02*
X168979789Y-99490970D01*
X168979789Y-99490970D02*
X168227368Y-100084218D01*
X168227368Y-100084218D02*
X167504924Y-100712603D01*
X167504924Y-100712603D02*
X166813516Y-101373531D01*
X166813516Y-101373531D02*
X166154122Y-102067029D01*
X166154122Y-102067029D02*
X165528304Y-102791537D01*
X165528304Y-102791537D02*
X164937649Y-103545493D01*
X164937649Y-103545493D02*
X164382660Y-104328394D01*
X164382660Y-104328394D02*
X163864844Y-105137647D01*
X163864844Y-105137647D02*
X163385817Y-105973253D01*
X163385817Y-105973253D02*
X162946054Y-106833651D01*
X162946054Y-106833651D02*
X162547618Y-107717332D01*
X162547618Y-107717332D02*
X162191066Y-108623211D01*
X162191066Y-108623211D02*
X161878408Y-109549781D01*
X161878408Y-109549781D02*
X161610227Y-110495956D01*
X161610227Y-110495956D02*
X161388004Y-111460758D01*
X161388004Y-111460758D02*
X161213352Y-112442625D01*
X161213352Y-112442625D02*
X161086723Y-113440474D01*
X161086723Y-113440474D02*
X161009729Y-114452821D01*
X161009729Y-114452821D02*
X160983906Y-115478609D01*
X160983906Y-115478609D02*
X160997320Y-116219124D01*
X160997320Y-116219124D02*
X161038146Y-116954983D01*
X161038146Y-116954983D02*
X161105852Y-117685179D01*
X161105852Y-117685179D02*
X161199382Y-118408654D01*
X161199382Y-118408654D02*
X161318762Y-119125913D01*
X161318762Y-119125913D02*
X161463965Y-119835947D01*
X161463965Y-119835947D02*
X161633986Y-120537727D01*
X161633986Y-120537727D02*
X161828799Y-121230697D01*
X161828799Y-121230697D02*
X162048429Y-121914882D01*
X162048429Y-121914882D02*
X162291316Y-122589860D01*
X162291316Y-122589860D02*
X162558466Y-123253698D01*
X162558466Y-123253698D02*
X162848369Y-123906954D01*
X162848369Y-123906954D02*
X163161027Y-124548832D01*
X163161027Y-124548832D02*
X163496413Y-125178275D01*
X163496413Y-125178275D02*
X163853494Y-125795283D01*
X163853494Y-125795283D02*
X164232271Y-126398796D01*
X164232271Y-126398796D02*
X164632770Y-126988552D01*
X164632770Y-126988552D02*
X165053404Y-127564285D01*
X165053404Y-127564285D02*
X165495231Y-128124407D01*
X165495231Y-128124407D02*
X165956717Y-128668919D01*
X165956717Y-128668919D02*
X166437808Y-129197026D01*
X166437808Y-129197026D02*
X166938558Y-129708730D01*
X166938558Y-129708730D02*
X167457908Y-130202706D01*
X167457908Y-130202706D02*
X167995858Y-130679220D01*
X167995858Y-130679220D02*
X168552409Y-131136420D01*
X168552409Y-131136420D02*
X169126024Y-131574834D01*
X169126024Y-131574834D02*
X169717711Y-131993404D01*
X169717711Y-131993404D02*
X170207613Y-132313814D01*
X170207613Y-132313814D02*
X170223409Y-132435522D01*
X170223409Y-132435522D02*
X170229309Y-132560141D01*
X170229309Y-132560141D02*
X170226531Y-132652745D01*
X170226531Y-132652745D02*
X170218250Y-132743761D01*
X170218250Y-132743761D02*
X170204650Y-132832926D01*
X170204650Y-132832926D02*
X170185918Y-132920503D01*
X170185918Y-132920503D02*
X170162158Y-133005699D01*
X170162158Y-133005699D02*
X170133609Y-133089042D01*
X170133609Y-133089042D02*
X170100378Y-133170005D01*
X170100378Y-133170005D02*
X170062622Y-133248321D01*
X170062622Y-133248321D02*
X170020527Y-133323992D01*
X170020527Y-133323992D02*
X169974278Y-133397017D01*
X169974278Y-133397017D02*
X169923980Y-133467131D01*
X169923980Y-133467131D02*
X169869847Y-133534071D01*
X169869847Y-133534071D02*
X169812009Y-133597835D01*
X169812009Y-133597835D02*
X169750652Y-133658160D01*
X169750652Y-133658160D02*
X169685909Y-133714781D01*
X169685909Y-133714781D02*
X169617990Y-133767962D01*
X169617990Y-133767962D02*
X163990416Y-133767962D01*
X163990416Y-133767962D02*
X163682944Y-133783308D01*
X163682944Y-133783308D02*
X163384256Y-133828816D01*
X163384256Y-133828816D02*
X163096416Y-133902370D01*
X163096416Y-133902370D02*
X162820482Y-134002912D01*
X162820482Y-134002912D02*
X162557963Y-134129118D01*
X162557963Y-134129118D02*
X162310419Y-134278872D01*
X162310419Y-134278872D02*
X162079941Y-134451645D01*
X162079941Y-134451645D02*
X161867058Y-134644790D01*
X161867058Y-134644790D02*
X161673780Y-134857780D01*
X161673780Y-134857780D02*
X161501166Y-135088231D01*
X161501166Y-135088231D02*
X161351306Y-135335881D01*
X161351306Y-135335881D02*
X161225232Y-135598347D01*
X161225232Y-135598347D02*
X161124452Y-135874307D01*
X161124452Y-135874307D02*
X161051084Y-136162174D01*
X161051084Y-136162174D02*
X161005602Y-136460623D01*
X161005602Y-136460623D02*
X160990097Y-136768333D01*
X160990097Y-136768333D02*
X160990097Y-140712737D01*
X160990097Y-140712737D02*
X161005602Y-141020182D01*
X161005602Y-141020182D02*
X161051084Y-141318896D01*
X161051084Y-141318896D02*
X161124452Y-141606763D01*
X161124452Y-141606763D02*
X161225232Y-141882723D01*
X161225232Y-141882723D02*
X161351306Y-142145189D01*
X161351306Y-142145189D02*
X161501166Y-142392574D01*
X161501166Y-142392574D02*
X161673780Y-142623291D01*
X161673780Y-142623291D02*
X161867058Y-142836015D01*
X161867058Y-142836015D02*
X162079941Y-143029426D01*
X162079941Y-143029426D02*
X162310419Y-143201934D01*
X162310419Y-143201934D02*
X162557963Y-143351688D01*
X162557963Y-143351688D02*
X162820482Y-143477894D01*
X162820482Y-143477894D02*
X163096416Y-143578700D01*
X163096416Y-143578700D02*
X163384256Y-143651989D01*
X163384256Y-143651989D02*
X163682944Y-143697498D01*
X163682944Y-143697498D02*
X163990416Y-143713108D01*
X163990416Y-143713108D02*
X197934615Y-143713108D01*
X197934615Y-143713108D02*
X198242061Y-143697498D01*
X198242061Y-143697498D02*
X198540775Y-143651989D01*
X198540775Y-143651989D02*
X198828641Y-143578700D01*
X198828641Y-143578700D02*
X199104601Y-143477894D01*
X199104601Y-143477894D02*
X199367068Y-143351688D01*
X199367068Y-143351688D02*
X199614453Y-143201934D01*
X199614453Y-143201934D02*
X199845169Y-143029426D01*
X199845169Y-143029426D02*
X200057894Y-142836015D01*
X200057894Y-142836015D02*
X200251304Y-142623291D01*
X200251304Y-142623291D02*
X200423812Y-142392574D01*
X200423812Y-142392574D02*
X200573566Y-142145189D01*
X200573566Y-142145189D02*
X200699772Y-141882723D01*
X200699772Y-141882723D02*
X200800578Y-141606763D01*
X200800578Y-141606763D02*
X200873868Y-141318896D01*
X200873868Y-141318896D02*
X200919376Y-141020182D01*
X200919376Y-141020182D02*
X200934987Y-140712737D01*
X200934987Y-140712737D02*
X200934987Y-136768333D01*
X200934987Y-136768333D02*
X200919376Y-136460623D01*
X200919376Y-136460623D02*
X200873868Y-136162174D01*
X200873868Y-136162174D02*
X200800578Y-135874307D01*
X200800578Y-135874307D02*
X200699772Y-135598347D01*
X200699772Y-135598347D02*
X200573566Y-135335881D01*
X200573566Y-135335881D02*
X200423812Y-135088231D01*
X200423812Y-135088231D02*
X200251304Y-134857780D01*
X200251304Y-134857780D02*
X200057894Y-134644790D01*
X200057894Y-134644790D02*
X199845169Y-134451645D01*
X199845169Y-134451645D02*
X199614453Y-134278872D01*
X199614453Y-134278872D02*
X199367068Y-134129118D01*
X199367068Y-134129118D02*
X199104601Y-134002912D01*
X199104601Y-134002912D02*
X198828641Y-133902370D01*
X198828641Y-133902370D02*
X198540775Y-133828816D01*
X198540775Y-133828816D02*
X198242061Y-133783308D01*
X198242061Y-133783308D02*
X197934615Y-133767962D01*
X197934615Y-133767962D02*
X192563845Y-133767962D01*
X192563845Y-133767962D02*
X192495847Y-133714781D01*
X192495847Y-133714781D02*
X192431289Y-133658160D01*
X192431289Y-133658160D02*
X192369906Y-133597835D01*
X192369906Y-133597835D02*
X192311962Y-133534071D01*
X192311962Y-133534071D02*
X192257722Y-133467131D01*
X192257722Y-133467131D02*
X192207452Y-133397017D01*
X192207452Y-133397017D02*
X192161414Y-133323992D01*
X192161414Y-133323992D02*
X192119081Y-133248321D01*
X192119081Y-133248321D02*
X192081510Y-133170005D01*
X192081510Y-133170005D02*
X192048173Y-133089042D01*
X192048173Y-133089042D02*
X192019598Y-133005699D01*
X192019598Y-133005699D02*
X191995785Y-132920503D01*
X191995785Y-132920503D02*
X191977264Y-132832926D01*
X191977264Y-132832926D02*
X191963506Y-132743761D01*
X191963506Y-132743761D02*
X191955304Y-132652745D01*
X191955304Y-132652745D02*
X191952394Y-132560141D01*
X191952394Y-132560141D02*
X191956892Y-132445576D01*
X191956892Y-132445576D02*
X191969327Y-132333129D01*
X191969327Y-132333129D02*
X191990229Y-132223591D01*
X191990229Y-132223591D02*
X192018539Y-132116964D01*
X192018539Y-132116964D02*
X192207187Y-131993404D01*
X192207187Y-131993404D02*
X192799059Y-131574834D01*
X192799059Y-131574834D02*
X193372675Y-131136420D01*
X193372675Y-131136420D02*
X193929093Y-130679220D01*
X193929093Y-130679220D02*
X194466990Y-130202706D01*
X194466990Y-130202706D02*
X194986367Y-129708730D01*
X194986367Y-129708730D02*
X195487223Y-129197026D01*
X195487223Y-129197026D02*
X195968234Y-128668919D01*
X195968234Y-128668919D02*
X196430196Y-128124407D01*
X196430196Y-128124407D02*
X196871521Y-127564285D01*
X196871521Y-127564285D02*
X197292208Y-126988552D01*
X197292208Y-126988552D02*
X197692786Y-126398796D01*
X197692786Y-126398796D02*
X198071405Y-125795283D01*
X198071405Y-125795283D02*
X198428592Y-125178275D01*
X198428592Y-125178275D02*
X198764083Y-124548832D01*
X198764083Y-124548832D02*
X199076556Y-123906954D01*
X199076556Y-123906954D02*
X199366538Y-123253698D01*
X199366538Y-123253698D02*
X199633767Y-122589860D01*
X199633767Y-122589860D02*
X199876655Y-121914882D01*
X199876655Y-121914882D02*
X200096258Y-121230697D01*
X200096258Y-121230697D02*
X200290991Y-120537727D01*
X200290991Y-120537727D02*
X200461118Y-119835947D01*
X200461118Y-119835947D02*
X200606110Y-119125913D01*
X200606110Y-119125913D02*
X200725701Y-118408654D01*
X200725701Y-118408654D02*
X200819099Y-117685179D01*
X200819099Y-117685179D02*
X200886832Y-116954983D01*
X200886832Y-116954983D02*
X200927578Y-116219124D01*
X200927578Y-116219124D02*
X200941072Y-115478609D01*
X200941072Y-115478609D02*
X200915143Y-114450228D01*
X200915143Y-114450228D02*
X200837620Y-113435843D01*
X200837620Y-113435843D02*
X200710620Y-112435905D01*
X200710620Y-112435905D02*
X200534937Y-111452503D01*
X200534937Y-111452503D02*
X200312158Y-110485637D01*
X200312158Y-110485637D02*
X200043077Y-109537372D01*
X200043077Y-109537372D02*
X199728753Y-108609267D01*
X199728753Y-108609267D02*
X199371036Y-107702330D01*
X199371036Y-107702330D02*
X198971251Y-106817114D01*
X198971251Y-106817114D02*
X198529927Y-105955685D01*
X198529927Y-105955685D02*
X198048651Y-105119047D01*
X198048651Y-105119047D02*
X197529010Y-104308233D01*
X197529010Y-104308233D02*
X196971798Y-103525332D01*
X196971798Y-103525332D02*
X196378603Y-102770344D01*
X196378603Y-102770344D02*
X195750747Y-102045334D01*
X195750747Y-102045334D02*
X195089290Y-101351835D01*
X195089290Y-101351835D02*
X194395818Y-100690378D01*
X194395818Y-100690378D02*
X193670860Y-100061993D01*
X193670860Y-100061993D02*
X192915740Y-99469274D01*
X192915740Y-99469274D02*
X192132839Y-98912195D01*
X192132839Y-98912195D02*
X191322157Y-98392316D01*
X191322157Y-98392316D02*
X190485546Y-97911219D01*
X190485546Y-97911219D02*
X189624063Y-97470421D01*
X189624063Y-97470421D02*
X188739298Y-97069927D01*
X188739298Y-97069927D02*
X187831778Y-96712327D01*
X187831778Y-96712327D02*
X186903092Y-96398135D01*
X186903092Y-96398135D02*
X185955355Y-96128901D01*
X185955355Y-96128901D02*
X184989098Y-95906177D01*
X184989098Y-95906177D02*
X184005114Y-95730477D01*
X184005114Y-95730477D02*
X183005255Y-95603353D01*
X183005255Y-95603353D02*
X181990315Y-95525838D01*
X181990315Y-95525838D02*
X180962489Y-95500000D01*
X180962489Y-95500000D02*
X180899968Y-95500000D01*
X180899968Y-95500000D02*
X180899968Y-95500000D01*
X180899968Y-95500000D02*
X180899968Y-95500000D01*
%TD*%
M02*
