%TF.GenerationSoftware,KiCad,Pcbnew,5.1.9*%
%TF.CreationDate,2021-04-20T19:45:11+02:00*%
%TF.ProjectId,ICanSolder,4943616e-536f-46c6-9465-722e6b696361,rev?*%
%TF.SameCoordinates,Original*%
%TF.FileFunction,Legend,Bot*%
%TF.FilePolarity,Positive*%
%FSLAX46Y46*%
G04 Gerber Fmt 4.6, Leading zero omitted, Abs format (unit mm)*
G04 Created by KiCad (PCBNEW 5.1.9) date 2021-04-20 19:45:11*
%MOMM*%
%LPD*%
G01*
G04 APERTURE LIST*
%ADD10C,0.125000*%
%ADD11C,0.110000*%
%ADD12C,0.250000*%
%ADD13C,0.203200*%
G04 APERTURE END LIST*
D10*
X191490476Y-115435714D02*
X191109523Y-115435714D01*
X191300000Y-115626190D02*
X191300000Y-115245238D01*
X194880952Y-109421428D02*
X194119047Y-109421428D01*
X194500000Y-109802380D02*
X194500000Y-109040476D01*
X169380952Y-109421428D02*
X168619047Y-109421428D01*
X169000000Y-109802380D02*
X169000000Y-109040476D01*
X182880952Y-131421428D02*
X182119047Y-131421428D01*
X182500000Y-131802380D02*
X182500000Y-131040476D01*
D11*
X176666666Y-129785714D02*
X176704761Y-129823809D01*
X176819047Y-129861904D01*
X176895238Y-129861904D01*
X177009523Y-129823809D01*
X177085714Y-129747619D01*
X177123809Y-129671428D01*
X177161904Y-129519047D01*
X177161904Y-129404761D01*
X177123809Y-129252380D01*
X177085714Y-129176190D01*
X177009523Y-129100000D01*
X176895238Y-129061904D01*
X176819047Y-129061904D01*
X176704761Y-129100000D01*
X176666666Y-129138095D01*
X175866666Y-129785714D02*
X175904761Y-129823809D01*
X176019047Y-129861904D01*
X176095238Y-129861904D01*
X176209523Y-129823809D01*
X176285714Y-129747619D01*
X176323809Y-129671428D01*
X176361904Y-129519047D01*
X176361904Y-129404761D01*
X176323809Y-129252380D01*
X176285714Y-129176190D01*
X176209523Y-129100000D01*
X176095238Y-129061904D01*
X176019047Y-129061904D01*
X175904761Y-129100000D01*
X175866666Y-129138095D01*
X175523809Y-129557142D02*
X174914285Y-129557142D01*
X174266666Y-129442857D02*
X174152380Y-129480952D01*
X174114285Y-129519047D01*
X174076190Y-129595238D01*
X174076190Y-129709523D01*
X174114285Y-129785714D01*
X174152380Y-129823809D01*
X174228571Y-129861904D01*
X174533333Y-129861904D01*
X174533333Y-129061904D01*
X174266666Y-129061904D01*
X174190476Y-129100000D01*
X174152380Y-129138095D01*
X174114285Y-129214285D01*
X174114285Y-129290476D01*
X174152380Y-129366666D01*
X174190476Y-129404761D01*
X174266666Y-129442857D01*
X174533333Y-129442857D01*
X173580952Y-129480952D02*
X173580952Y-129861904D01*
X173847619Y-129061904D02*
X173580952Y-129480952D01*
X173314285Y-129061904D01*
X173047619Y-129557142D02*
X172438095Y-129557142D01*
X172095238Y-129823809D02*
X171980952Y-129861904D01*
X171790476Y-129861904D01*
X171714285Y-129823809D01*
X171676190Y-129785714D01*
X171638095Y-129709523D01*
X171638095Y-129633333D01*
X171676190Y-129557142D01*
X171714285Y-129519047D01*
X171790476Y-129480952D01*
X171942857Y-129442857D01*
X172019047Y-129404761D01*
X172057142Y-129366666D01*
X172095238Y-129290476D01*
X172095238Y-129214285D01*
X172057142Y-129138095D01*
X172019047Y-129100000D01*
X171942857Y-129061904D01*
X171752380Y-129061904D01*
X171638095Y-129100000D01*
X171333333Y-129633333D02*
X170952380Y-129633333D01*
X171409523Y-129861904D02*
X171142857Y-129061904D01*
X170876190Y-129861904D01*
X169657142Y-129328571D02*
X169657142Y-129861904D01*
X169847619Y-129023809D02*
X170038095Y-129595238D01*
X169542857Y-129595238D01*
X169238095Y-129785714D02*
X169200000Y-129823809D01*
X169238095Y-129861904D01*
X169276190Y-129823809D01*
X169238095Y-129785714D01*
X169238095Y-129861904D01*
X168704761Y-129061904D02*
X168628571Y-129061904D01*
X168552380Y-129100000D01*
X168514285Y-129138095D01*
X168476190Y-129214285D01*
X168438095Y-129366666D01*
X168438095Y-129557142D01*
X168476190Y-129709523D01*
X168514285Y-129785714D01*
X168552380Y-129823809D01*
X168628571Y-129861904D01*
X168704761Y-129861904D01*
X168780952Y-129823809D01*
X168819047Y-129785714D01*
X168857142Y-129709523D01*
X168895238Y-129557142D01*
X168895238Y-129366666D01*
X168857142Y-129214285D01*
X168819047Y-129138095D01*
X168780952Y-129100000D01*
X168704761Y-129061904D01*
X176842857Y-127792857D02*
X176728571Y-127830952D01*
X176690476Y-127869047D01*
X176652380Y-127945238D01*
X176652380Y-128059523D01*
X176690476Y-128135714D01*
X176728571Y-128173809D01*
X176804761Y-128211904D01*
X177109523Y-128211904D01*
X177109523Y-127411904D01*
X176842857Y-127411904D01*
X176766666Y-127450000D01*
X176728571Y-127488095D01*
X176690476Y-127564285D01*
X176690476Y-127640476D01*
X176728571Y-127716666D01*
X176766666Y-127754761D01*
X176842857Y-127792857D01*
X177109523Y-127792857D01*
X176309523Y-128211904D02*
X176309523Y-127678571D01*
X176309523Y-127411904D02*
X176347619Y-127450000D01*
X176309523Y-127488095D01*
X176271428Y-127450000D01*
X176309523Y-127411904D01*
X176309523Y-127488095D01*
X175928571Y-127678571D02*
X175928571Y-128211904D01*
X175928571Y-127754761D02*
X175890476Y-127716666D01*
X175814285Y-127678571D01*
X175700000Y-127678571D01*
X175623809Y-127716666D01*
X175585714Y-127792857D01*
X175585714Y-128211904D01*
X174861904Y-128211904D02*
X174861904Y-127792857D01*
X174900000Y-127716666D01*
X174976190Y-127678571D01*
X175128571Y-127678571D01*
X175204761Y-127716666D01*
X174861904Y-128173809D02*
X174938095Y-128211904D01*
X175128571Y-128211904D01*
X175204761Y-128173809D01*
X175242857Y-128097619D01*
X175242857Y-128021428D01*
X175204761Y-127945238D01*
X175128571Y-127907142D01*
X174938095Y-127907142D01*
X174861904Y-127869047D01*
X174480952Y-128211904D02*
X174480952Y-127678571D01*
X174480952Y-127830952D02*
X174442857Y-127754761D01*
X174404761Y-127716666D01*
X174328571Y-127678571D01*
X174252380Y-127678571D01*
X174061904Y-127678571D02*
X173871428Y-128211904D01*
X173680952Y-127678571D02*
X173871428Y-128211904D01*
X173947619Y-128402380D01*
X173985714Y-128440476D01*
X174061904Y-128478571D01*
X172766666Y-128211904D02*
X172766666Y-127411904D01*
X172309523Y-128211904D02*
X172652380Y-127754761D01*
X172309523Y-127411904D02*
X172766666Y-127869047D01*
X171966666Y-128211904D02*
X171966666Y-127678571D01*
X171966666Y-127411904D02*
X172004761Y-127450000D01*
X171966666Y-127488095D01*
X171928571Y-127450000D01*
X171966666Y-127411904D01*
X171966666Y-127488095D01*
X171700000Y-127678571D02*
X171395238Y-127678571D01*
X171585714Y-127411904D02*
X171585714Y-128097619D01*
X171547619Y-128173809D01*
X171471428Y-128211904D01*
X171395238Y-128211904D01*
X170785714Y-128173809D02*
X170861904Y-128211904D01*
X171014285Y-128211904D01*
X171090476Y-128173809D01*
X171128571Y-128135714D01*
X171166666Y-128059523D01*
X171166666Y-127830952D01*
X171128571Y-127754761D01*
X171090476Y-127716666D01*
X171014285Y-127678571D01*
X170861904Y-127678571D01*
X170785714Y-127716666D01*
X170442857Y-128211904D02*
X170442857Y-127411904D01*
X170100000Y-128211904D02*
X170100000Y-127792857D01*
X170138095Y-127716666D01*
X170214285Y-127678571D01*
X170328571Y-127678571D01*
X170404761Y-127716666D01*
X170442857Y-127754761D01*
X169414285Y-128173809D02*
X169490476Y-128211904D01*
X169642857Y-128211904D01*
X169719047Y-128173809D01*
X169757142Y-128097619D01*
X169757142Y-127792857D01*
X169719047Y-127716666D01*
X169642857Y-127678571D01*
X169490476Y-127678571D01*
X169414285Y-127716666D01*
X169376190Y-127792857D01*
X169376190Y-127869047D01*
X169757142Y-127945238D01*
X169033333Y-127678571D02*
X169033333Y-128211904D01*
X169033333Y-127754761D02*
X168995238Y-127716666D01*
X168919047Y-127678571D01*
X168804761Y-127678571D01*
X168728571Y-127716666D01*
X168690476Y-127792857D01*
X168690476Y-128211904D01*
X187438095Y-128398809D02*
X187254761Y-128948809D01*
X187071428Y-128398809D01*
X186914285Y-128451190D02*
X186888095Y-128425000D01*
X186835714Y-128398809D01*
X186704761Y-128398809D01*
X186652380Y-128425000D01*
X186626190Y-128451190D01*
X186600000Y-128503571D01*
X186600000Y-128555952D01*
X186626190Y-128634523D01*
X186940476Y-128948809D01*
X186600000Y-128948809D01*
X186364285Y-128896428D02*
X186338095Y-128922619D01*
X186364285Y-128948809D01*
X186390476Y-128922619D01*
X186364285Y-128896428D01*
X186364285Y-128948809D01*
X185814285Y-128948809D02*
X186128571Y-128948809D01*
X185971428Y-128948809D02*
X185971428Y-128398809D01*
X186023809Y-128477380D01*
X186076190Y-128529761D01*
X186128571Y-128555952D01*
D12*
X194704761Y-128002380D02*
X194704761Y-127002380D01*
X193038095Y-127954761D02*
X193133333Y-128002380D01*
X193323809Y-128002380D01*
X193419047Y-127954761D01*
X193466666Y-127907142D01*
X193514285Y-127811904D01*
X193514285Y-127526190D01*
X193466666Y-127430952D01*
X193419047Y-127383333D01*
X193323809Y-127335714D01*
X193133333Y-127335714D01*
X193038095Y-127383333D01*
X192180952Y-128002380D02*
X192180952Y-127478571D01*
X192228571Y-127383333D01*
X192323809Y-127335714D01*
X192514285Y-127335714D01*
X192609523Y-127383333D01*
X192180952Y-127954761D02*
X192276190Y-128002380D01*
X192514285Y-128002380D01*
X192609523Y-127954761D01*
X192657142Y-127859523D01*
X192657142Y-127764285D01*
X192609523Y-127669047D01*
X192514285Y-127621428D01*
X192276190Y-127621428D01*
X192180952Y-127573809D01*
X191704761Y-127335714D02*
X191704761Y-128002380D01*
X191704761Y-127430952D02*
X191657142Y-127383333D01*
X191561904Y-127335714D01*
X191419047Y-127335714D01*
X191323809Y-127383333D01*
X191276190Y-127478571D01*
X191276190Y-128002380D01*
X190085714Y-127954761D02*
X189990476Y-128002380D01*
X189800000Y-128002380D01*
X189704761Y-127954761D01*
X189657142Y-127859523D01*
X189657142Y-127811904D01*
X189704761Y-127716666D01*
X189800000Y-127669047D01*
X189942857Y-127669047D01*
X190038095Y-127621428D01*
X190085714Y-127526190D01*
X190085714Y-127478571D01*
X190038095Y-127383333D01*
X189942857Y-127335714D01*
X189800000Y-127335714D01*
X189704761Y-127383333D01*
X189085714Y-128002380D02*
X189180952Y-127954761D01*
X189228571Y-127907142D01*
X189276190Y-127811904D01*
X189276190Y-127526190D01*
X189228571Y-127430952D01*
X189180952Y-127383333D01*
X189085714Y-127335714D01*
X188942857Y-127335714D01*
X188847619Y-127383333D01*
X188800000Y-127430952D01*
X188752380Y-127526190D01*
X188752380Y-127811904D01*
X188800000Y-127907142D01*
X188847619Y-127954761D01*
X188942857Y-128002380D01*
X189085714Y-128002380D01*
X188180952Y-128002380D02*
X188276190Y-127954761D01*
X188323809Y-127859523D01*
X188323809Y-127002380D01*
X187371428Y-128002380D02*
X187371428Y-127002380D01*
X187371428Y-127954761D02*
X187466666Y-128002380D01*
X187657142Y-128002380D01*
X187752380Y-127954761D01*
X187800000Y-127907142D01*
X187847619Y-127811904D01*
X187847619Y-127526190D01*
X187800000Y-127430952D01*
X187752380Y-127383333D01*
X187657142Y-127335714D01*
X187466666Y-127335714D01*
X187371428Y-127383333D01*
X186514285Y-127954761D02*
X186609523Y-128002380D01*
X186800000Y-128002380D01*
X186895238Y-127954761D01*
X186942857Y-127859523D01*
X186942857Y-127478571D01*
X186895238Y-127383333D01*
X186800000Y-127335714D01*
X186609523Y-127335714D01*
X186514285Y-127383333D01*
X186466666Y-127478571D01*
X186466666Y-127573809D01*
X186942857Y-127669047D01*
X186038095Y-128002380D02*
X186038095Y-127335714D01*
X186038095Y-127526190D02*
X185990476Y-127430952D01*
X185942857Y-127383333D01*
X185847619Y-127335714D01*
X185752380Y-127335714D01*
D13*
%TO.C,BT1*%
X189686120Y-119199840D02*
X192668080Y-119199840D01*
X192668080Y-119199840D02*
X192668080Y-111600160D01*
X192668080Y-111600160D02*
X189686120Y-111600160D01*
X168809860Y-119199840D02*
X168809860Y-111600160D01*
X168816795Y-111588152D02*
G75*
G02*
X189686120Y-111600160I10432465J-3824548D01*
G01*
X189683665Y-119213488D02*
G75*
G02*
X168809860Y-119199840I-10434405J3826188D01*
G01*
%TD*%
M02*
