%TF.GenerationSoftware,KiCad,Pcbnew,5.1.9*%
%TF.CreationDate,2021-04-20T19:45:11+02:00*%
%TF.ProjectId,ICanSolder,4943616e-536f-46c6-9465-722e6b696361,rev?*%
%TF.SameCoordinates,Original*%
%TF.FileFunction,Soldermask,Top*%
%TF.FilePolarity,Negative*%
%FSLAX46Y46*%
G04 Gerber Fmt 4.6, Leading zero omitted, Abs format (unit mm)*
G04 Created by KiCad (PCBNEW 5.1.9) date 2021-04-20 19:45:11*
%MOMM*%
%LPD*%
G01*
G04 APERTURE LIST*
%ADD10C,0.010000*%
%ADD11C,3.900000*%
%ADD12C,1.900000*%
%ADD13C,2.151380*%
G04 APERTURE END LIST*
D10*
%TO.C,Ref\u002A\u002A*%
G36*
X176956677Y-99651759D02*
G01*
X177362836Y-99692486D01*
X177760257Y-99759429D01*
X177960000Y-99802598D01*
X178668618Y-100000616D01*
X179312735Y-100253420D01*
X179892462Y-100561078D01*
X180407908Y-100923658D01*
X180859182Y-101341229D01*
X181246395Y-101813861D01*
X181297349Y-101887143D01*
X181540741Y-102218003D01*
X181768890Y-102470597D01*
X181986963Y-102648828D01*
X182200129Y-102756601D01*
X182413554Y-102797819D01*
X182501173Y-102796473D01*
X182631785Y-102774339D01*
X182682868Y-102736951D01*
X182656769Y-102690610D01*
X182555836Y-102641622D01*
X182430428Y-102606477D01*
X182266575Y-102559824D01*
X182113931Y-102500916D01*
X182040523Y-102463130D01*
X181931041Y-102379265D01*
X181817933Y-102266937D01*
X181715091Y-102144001D01*
X181636406Y-102028315D01*
X181595771Y-101937733D01*
X181599361Y-101896074D01*
X181661758Y-101848580D01*
X181783985Y-101776066D01*
X181948302Y-101687443D01*
X182136968Y-101591623D01*
X182332243Y-101497516D01*
X182516386Y-101414033D01*
X182671657Y-101350085D01*
X182723794Y-101331264D01*
X183227687Y-101179487D01*
X183714761Y-101074350D01*
X184214212Y-101011224D01*
X184755236Y-100985477D01*
X184910880Y-100984333D01*
X185631606Y-101017645D01*
X186311377Y-101116764D01*
X186946394Y-101280463D01*
X187532858Y-101507519D01*
X188066969Y-101796705D01*
X188544928Y-102146795D01*
X188563135Y-102162314D01*
X188899214Y-102497425D01*
X189155953Y-102854165D01*
X189334159Y-103226872D01*
X189434640Y-103609885D01*
X189458204Y-103997545D01*
X189405658Y-104384190D01*
X189277810Y-104764160D01*
X189075469Y-105131793D01*
X188799441Y-105481429D01*
X188450535Y-105807407D01*
X188029558Y-106104065D01*
X187997944Y-106123267D01*
X187696604Y-106287030D01*
X187368246Y-106435430D01*
X187032434Y-106561776D01*
X186708733Y-106659373D01*
X186416706Y-106721531D01*
X186190123Y-106741667D01*
X186031004Y-106754482D01*
X185933584Y-106790398D01*
X185921503Y-106801750D01*
X185901946Y-106864531D01*
X185957643Y-106907206D01*
X186081001Y-106927122D01*
X186264427Y-106921630D01*
X186264847Y-106921592D01*
X186511334Y-106899241D01*
X186511334Y-108350334D01*
X186798247Y-108350334D01*
X187021281Y-108366047D01*
X187176993Y-108416767D01*
X187277370Y-108507859D01*
X187315119Y-108581727D01*
X187318737Y-108639044D01*
X187317472Y-108773706D01*
X187311719Y-108978617D01*
X187301871Y-109246682D01*
X187288320Y-109570803D01*
X187271462Y-109943884D01*
X187251687Y-110358829D01*
X187229391Y-110808542D01*
X187204965Y-111285926D01*
X187178804Y-111783885D01*
X187151301Y-112295322D01*
X187122848Y-112813142D01*
X187093840Y-113330247D01*
X187064668Y-113839542D01*
X187035728Y-114333930D01*
X187007411Y-114806314D01*
X186980112Y-115249599D01*
X186954222Y-115656688D01*
X186930137Y-116020485D01*
X186908248Y-116333894D01*
X186888949Y-116589817D01*
X186872634Y-116781159D01*
X186859696Y-116900823D01*
X186851910Y-116940432D01*
X186814747Y-116996868D01*
X186763584Y-117042834D01*
X186688873Y-117080233D01*
X186581066Y-117110969D01*
X186430618Y-117136946D01*
X186227980Y-117160067D01*
X185963605Y-117182236D01*
X185627945Y-117205356D01*
X185474167Y-117215135D01*
X184137683Y-117285498D01*
X182754410Y-117333000D01*
X181353876Y-117357212D01*
X179965607Y-117357704D01*
X178619133Y-117334048D01*
X178192834Y-117320999D01*
X177813964Y-117306846D01*
X177421316Y-117289896D01*
X177024731Y-117270768D01*
X176634051Y-117250080D01*
X176259117Y-117228450D01*
X175909772Y-117206498D01*
X175595858Y-117184840D01*
X175327216Y-117164096D01*
X175113689Y-117144884D01*
X174965119Y-117127822D01*
X174891488Y-117113582D01*
X174854462Y-117099971D01*
X174821580Y-117085688D01*
X174792303Y-117065761D01*
X174766090Y-117035213D01*
X174742402Y-116989073D01*
X174720697Y-116922366D01*
X174700437Y-116830118D01*
X174681081Y-116707354D01*
X174662088Y-116549102D01*
X174642920Y-116350388D01*
X174623035Y-116106236D01*
X174601894Y-115811674D01*
X174589456Y-115621915D01*
X177988733Y-115621915D01*
X178099442Y-115732624D01*
X178150276Y-115779553D01*
X178202877Y-115810916D01*
X178274668Y-115829843D01*
X178383069Y-115839465D01*
X178545501Y-115842914D01*
X178715386Y-115843334D01*
X178937713Y-115841578D01*
X179092468Y-115834791D01*
X179196697Y-115820694D01*
X179267451Y-115797008D01*
X179320560Y-115762445D01*
X179420500Y-115681556D01*
X179449509Y-113112158D01*
X179449926Y-113070500D01*
X180781648Y-113070500D01*
X180782686Y-113335377D01*
X180787656Y-113536177D01*
X180798805Y-113693472D01*
X180818382Y-113827836D01*
X180848635Y-113959841D01*
X180891812Y-114110061D01*
X180897177Y-114127695D01*
X180967035Y-114334652D01*
X181049421Y-114546334D01*
X181129219Y-114724555D01*
X181148135Y-114761563D01*
X181340696Y-115060690D01*
X181576795Y-115326027D01*
X181840811Y-115543942D01*
X182117123Y-115700805D01*
X182296643Y-115763757D01*
X182508024Y-115786553D01*
X182754247Y-115763470D01*
X183002038Y-115698912D01*
X183107455Y-115656468D01*
X183379745Y-115488604D01*
X183634469Y-115247040D01*
X183864337Y-114942114D01*
X184062057Y-114584168D01*
X184220338Y-114183541D01*
X184274162Y-114001834D01*
X184326898Y-113732924D01*
X184360349Y-113409642D01*
X184374210Y-113059265D01*
X184368178Y-112709075D01*
X184341948Y-112386351D01*
X184295219Y-112118374D01*
X184295127Y-112118000D01*
X184166005Y-111709219D01*
X183991831Y-111332898D01*
X183780467Y-111000418D01*
X183539772Y-110723161D01*
X183277607Y-110512507D01*
X183129428Y-110430243D01*
X182853533Y-110340686D01*
X182557216Y-110312727D01*
X182267786Y-110346497D01*
X182045167Y-110425032D01*
X181775036Y-110601168D01*
X181518671Y-110848604D01*
X181285560Y-111154082D01*
X181085193Y-111504342D01*
X180927059Y-111886126D01*
X180872521Y-112063529D01*
X180835778Y-112212527D01*
X180810164Y-112360316D01*
X180793847Y-112527190D01*
X180784997Y-112733445D01*
X180781782Y-112999375D01*
X180781648Y-113070500D01*
X179449926Y-113070500D01*
X179454746Y-112590059D01*
X179458231Y-112111454D01*
X179459985Y-111681841D01*
X179460027Y-111306717D01*
X179458377Y-110991580D01*
X179455057Y-110741925D01*
X179450086Y-110563250D01*
X179443485Y-110461052D01*
X179439685Y-110440621D01*
X179395179Y-110366704D01*
X179318592Y-110314429D01*
X179197454Y-110280599D01*
X179019297Y-110262015D01*
X178771649Y-110255478D01*
X178717320Y-110255334D01*
X178511279Y-110256543D01*
X178371553Y-110262407D01*
X178279798Y-110276276D01*
X178217674Y-110301501D01*
X178166836Y-110341433D01*
X178148576Y-110359243D01*
X178114250Y-110395374D01*
X178088461Y-110433639D01*
X178069989Y-110485853D01*
X178057611Y-110563832D01*
X178050106Y-110679392D01*
X178046252Y-110844348D01*
X178044827Y-111070516D01*
X178044609Y-111364659D01*
X178043826Y-111620875D01*
X178041627Y-111944999D01*
X178038192Y-112320289D01*
X178033704Y-112730001D01*
X178028343Y-113157393D01*
X178022293Y-113585722D01*
X178016642Y-113944041D01*
X177988733Y-115621915D01*
X174589456Y-115621915D01*
X174578956Y-115461727D01*
X174553682Y-115051422D01*
X174525531Y-114575784D01*
X174493964Y-114029840D01*
X174458440Y-113408615D01*
X174424402Y-112811916D01*
X174391345Y-112232065D01*
X174359694Y-111675381D01*
X174329780Y-111147787D01*
X174301935Y-110655202D01*
X174276491Y-110203548D01*
X174253780Y-109798747D01*
X174234133Y-109446718D01*
X174217883Y-109153384D01*
X174205361Y-108924665D01*
X174196900Y-108766483D01*
X174192832Y-108684758D01*
X174192506Y-108675160D01*
X174220826Y-108597547D01*
X174291482Y-108500221D01*
X174316077Y-108474077D01*
X174383850Y-108412207D01*
X174450258Y-108375324D01*
X174539445Y-108357014D01*
X174675554Y-108350861D01*
X174781744Y-108350334D01*
X175123667Y-108350334D01*
X175123667Y-107243033D01*
X175578750Y-107256933D01*
X175779587Y-107262153D01*
X175910648Y-107261575D01*
X175986749Y-107252894D01*
X176022710Y-107233806D01*
X176033348Y-107202008D01*
X176033834Y-107186167D01*
X176027111Y-107148008D01*
X175997077Y-107121611D01*
X175928928Y-107103256D01*
X175807864Y-107089224D01*
X175619081Y-107075797D01*
X175586462Y-107073757D01*
X174935904Y-107002832D01*
X174309130Y-106874496D01*
X173713007Y-106692594D01*
X173154398Y-106460969D01*
X172640167Y-106183465D01*
X172177180Y-105863926D01*
X171772300Y-105506195D01*
X171432392Y-105114116D01*
X171164321Y-104691534D01*
X171099915Y-104561500D01*
X170971896Y-104258427D01*
X170889604Y-103986758D01*
X170845538Y-103712054D01*
X170832198Y-103399877D01*
X170832514Y-103333834D01*
X170873335Y-102874915D01*
X170987728Y-102443076D01*
X171178678Y-102031446D01*
X171449168Y-101633155D01*
X171692504Y-101353255D01*
X172002569Y-101050080D01*
X172319291Y-100792954D01*
X172669810Y-100561692D01*
X173012891Y-100371265D01*
X173592190Y-100105138D01*
X174189684Y-99901835D01*
X174818657Y-99758128D01*
X175492393Y-99670790D01*
X176020127Y-99640774D01*
X176517275Y-99635203D01*
X176956677Y-99651759D01*
G37*
X176956677Y-99651759D02*
X177362836Y-99692486D01*
X177760257Y-99759429D01*
X177960000Y-99802598D01*
X178668618Y-100000616D01*
X179312735Y-100253420D01*
X179892462Y-100561078D01*
X180407908Y-100923658D01*
X180859182Y-101341229D01*
X181246395Y-101813861D01*
X181297349Y-101887143D01*
X181540741Y-102218003D01*
X181768890Y-102470597D01*
X181986963Y-102648828D01*
X182200129Y-102756601D01*
X182413554Y-102797819D01*
X182501173Y-102796473D01*
X182631785Y-102774339D01*
X182682868Y-102736951D01*
X182656769Y-102690610D01*
X182555836Y-102641622D01*
X182430428Y-102606477D01*
X182266575Y-102559824D01*
X182113931Y-102500916D01*
X182040523Y-102463130D01*
X181931041Y-102379265D01*
X181817933Y-102266937D01*
X181715091Y-102144001D01*
X181636406Y-102028315D01*
X181595771Y-101937733D01*
X181599361Y-101896074D01*
X181661758Y-101848580D01*
X181783985Y-101776066D01*
X181948302Y-101687443D01*
X182136968Y-101591623D01*
X182332243Y-101497516D01*
X182516386Y-101414033D01*
X182671657Y-101350085D01*
X182723794Y-101331264D01*
X183227687Y-101179487D01*
X183714761Y-101074350D01*
X184214212Y-101011224D01*
X184755236Y-100985477D01*
X184910880Y-100984333D01*
X185631606Y-101017645D01*
X186311377Y-101116764D01*
X186946394Y-101280463D01*
X187532858Y-101507519D01*
X188066969Y-101796705D01*
X188544928Y-102146795D01*
X188563135Y-102162314D01*
X188899214Y-102497425D01*
X189155953Y-102854165D01*
X189334159Y-103226872D01*
X189434640Y-103609885D01*
X189458204Y-103997545D01*
X189405658Y-104384190D01*
X189277810Y-104764160D01*
X189075469Y-105131793D01*
X188799441Y-105481429D01*
X188450535Y-105807407D01*
X188029558Y-106104065D01*
X187997944Y-106123267D01*
X187696604Y-106287030D01*
X187368246Y-106435430D01*
X187032434Y-106561776D01*
X186708733Y-106659373D01*
X186416706Y-106721531D01*
X186190123Y-106741667D01*
X186031004Y-106754482D01*
X185933584Y-106790398D01*
X185921503Y-106801750D01*
X185901946Y-106864531D01*
X185957643Y-106907206D01*
X186081001Y-106927122D01*
X186264427Y-106921630D01*
X186264847Y-106921592D01*
X186511334Y-106899241D01*
X186511334Y-108350334D01*
X186798247Y-108350334D01*
X187021281Y-108366047D01*
X187176993Y-108416767D01*
X187277370Y-108507859D01*
X187315119Y-108581727D01*
X187318737Y-108639044D01*
X187317472Y-108773706D01*
X187311719Y-108978617D01*
X187301871Y-109246682D01*
X187288320Y-109570803D01*
X187271462Y-109943884D01*
X187251687Y-110358829D01*
X187229391Y-110808542D01*
X187204965Y-111285926D01*
X187178804Y-111783885D01*
X187151301Y-112295322D01*
X187122848Y-112813142D01*
X187093840Y-113330247D01*
X187064668Y-113839542D01*
X187035728Y-114333930D01*
X187007411Y-114806314D01*
X186980112Y-115249599D01*
X186954222Y-115656688D01*
X186930137Y-116020485D01*
X186908248Y-116333894D01*
X186888949Y-116589817D01*
X186872634Y-116781159D01*
X186859696Y-116900823D01*
X186851910Y-116940432D01*
X186814747Y-116996868D01*
X186763584Y-117042834D01*
X186688873Y-117080233D01*
X186581066Y-117110969D01*
X186430618Y-117136946D01*
X186227980Y-117160067D01*
X185963605Y-117182236D01*
X185627945Y-117205356D01*
X185474167Y-117215135D01*
X184137683Y-117285498D01*
X182754410Y-117333000D01*
X181353876Y-117357212D01*
X179965607Y-117357704D01*
X178619133Y-117334048D01*
X178192834Y-117320999D01*
X177813964Y-117306846D01*
X177421316Y-117289896D01*
X177024731Y-117270768D01*
X176634051Y-117250080D01*
X176259117Y-117228450D01*
X175909772Y-117206498D01*
X175595858Y-117184840D01*
X175327216Y-117164096D01*
X175113689Y-117144884D01*
X174965119Y-117127822D01*
X174891488Y-117113582D01*
X174854462Y-117099971D01*
X174821580Y-117085688D01*
X174792303Y-117065761D01*
X174766090Y-117035213D01*
X174742402Y-116989073D01*
X174720697Y-116922366D01*
X174700437Y-116830118D01*
X174681081Y-116707354D01*
X174662088Y-116549102D01*
X174642920Y-116350388D01*
X174623035Y-116106236D01*
X174601894Y-115811674D01*
X174589456Y-115621915D01*
X177988733Y-115621915D01*
X178099442Y-115732624D01*
X178150276Y-115779553D01*
X178202877Y-115810916D01*
X178274668Y-115829843D01*
X178383069Y-115839465D01*
X178545501Y-115842914D01*
X178715386Y-115843334D01*
X178937713Y-115841578D01*
X179092468Y-115834791D01*
X179196697Y-115820694D01*
X179267451Y-115797008D01*
X179320560Y-115762445D01*
X179420500Y-115681556D01*
X179449509Y-113112158D01*
X179449926Y-113070500D01*
X180781648Y-113070500D01*
X180782686Y-113335377D01*
X180787656Y-113536177D01*
X180798805Y-113693472D01*
X180818382Y-113827836D01*
X180848635Y-113959841D01*
X180891812Y-114110061D01*
X180897177Y-114127695D01*
X180967035Y-114334652D01*
X181049421Y-114546334D01*
X181129219Y-114724555D01*
X181148135Y-114761563D01*
X181340696Y-115060690D01*
X181576795Y-115326027D01*
X181840811Y-115543942D01*
X182117123Y-115700805D01*
X182296643Y-115763757D01*
X182508024Y-115786553D01*
X182754247Y-115763470D01*
X183002038Y-115698912D01*
X183107455Y-115656468D01*
X183379745Y-115488604D01*
X183634469Y-115247040D01*
X183864337Y-114942114D01*
X184062057Y-114584168D01*
X184220338Y-114183541D01*
X184274162Y-114001834D01*
X184326898Y-113732924D01*
X184360349Y-113409642D01*
X184374210Y-113059265D01*
X184368178Y-112709075D01*
X184341948Y-112386351D01*
X184295219Y-112118374D01*
X184295127Y-112118000D01*
X184166005Y-111709219D01*
X183991831Y-111332898D01*
X183780467Y-111000418D01*
X183539772Y-110723161D01*
X183277607Y-110512507D01*
X183129428Y-110430243D01*
X182853533Y-110340686D01*
X182557216Y-110312727D01*
X182267786Y-110346497D01*
X182045167Y-110425032D01*
X181775036Y-110601168D01*
X181518671Y-110848604D01*
X181285560Y-111154082D01*
X181085193Y-111504342D01*
X180927059Y-111886126D01*
X180872521Y-112063529D01*
X180835778Y-112212527D01*
X180810164Y-112360316D01*
X180793847Y-112527190D01*
X180784997Y-112733445D01*
X180781782Y-112999375D01*
X180781648Y-113070500D01*
X179449926Y-113070500D01*
X179454746Y-112590059D01*
X179458231Y-112111454D01*
X179459985Y-111681841D01*
X179460027Y-111306717D01*
X179458377Y-110991580D01*
X179455057Y-110741925D01*
X179450086Y-110563250D01*
X179443485Y-110461052D01*
X179439685Y-110440621D01*
X179395179Y-110366704D01*
X179318592Y-110314429D01*
X179197454Y-110280599D01*
X179019297Y-110262015D01*
X178771649Y-110255478D01*
X178717320Y-110255334D01*
X178511279Y-110256543D01*
X178371553Y-110262407D01*
X178279798Y-110276276D01*
X178217674Y-110301501D01*
X178166836Y-110341433D01*
X178148576Y-110359243D01*
X178114250Y-110395374D01*
X178088461Y-110433639D01*
X178069989Y-110485853D01*
X178057611Y-110563832D01*
X178050106Y-110679392D01*
X178046252Y-110844348D01*
X178044827Y-111070516D01*
X178044609Y-111364659D01*
X178043826Y-111620875D01*
X178041627Y-111944999D01*
X178038192Y-112320289D01*
X178033704Y-112730001D01*
X178028343Y-113157393D01*
X178022293Y-113585722D01*
X178016642Y-113944041D01*
X177988733Y-115621915D01*
X174589456Y-115621915D01*
X174578956Y-115461727D01*
X174553682Y-115051422D01*
X174525531Y-114575784D01*
X174493964Y-114029840D01*
X174458440Y-113408615D01*
X174424402Y-112811916D01*
X174391345Y-112232065D01*
X174359694Y-111675381D01*
X174329780Y-111147787D01*
X174301935Y-110655202D01*
X174276491Y-110203548D01*
X174253780Y-109798747D01*
X174234133Y-109446718D01*
X174217883Y-109153384D01*
X174205361Y-108924665D01*
X174196900Y-108766483D01*
X174192832Y-108684758D01*
X174192506Y-108675160D01*
X174220826Y-108597547D01*
X174291482Y-108500221D01*
X174316077Y-108474077D01*
X174383850Y-108412207D01*
X174450258Y-108375324D01*
X174539445Y-108357014D01*
X174675554Y-108350861D01*
X174781744Y-108350334D01*
X175123667Y-108350334D01*
X175123667Y-107243033D01*
X175578750Y-107256933D01*
X175779587Y-107262153D01*
X175910648Y-107261575D01*
X175986749Y-107252894D01*
X176022710Y-107233806D01*
X176033348Y-107202008D01*
X176033834Y-107186167D01*
X176027111Y-107148008D01*
X175997077Y-107121611D01*
X175928928Y-107103256D01*
X175807864Y-107089224D01*
X175619081Y-107075797D01*
X175586462Y-107073757D01*
X174935904Y-107002832D01*
X174309130Y-106874496D01*
X173713007Y-106692594D01*
X173154398Y-106460969D01*
X172640167Y-106183465D01*
X172177180Y-105863926D01*
X171772300Y-105506195D01*
X171432392Y-105114116D01*
X171164321Y-104691534D01*
X171099915Y-104561500D01*
X170971896Y-104258427D01*
X170889604Y-103986758D01*
X170845538Y-103712054D01*
X170832198Y-103399877D01*
X170832514Y-103333834D01*
X170873335Y-102874915D01*
X170987728Y-102443076D01*
X171178678Y-102031446D01*
X171449168Y-101633155D01*
X171692504Y-101353255D01*
X172002569Y-101050080D01*
X172319291Y-100792954D01*
X172669810Y-100561692D01*
X173012891Y-100371265D01*
X173592190Y-100105138D01*
X174189684Y-99901835D01*
X174818657Y-99758128D01*
X175492393Y-99670790D01*
X176020127Y-99640774D01*
X176517275Y-99635203D01*
X176956677Y-99651759D01*
G36*
X166564391Y-115325745D02*
G01*
X166607600Y-115328770D01*
X166657125Y-115335731D01*
X166716539Y-115348033D01*
X166789419Y-115367077D01*
X166879338Y-115394269D01*
X166989873Y-115431012D01*
X167124597Y-115478709D01*
X167287087Y-115538764D01*
X167480917Y-115612581D01*
X167709662Y-115701563D01*
X167976897Y-115807114D01*
X168286197Y-115930637D01*
X168641137Y-116073537D01*
X169045293Y-116237216D01*
X169502239Y-116423079D01*
X170015550Y-116632529D01*
X170588802Y-116866969D01*
X171225569Y-117127804D01*
X171929426Y-117416437D01*
X172703948Y-117734271D01*
X173552711Y-118082710D01*
X173674734Y-118132810D01*
X174744634Y-118572093D01*
X174786783Y-118728623D01*
X174864180Y-118888354D01*
X174989578Y-119015993D01*
X175139312Y-119091196D01*
X175222165Y-119102842D01*
X175350827Y-119079976D01*
X175484371Y-119024474D01*
X175495603Y-119017874D01*
X175593749Y-118965206D01*
X175665137Y-118958253D01*
X175752097Y-118993789D01*
X175759787Y-118997746D01*
X175908967Y-119108821D01*
X175994192Y-119257808D01*
X176016003Y-119449668D01*
X175974939Y-119689362D01*
X175871539Y-119981851D01*
X175867808Y-119990715D01*
X175801151Y-120153227D01*
X175749681Y-120287725D01*
X175720880Y-120374221D01*
X175717305Y-120392882D01*
X175755573Y-120416526D01*
X175865305Y-120468832D01*
X176039448Y-120546786D01*
X176270951Y-120647370D01*
X176552760Y-120767569D01*
X176877822Y-120904366D01*
X177239085Y-121054746D01*
X177629497Y-121215691D01*
X177901244Y-121326864D01*
X178306870Y-121493058D01*
X178687841Y-121650608D01*
X179037131Y-121796509D01*
X179347715Y-121927756D01*
X179612566Y-122041344D01*
X179824660Y-122134269D01*
X179976971Y-122203526D01*
X180062473Y-122246111D01*
X180078890Y-122258197D01*
X180040047Y-122290044D01*
X179939715Y-122345032D01*
X179795279Y-122415525D01*
X179624126Y-122493889D01*
X179443642Y-122572489D01*
X179271214Y-122643690D01*
X179124226Y-122699857D01*
X179020065Y-122733357D01*
X178983222Y-122739340D01*
X178929850Y-122722679D01*
X178806956Y-122676913D01*
X178623180Y-122605482D01*
X178387162Y-122511824D01*
X178107543Y-122399380D01*
X177792961Y-122271590D01*
X177452057Y-122131892D01*
X177303834Y-122070795D01*
X176949249Y-121924443D01*
X176613118Y-121785811D01*
X176304843Y-121658772D01*
X176033827Y-121547195D01*
X175809474Y-121454950D01*
X175641185Y-121385909D01*
X175538366Y-121343942D01*
X175519218Y-121336219D01*
X175343270Y-121265861D01*
X175180552Y-121670730D01*
X175055152Y-121948701D01*
X174930561Y-122148426D01*
X174799443Y-122275929D01*
X174654460Y-122337239D01*
X174488278Y-122338381D01*
X174392958Y-122317727D01*
X174281991Y-122269455D01*
X174229445Y-122190787D01*
X174221446Y-122158979D01*
X174175004Y-122048084D01*
X174093817Y-121937246D01*
X174086179Y-121929391D01*
X173926031Y-121816086D01*
X173754122Y-121786481D01*
X173567254Y-121840043D01*
X173562701Y-121842276D01*
X173401703Y-121921931D01*
X169406563Y-120287473D01*
X168752617Y-120019792D01*
X168172515Y-119781963D01*
X167661651Y-119571995D01*
X167215418Y-119387897D01*
X166829210Y-119227678D01*
X166498419Y-119089348D01*
X166218440Y-118970914D01*
X165984666Y-118870388D01*
X165792491Y-118785776D01*
X165637308Y-118715089D01*
X165514511Y-118656336D01*
X165419493Y-118607525D01*
X165347647Y-118566666D01*
X165294368Y-118531769D01*
X165255048Y-118500841D01*
X165239369Y-118486424D01*
X165057345Y-118267330D01*
X164944483Y-118034634D01*
X164919940Y-117885174D01*
X166152393Y-117885174D01*
X166175415Y-117950211D01*
X166219724Y-117975514D01*
X166335896Y-118029957D01*
X166517349Y-118110817D01*
X166757506Y-118215369D01*
X167049785Y-118340889D01*
X167387608Y-118484653D01*
X167764394Y-118643937D01*
X168173565Y-118816015D01*
X168608540Y-118998164D01*
X169062741Y-119187659D01*
X169529586Y-119381777D01*
X170002498Y-119577792D01*
X170474896Y-119772981D01*
X170940201Y-119964619D01*
X171391833Y-120149982D01*
X171823212Y-120326345D01*
X172227759Y-120490985D01*
X172598894Y-120641176D01*
X172930038Y-120774195D01*
X173214611Y-120887317D01*
X173446034Y-120977819D01*
X173617726Y-121042975D01*
X173723109Y-121080061D01*
X173753233Y-121087843D01*
X173847876Y-121067249D01*
X173890099Y-121036277D01*
X173913317Y-120967032D01*
X173884699Y-120914010D01*
X173838834Y-120888919D01*
X173719973Y-120834239D01*
X173533559Y-120752258D01*
X173285031Y-120645266D01*
X172979833Y-120515551D01*
X172623404Y-120365402D01*
X172221185Y-120197108D01*
X171778619Y-120012957D01*
X171301147Y-119815239D01*
X170794208Y-119606241D01*
X170263246Y-119388253D01*
X170044648Y-119298764D01*
X169410275Y-119039431D01*
X168849615Y-118810615D01*
X168358105Y-118610557D01*
X167931185Y-118437498D01*
X167564295Y-118289680D01*
X167252872Y-118165341D01*
X166992356Y-118062724D01*
X166778186Y-117980070D01*
X166605801Y-117915618D01*
X166470640Y-117867609D01*
X166368141Y-117834286D01*
X166293745Y-117813887D01*
X166242889Y-117804654D01*
X166211013Y-117804829D01*
X166193556Y-117812650D01*
X166193032Y-117813159D01*
X166152393Y-117885174D01*
X164919940Y-117885174D01*
X164907896Y-117811834D01*
X164924281Y-117726399D01*
X164969456Y-117577131D01*
X165037998Y-117377645D01*
X165124484Y-117141553D01*
X165223491Y-116882469D01*
X165295338Y-116700684D01*
X165875669Y-116700684D01*
X165927402Y-116763704D01*
X166013246Y-116759806D01*
X166139885Y-116688086D01*
X166178297Y-116659762D01*
X166225665Y-116623345D01*
X166270104Y-116592051D01*
X166316371Y-116567454D01*
X166369222Y-116551125D01*
X166433412Y-116544637D01*
X166513697Y-116549561D01*
X166614832Y-116567471D01*
X166741575Y-116599938D01*
X166898680Y-116648536D01*
X167090904Y-116714835D01*
X167323001Y-116800409D01*
X167599729Y-116906829D01*
X167925843Y-117035669D01*
X168306098Y-117188500D01*
X168745251Y-117366895D01*
X169248058Y-117572426D01*
X169819273Y-117806665D01*
X170463654Y-118071184D01*
X170530500Y-118098624D01*
X171068553Y-118319143D01*
X171585501Y-118530354D01*
X172075832Y-118730042D01*
X172534032Y-118915990D01*
X172954589Y-119085984D01*
X173331990Y-119237808D01*
X173660722Y-119369247D01*
X173935274Y-119478085D01*
X174150131Y-119562106D01*
X174299782Y-119619096D01*
X174378713Y-119646838D01*
X174388888Y-119649246D01*
X174473285Y-119623356D01*
X174506860Y-119582318D01*
X174515844Y-119563603D01*
X174524586Y-119547034D01*
X174529204Y-119530910D01*
X174525814Y-119513529D01*
X174510534Y-119493189D01*
X174479482Y-119468191D01*
X174428773Y-119436831D01*
X174354527Y-119397408D01*
X174252859Y-119348222D01*
X174119887Y-119287570D01*
X173951729Y-119213752D01*
X173744501Y-119125066D01*
X173494322Y-119019811D01*
X173197307Y-118896285D01*
X172849575Y-118752786D01*
X172447242Y-118587614D01*
X171986426Y-118399067D01*
X171463245Y-118185444D01*
X170873815Y-117945043D01*
X170214253Y-117676163D01*
X169480677Y-117377102D01*
X169389449Y-117339904D01*
X168945768Y-117159701D01*
X168521480Y-116988738D01*
X168123693Y-116829794D01*
X167759515Y-116685643D01*
X167436055Y-116559063D01*
X167160419Y-116452829D01*
X166939718Y-116369718D01*
X166781057Y-116312508D01*
X166691546Y-116283973D01*
X166679678Y-116281477D01*
X166523799Y-116278080D01*
X166356683Y-116299580D01*
X166325077Y-116307184D01*
X166179958Y-116365020D01*
X166045223Y-116450324D01*
X165938821Y-116547378D01*
X165878704Y-116640466D01*
X165875669Y-116700684D01*
X165295338Y-116700684D01*
X165329596Y-116614008D01*
X165437375Y-116349782D01*
X165541407Y-116103405D01*
X165636267Y-115888491D01*
X165716533Y-115718654D01*
X165776782Y-115607507D01*
X165797643Y-115578266D01*
X165951673Y-115460106D01*
X166165018Y-115374920D01*
X166416261Y-115330170D01*
X166523921Y-115325252D01*
X166564391Y-115325745D01*
G37*
X166564391Y-115325745D02*
X166607600Y-115328770D01*
X166657125Y-115335731D01*
X166716539Y-115348033D01*
X166789419Y-115367077D01*
X166879338Y-115394269D01*
X166989873Y-115431012D01*
X167124597Y-115478709D01*
X167287087Y-115538764D01*
X167480917Y-115612581D01*
X167709662Y-115701563D01*
X167976897Y-115807114D01*
X168286197Y-115930637D01*
X168641137Y-116073537D01*
X169045293Y-116237216D01*
X169502239Y-116423079D01*
X170015550Y-116632529D01*
X170588802Y-116866969D01*
X171225569Y-117127804D01*
X171929426Y-117416437D01*
X172703948Y-117734271D01*
X173552711Y-118082710D01*
X173674734Y-118132810D01*
X174744634Y-118572093D01*
X174786783Y-118728623D01*
X174864180Y-118888354D01*
X174989578Y-119015993D01*
X175139312Y-119091196D01*
X175222165Y-119102842D01*
X175350827Y-119079976D01*
X175484371Y-119024474D01*
X175495603Y-119017874D01*
X175593749Y-118965206D01*
X175665137Y-118958253D01*
X175752097Y-118993789D01*
X175759787Y-118997746D01*
X175908967Y-119108821D01*
X175994192Y-119257808D01*
X176016003Y-119449668D01*
X175974939Y-119689362D01*
X175871539Y-119981851D01*
X175867808Y-119990715D01*
X175801151Y-120153227D01*
X175749681Y-120287725D01*
X175720880Y-120374221D01*
X175717305Y-120392882D01*
X175755573Y-120416526D01*
X175865305Y-120468832D01*
X176039448Y-120546786D01*
X176270951Y-120647370D01*
X176552760Y-120767569D01*
X176877822Y-120904366D01*
X177239085Y-121054746D01*
X177629497Y-121215691D01*
X177901244Y-121326864D01*
X178306870Y-121493058D01*
X178687841Y-121650608D01*
X179037131Y-121796509D01*
X179347715Y-121927756D01*
X179612566Y-122041344D01*
X179824660Y-122134269D01*
X179976971Y-122203526D01*
X180062473Y-122246111D01*
X180078890Y-122258197D01*
X180040047Y-122290044D01*
X179939715Y-122345032D01*
X179795279Y-122415525D01*
X179624126Y-122493889D01*
X179443642Y-122572489D01*
X179271214Y-122643690D01*
X179124226Y-122699857D01*
X179020065Y-122733357D01*
X178983222Y-122739340D01*
X178929850Y-122722679D01*
X178806956Y-122676913D01*
X178623180Y-122605482D01*
X178387162Y-122511824D01*
X178107543Y-122399380D01*
X177792961Y-122271590D01*
X177452057Y-122131892D01*
X177303834Y-122070795D01*
X176949249Y-121924443D01*
X176613118Y-121785811D01*
X176304843Y-121658772D01*
X176033827Y-121547195D01*
X175809474Y-121454950D01*
X175641185Y-121385909D01*
X175538366Y-121343942D01*
X175519218Y-121336219D01*
X175343270Y-121265861D01*
X175180552Y-121670730D01*
X175055152Y-121948701D01*
X174930561Y-122148426D01*
X174799443Y-122275929D01*
X174654460Y-122337239D01*
X174488278Y-122338381D01*
X174392958Y-122317727D01*
X174281991Y-122269455D01*
X174229445Y-122190787D01*
X174221446Y-122158979D01*
X174175004Y-122048084D01*
X174093817Y-121937246D01*
X174086179Y-121929391D01*
X173926031Y-121816086D01*
X173754122Y-121786481D01*
X173567254Y-121840043D01*
X173562701Y-121842276D01*
X173401703Y-121921931D01*
X169406563Y-120287473D01*
X168752617Y-120019792D01*
X168172515Y-119781963D01*
X167661651Y-119571995D01*
X167215418Y-119387897D01*
X166829210Y-119227678D01*
X166498419Y-119089348D01*
X166218440Y-118970914D01*
X165984666Y-118870388D01*
X165792491Y-118785776D01*
X165637308Y-118715089D01*
X165514511Y-118656336D01*
X165419493Y-118607525D01*
X165347647Y-118566666D01*
X165294368Y-118531769D01*
X165255048Y-118500841D01*
X165239369Y-118486424D01*
X165057345Y-118267330D01*
X164944483Y-118034634D01*
X164919940Y-117885174D01*
X166152393Y-117885174D01*
X166175415Y-117950211D01*
X166219724Y-117975514D01*
X166335896Y-118029957D01*
X166517349Y-118110817D01*
X166757506Y-118215369D01*
X167049785Y-118340889D01*
X167387608Y-118484653D01*
X167764394Y-118643937D01*
X168173565Y-118816015D01*
X168608540Y-118998164D01*
X169062741Y-119187659D01*
X169529586Y-119381777D01*
X170002498Y-119577792D01*
X170474896Y-119772981D01*
X170940201Y-119964619D01*
X171391833Y-120149982D01*
X171823212Y-120326345D01*
X172227759Y-120490985D01*
X172598894Y-120641176D01*
X172930038Y-120774195D01*
X173214611Y-120887317D01*
X173446034Y-120977819D01*
X173617726Y-121042975D01*
X173723109Y-121080061D01*
X173753233Y-121087843D01*
X173847876Y-121067249D01*
X173890099Y-121036277D01*
X173913317Y-120967032D01*
X173884699Y-120914010D01*
X173838834Y-120888919D01*
X173719973Y-120834239D01*
X173533559Y-120752258D01*
X173285031Y-120645266D01*
X172979833Y-120515551D01*
X172623404Y-120365402D01*
X172221185Y-120197108D01*
X171778619Y-120012957D01*
X171301147Y-119815239D01*
X170794208Y-119606241D01*
X170263246Y-119388253D01*
X170044648Y-119298764D01*
X169410275Y-119039431D01*
X168849615Y-118810615D01*
X168358105Y-118610557D01*
X167931185Y-118437498D01*
X167564295Y-118289680D01*
X167252872Y-118165341D01*
X166992356Y-118062724D01*
X166778186Y-117980070D01*
X166605801Y-117915618D01*
X166470640Y-117867609D01*
X166368141Y-117834286D01*
X166293745Y-117813887D01*
X166242889Y-117804654D01*
X166211013Y-117804829D01*
X166193556Y-117812650D01*
X166193032Y-117813159D01*
X166152393Y-117885174D01*
X164919940Y-117885174D01*
X164907896Y-117811834D01*
X164924281Y-117726399D01*
X164969456Y-117577131D01*
X165037998Y-117377645D01*
X165124484Y-117141553D01*
X165223491Y-116882469D01*
X165295338Y-116700684D01*
X165875669Y-116700684D01*
X165927402Y-116763704D01*
X166013246Y-116759806D01*
X166139885Y-116688086D01*
X166178297Y-116659762D01*
X166225665Y-116623345D01*
X166270104Y-116592051D01*
X166316371Y-116567454D01*
X166369222Y-116551125D01*
X166433412Y-116544637D01*
X166513697Y-116549561D01*
X166614832Y-116567471D01*
X166741575Y-116599938D01*
X166898680Y-116648536D01*
X167090904Y-116714835D01*
X167323001Y-116800409D01*
X167599729Y-116906829D01*
X167925843Y-117035669D01*
X168306098Y-117188500D01*
X168745251Y-117366895D01*
X169248058Y-117572426D01*
X169819273Y-117806665D01*
X170463654Y-118071184D01*
X170530500Y-118098624D01*
X171068553Y-118319143D01*
X171585501Y-118530354D01*
X172075832Y-118730042D01*
X172534032Y-118915990D01*
X172954589Y-119085984D01*
X173331990Y-119237808D01*
X173660722Y-119369247D01*
X173935274Y-119478085D01*
X174150131Y-119562106D01*
X174299782Y-119619096D01*
X174378713Y-119646838D01*
X174388888Y-119649246D01*
X174473285Y-119623356D01*
X174506860Y-119582318D01*
X174515844Y-119563603D01*
X174524586Y-119547034D01*
X174529204Y-119530910D01*
X174525814Y-119513529D01*
X174510534Y-119493189D01*
X174479482Y-119468191D01*
X174428773Y-119436831D01*
X174354527Y-119397408D01*
X174252859Y-119348222D01*
X174119887Y-119287570D01*
X173951729Y-119213752D01*
X173744501Y-119125066D01*
X173494322Y-119019811D01*
X173197307Y-118896285D01*
X172849575Y-118752786D01*
X172447242Y-118587614D01*
X171986426Y-118399067D01*
X171463245Y-118185444D01*
X170873815Y-117945043D01*
X170214253Y-117676163D01*
X169480677Y-117377102D01*
X169389449Y-117339904D01*
X168945768Y-117159701D01*
X168521480Y-116988738D01*
X168123693Y-116829794D01*
X167759515Y-116685643D01*
X167436055Y-116559063D01*
X167160419Y-116452829D01*
X166939718Y-116369718D01*
X166781057Y-116312508D01*
X166691546Y-116283973D01*
X166679678Y-116281477D01*
X166523799Y-116278080D01*
X166356683Y-116299580D01*
X166325077Y-116307184D01*
X166179958Y-116365020D01*
X166045223Y-116450324D01*
X165938821Y-116547378D01*
X165878704Y-116640466D01*
X165875669Y-116700684D01*
X165295338Y-116700684D01*
X165329596Y-116614008D01*
X165437375Y-116349782D01*
X165541407Y-116103405D01*
X165636267Y-115888491D01*
X165716533Y-115718654D01*
X165776782Y-115607507D01*
X165797643Y-115578266D01*
X165951673Y-115460106D01*
X166165018Y-115374920D01*
X166416261Y-115330170D01*
X166523921Y-115325252D01*
X166564391Y-115325745D01*
G36*
X187621430Y-125304697D02*
G01*
X190780627Y-126596929D01*
X191196564Y-126611180D01*
X191470217Y-126631634D01*
X191747452Y-126671102D01*
X191951167Y-126714912D01*
X192109265Y-126761586D01*
X192300988Y-126825538D01*
X192508725Y-126899998D01*
X192714866Y-126978199D01*
X192901802Y-127053371D01*
X193051920Y-127118745D01*
X193147612Y-127167553D01*
X193168902Y-127182969D01*
X193165113Y-127231524D01*
X193132665Y-127342266D01*
X193077566Y-127500438D01*
X193005828Y-127691287D01*
X192923459Y-127900059D01*
X192836471Y-128111998D01*
X192750873Y-128312350D01*
X192672675Y-128486361D01*
X192607887Y-128619275D01*
X192562519Y-128696340D01*
X192547044Y-128709628D01*
X192491382Y-128692658D01*
X192376119Y-128649094D01*
X192219351Y-128585983D01*
X192078167Y-128526987D01*
X191668592Y-128344084D01*
X191331396Y-128172302D01*
X191056126Y-128005235D01*
X190832328Y-127836478D01*
X190649548Y-127659625D01*
X190633743Y-127641950D01*
X190601877Y-127607321D01*
X190566436Y-127574011D01*
X190522090Y-127539643D01*
X190463505Y-127501840D01*
X190385350Y-127458227D01*
X190282293Y-127406426D01*
X190149001Y-127344060D01*
X189980143Y-127268754D01*
X189770386Y-127178130D01*
X189514398Y-127069812D01*
X189206848Y-126941423D01*
X188842403Y-126790587D01*
X188415731Y-126614927D01*
X187921500Y-126412066D01*
X187354378Y-126179628D01*
X187336834Y-126172440D01*
X186834779Y-125966791D01*
X186345515Y-125766474D01*
X185876156Y-125574396D01*
X185433817Y-125393464D01*
X185025611Y-125226586D01*
X184658652Y-125076669D01*
X184340055Y-124946620D01*
X184076934Y-124839347D01*
X183876403Y-124757755D01*
X183745576Y-124704754D01*
X183727344Y-124697415D01*
X183547422Y-124621960D01*
X183403987Y-124555665D01*
X183310934Y-124505412D01*
X183282156Y-124478083D01*
X183282844Y-124477261D01*
X183332138Y-124452703D01*
X183445711Y-124404616D01*
X183608536Y-124339119D01*
X183805585Y-124262330D01*
X183888699Y-124230555D01*
X184462232Y-124012465D01*
X187621430Y-125304697D01*
G37*
X187621430Y-125304697D02*
X190780627Y-126596929D01*
X191196564Y-126611180D01*
X191470217Y-126631634D01*
X191747452Y-126671102D01*
X191951167Y-126714912D01*
X192109265Y-126761586D01*
X192300988Y-126825538D01*
X192508725Y-126899998D01*
X192714866Y-126978199D01*
X192901802Y-127053371D01*
X193051920Y-127118745D01*
X193147612Y-127167553D01*
X193168902Y-127182969D01*
X193165113Y-127231524D01*
X193132665Y-127342266D01*
X193077566Y-127500438D01*
X193005828Y-127691287D01*
X192923459Y-127900059D01*
X192836471Y-128111998D01*
X192750873Y-128312350D01*
X192672675Y-128486361D01*
X192607887Y-128619275D01*
X192562519Y-128696340D01*
X192547044Y-128709628D01*
X192491382Y-128692658D01*
X192376119Y-128649094D01*
X192219351Y-128585983D01*
X192078167Y-128526987D01*
X191668592Y-128344084D01*
X191331396Y-128172302D01*
X191056126Y-128005235D01*
X190832328Y-127836478D01*
X190649548Y-127659625D01*
X190633743Y-127641950D01*
X190601877Y-127607321D01*
X190566436Y-127574011D01*
X190522090Y-127539643D01*
X190463505Y-127501840D01*
X190385350Y-127458227D01*
X190282293Y-127406426D01*
X190149001Y-127344060D01*
X189980143Y-127268754D01*
X189770386Y-127178130D01*
X189514398Y-127069812D01*
X189206848Y-126941423D01*
X188842403Y-126790587D01*
X188415731Y-126614927D01*
X187921500Y-126412066D01*
X187354378Y-126179628D01*
X187336834Y-126172440D01*
X186834779Y-125966791D01*
X186345515Y-125766474D01*
X185876156Y-125574396D01*
X185433817Y-125393464D01*
X185025611Y-125226586D01*
X184658652Y-125076669D01*
X184340055Y-124946620D01*
X184076934Y-124839347D01*
X183876403Y-124757755D01*
X183745576Y-124704754D01*
X183727344Y-124697415D01*
X183547422Y-124621960D01*
X183403987Y-124555665D01*
X183310934Y-124505412D01*
X183282156Y-124478083D01*
X183282844Y-124477261D01*
X183332138Y-124452703D01*
X183445711Y-124404616D01*
X183608536Y-124339119D01*
X183805585Y-124262330D01*
X183888699Y-124230555D01*
X184462232Y-124012465D01*
X187621430Y-125304697D01*
G36*
X198993681Y-115603012D02*
G01*
X199020834Y-115607707D01*
X199123445Y-115638381D01*
X199164411Y-115690756D01*
X199169000Y-115736170D01*
X199130220Y-115864511D01*
X199022275Y-116000917D01*
X198857754Y-116131445D01*
X198759752Y-116189328D01*
X198661544Y-116237799D01*
X198499724Y-116313076D01*
X198288554Y-116408730D01*
X198042292Y-116518332D01*
X197775198Y-116635452D01*
X197645000Y-116691925D01*
X197385675Y-116804614D01*
X197152082Y-116907300D01*
X196955558Y-116994905D01*
X196807440Y-117062349D01*
X196719063Y-117104551D01*
X196699481Y-117115599D01*
X196693165Y-117169415D01*
X196724133Y-117261388D01*
X196731231Y-117275700D01*
X196787044Y-117446886D01*
X196794457Y-117626559D01*
X196771884Y-117725668D01*
X196720640Y-117783328D01*
X196619231Y-117854026D01*
X196549634Y-117892201D01*
X196484374Y-117922354D01*
X196346915Y-117983952D01*
X196142673Y-118074618D01*
X195877063Y-118191970D01*
X195555503Y-118333630D01*
X195183409Y-118497217D01*
X194766197Y-118680353D01*
X194309284Y-118880657D01*
X193818085Y-119095749D01*
X193298018Y-119323251D01*
X192754498Y-119560783D01*
X192300417Y-119759058D01*
X191746537Y-120001133D01*
X191215001Y-120234061D01*
X190710894Y-120455579D01*
X190239303Y-120663423D01*
X189805317Y-120855331D01*
X189414021Y-121029040D01*
X189070504Y-121182287D01*
X188779852Y-121312810D01*
X188547152Y-121418345D01*
X188377492Y-121496630D01*
X188275958Y-121545402D01*
X188247000Y-121562075D01*
X188263252Y-121609803D01*
X188308454Y-121722212D01*
X188377273Y-121886569D01*
X188464378Y-122090139D01*
X188564437Y-122320189D01*
X188564500Y-122320334D01*
X188665610Y-122557225D01*
X188753421Y-122774749D01*
X188822422Y-122958281D01*
X188867102Y-123093196D01*
X188882000Y-123162851D01*
X188870924Y-123245188D01*
X188829614Y-123315730D01*
X188745951Y-123384109D01*
X188607816Y-123459957D01*
X188403087Y-123552907D01*
X188377130Y-123564096D01*
X188151433Y-123655915D01*
X187985448Y-123705309D01*
X187863873Y-123709106D01*
X187771402Y-123664135D01*
X187692731Y-123567223D01*
X187612557Y-123415201D01*
X187607537Y-123404624D01*
X187485701Y-123147001D01*
X186966767Y-123074127D01*
X186754689Y-123045567D01*
X186562779Y-123021945D01*
X186412367Y-123005744D01*
X186325703Y-122999460D01*
X186244340Y-123015134D01*
X186088396Y-123062528D01*
X185861236Y-123140311D01*
X185566227Y-123247151D01*
X185206735Y-123381717D01*
X184786127Y-123542676D01*
X184307770Y-123728697D01*
X183775029Y-123938448D01*
X183191271Y-124170597D01*
X182559863Y-124423813D01*
X181884171Y-124696764D01*
X181167561Y-124988118D01*
X180413401Y-125296544D01*
X179625057Y-125620709D01*
X178805894Y-125959282D01*
X178046003Y-126274832D01*
X177561043Y-126476353D01*
X177147672Y-126647010D01*
X176799438Y-126788777D01*
X176509891Y-126903628D01*
X176272580Y-126993536D01*
X176081054Y-127060475D01*
X175928862Y-127106418D01*
X175809553Y-127133339D01*
X175716677Y-127143212D01*
X175643781Y-127138010D01*
X175584416Y-127119707D01*
X175532131Y-127090277D01*
X175487806Y-127057491D01*
X175402327Y-126966978D01*
X175311739Y-126836517D01*
X175271062Y-126763810D01*
X175167263Y-126558973D01*
X174690981Y-126783582D01*
X174214699Y-127008190D01*
X174120221Y-127252104D01*
X173995738Y-127513748D01*
X173832425Y-127744747D01*
X173619843Y-127954904D01*
X173347552Y-128154023D01*
X173005112Y-128351905D01*
X172881547Y-128415299D01*
X172597054Y-128555864D01*
X172285914Y-128706290D01*
X171957574Y-128862304D01*
X171621479Y-129019635D01*
X171287075Y-129174012D01*
X170963811Y-129321163D01*
X170661131Y-129456818D01*
X170388482Y-129576704D01*
X170155311Y-129676551D01*
X169971063Y-129752088D01*
X169845186Y-129799042D01*
X169789657Y-129813334D01*
X169747831Y-129778150D01*
X169697973Y-129691537D01*
X169689443Y-129672063D01*
X169626966Y-129517696D01*
X169600693Y-129421285D01*
X169614125Y-129362690D01*
X169670766Y-129321770D01*
X169756680Y-129285369D01*
X169955468Y-129202779D01*
X170215649Y-129090054D01*
X170522398Y-128953931D01*
X170860890Y-128801145D01*
X171216302Y-128638431D01*
X171573808Y-128472527D01*
X171918586Y-128310167D01*
X172207919Y-128171591D01*
X172508991Y-128024245D01*
X172744825Y-127904176D01*
X172927556Y-127804292D01*
X173069324Y-127717501D01*
X173182264Y-127636709D01*
X173278515Y-127554825D01*
X173303334Y-127531496D01*
X173401490Y-127431715D01*
X173457057Y-127363071D01*
X173461345Y-127336859D01*
X173451500Y-127338898D01*
X173011625Y-127488109D01*
X172637004Y-127595840D01*
X172319355Y-127662571D01*
X172050395Y-127688783D01*
X171821842Y-127674955D01*
X171625412Y-127621568D01*
X171452823Y-127529102D01*
X171362978Y-127459985D01*
X171184515Y-127257880D01*
X171064058Y-127017227D01*
X171005360Y-126756984D01*
X171006729Y-126704536D01*
X171512768Y-126704536D01*
X171524962Y-126764037D01*
X171597298Y-126948856D01*
X171697606Y-127079535D01*
X171833598Y-127157674D01*
X172012985Y-127184871D01*
X172243480Y-127162728D01*
X172532795Y-127092842D01*
X172761963Y-127020584D01*
X173100617Y-126903151D01*
X173363731Y-126804282D01*
X173549629Y-126724683D01*
X173656634Y-126665063D01*
X173684334Y-126631434D01*
X173660686Y-126550187D01*
X173601288Y-126432583D01*
X173523452Y-126308242D01*
X173444493Y-126206781D01*
X173423870Y-126185878D01*
X173247089Y-126063185D01*
X173027429Y-125970079D01*
X172805579Y-125922562D01*
X172746876Y-125919597D01*
X172521757Y-125943378D01*
X172265955Y-126009160D01*
X172014689Y-126105791D01*
X171813561Y-126215145D01*
X171633873Y-126367484D01*
X171532738Y-126532268D01*
X171512768Y-126704536D01*
X171006729Y-126704536D01*
X171012173Y-126496108D01*
X171088251Y-126253556D01*
X171114501Y-126204801D01*
X171245513Y-126019184D01*
X171408880Y-125865729D01*
X171624118Y-125728378D01*
X171800500Y-125640401D01*
X172206689Y-125489885D01*
X172596166Y-125422111D01*
X172968616Y-125437096D01*
X173323723Y-125534854D01*
X173385556Y-125561144D01*
X173631695Y-125707753D01*
X173850082Y-125905944D01*
X174018938Y-126133551D01*
X174087716Y-126275791D01*
X174158525Y-126461204D01*
X174524679Y-126293147D01*
X174687089Y-126216819D01*
X174820343Y-126150868D01*
X174905497Y-126104834D01*
X174924810Y-126091619D01*
X174926643Y-126038515D01*
X174897727Y-125933259D01*
X174850726Y-125813807D01*
X174761708Y-125552324D01*
X174745089Y-125332813D01*
X174800891Y-125153313D01*
X174859084Y-125074541D01*
X174906050Y-125041343D01*
X175009795Y-124982411D01*
X175171599Y-124897134D01*
X175392740Y-124784902D01*
X175674497Y-124645103D01*
X176018149Y-124477128D01*
X176424976Y-124280366D01*
X176896257Y-124054207D01*
X177433270Y-123798039D01*
X178037295Y-123511252D01*
X178709610Y-123193237D01*
X179451496Y-122843381D01*
X180264230Y-122461075D01*
X181149093Y-122045708D01*
X182107362Y-121596670D01*
X183140318Y-121113349D01*
X183971334Y-120724950D01*
X185050834Y-120220633D01*
X185402501Y-119715679D01*
X185526311Y-119531855D01*
X185628310Y-119368772D01*
X185700279Y-119240502D01*
X185734006Y-119161113D01*
X185734973Y-119146280D01*
X185709125Y-119070410D01*
X185665108Y-118950352D01*
X185639250Y-118882078D01*
X185592041Y-118736115D01*
X185583449Y-118622577D01*
X185622017Y-118529404D01*
X185716285Y-118444540D01*
X185874797Y-118355927D01*
X186077098Y-118264021D01*
X186267299Y-118182391D01*
X186416004Y-118127536D01*
X186533201Y-118106039D01*
X186628876Y-118124487D01*
X186713016Y-118189464D01*
X186795606Y-118307555D01*
X186886634Y-118485345D01*
X186996086Y-118729417D01*
X187081713Y-118926436D01*
X187184544Y-119160980D01*
X187277567Y-119369104D01*
X187354992Y-119538174D01*
X187411026Y-119655557D01*
X187439879Y-119708619D01*
X187440710Y-119709577D01*
X187483270Y-119697686D01*
X187598284Y-119653850D01*
X187780706Y-119580215D01*
X188025490Y-119478928D01*
X188327590Y-119352136D01*
X188681960Y-119201985D01*
X189083554Y-119030621D01*
X189527327Y-118840191D01*
X190008232Y-118632842D01*
X190521223Y-118410720D01*
X191061256Y-118175971D01*
X191623283Y-117930743D01*
X191660277Y-117914570D01*
X192303843Y-117633700D01*
X192908056Y-117371048D01*
X193469235Y-117128174D01*
X193983702Y-116906640D01*
X194447777Y-116708006D01*
X194857781Y-116533832D01*
X195210035Y-116385679D01*
X195500860Y-116265108D01*
X195726577Y-116173680D01*
X195883506Y-116112954D01*
X195967969Y-116084493D01*
X195979461Y-116082444D01*
X196114926Y-116104013D01*
X196222037Y-116181686D01*
X196315571Y-116327813D01*
X196342953Y-116386306D01*
X196400960Y-116491837D01*
X196454131Y-116546403D01*
X196473656Y-116548667D01*
X196524440Y-116526669D01*
X196641961Y-116475418D01*
X196815411Y-116399639D01*
X197033978Y-116304057D01*
X197286852Y-116193398D01*
X197539167Y-116082922D01*
X197885393Y-115932381D01*
X198164706Y-115814106D01*
X198387076Y-115724901D01*
X198562471Y-115661568D01*
X198700860Y-115620910D01*
X198812212Y-115599730D01*
X198906496Y-115594830D01*
X198993681Y-115603012D01*
G37*
X198993681Y-115603012D02*
X199020834Y-115607707D01*
X199123445Y-115638381D01*
X199164411Y-115690756D01*
X199169000Y-115736170D01*
X199130220Y-115864511D01*
X199022275Y-116000917D01*
X198857754Y-116131445D01*
X198759752Y-116189328D01*
X198661544Y-116237799D01*
X198499724Y-116313076D01*
X198288554Y-116408730D01*
X198042292Y-116518332D01*
X197775198Y-116635452D01*
X197645000Y-116691925D01*
X197385675Y-116804614D01*
X197152082Y-116907300D01*
X196955558Y-116994905D01*
X196807440Y-117062349D01*
X196719063Y-117104551D01*
X196699481Y-117115599D01*
X196693165Y-117169415D01*
X196724133Y-117261388D01*
X196731231Y-117275700D01*
X196787044Y-117446886D01*
X196794457Y-117626559D01*
X196771884Y-117725668D01*
X196720640Y-117783328D01*
X196619231Y-117854026D01*
X196549634Y-117892201D01*
X196484374Y-117922354D01*
X196346915Y-117983952D01*
X196142673Y-118074618D01*
X195877063Y-118191970D01*
X195555503Y-118333630D01*
X195183409Y-118497217D01*
X194766197Y-118680353D01*
X194309284Y-118880657D01*
X193818085Y-119095749D01*
X193298018Y-119323251D01*
X192754498Y-119560783D01*
X192300417Y-119759058D01*
X191746537Y-120001133D01*
X191215001Y-120234061D01*
X190710894Y-120455579D01*
X190239303Y-120663423D01*
X189805317Y-120855331D01*
X189414021Y-121029040D01*
X189070504Y-121182287D01*
X188779852Y-121312810D01*
X188547152Y-121418345D01*
X188377492Y-121496630D01*
X188275958Y-121545402D01*
X188247000Y-121562075D01*
X188263252Y-121609803D01*
X188308454Y-121722212D01*
X188377273Y-121886569D01*
X188464378Y-122090139D01*
X188564437Y-122320189D01*
X188564500Y-122320334D01*
X188665610Y-122557225D01*
X188753421Y-122774749D01*
X188822422Y-122958281D01*
X188867102Y-123093196D01*
X188882000Y-123162851D01*
X188870924Y-123245188D01*
X188829614Y-123315730D01*
X188745951Y-123384109D01*
X188607816Y-123459957D01*
X188403087Y-123552907D01*
X188377130Y-123564096D01*
X188151433Y-123655915D01*
X187985448Y-123705309D01*
X187863873Y-123709106D01*
X187771402Y-123664135D01*
X187692731Y-123567223D01*
X187612557Y-123415201D01*
X187607537Y-123404624D01*
X187485701Y-123147001D01*
X186966767Y-123074127D01*
X186754689Y-123045567D01*
X186562779Y-123021945D01*
X186412367Y-123005744D01*
X186325703Y-122999460D01*
X186244340Y-123015134D01*
X186088396Y-123062528D01*
X185861236Y-123140311D01*
X185566227Y-123247151D01*
X185206735Y-123381717D01*
X184786127Y-123542676D01*
X184307770Y-123728697D01*
X183775029Y-123938448D01*
X183191271Y-124170597D01*
X182559863Y-124423813D01*
X181884171Y-124696764D01*
X181167561Y-124988118D01*
X180413401Y-125296544D01*
X179625057Y-125620709D01*
X178805894Y-125959282D01*
X178046003Y-126274832D01*
X177561043Y-126476353D01*
X177147672Y-126647010D01*
X176799438Y-126788777D01*
X176509891Y-126903628D01*
X176272580Y-126993536D01*
X176081054Y-127060475D01*
X175928862Y-127106418D01*
X175809553Y-127133339D01*
X175716677Y-127143212D01*
X175643781Y-127138010D01*
X175584416Y-127119707D01*
X175532131Y-127090277D01*
X175487806Y-127057491D01*
X175402327Y-126966978D01*
X175311739Y-126836517D01*
X175271062Y-126763810D01*
X175167263Y-126558973D01*
X174690981Y-126783582D01*
X174214699Y-127008190D01*
X174120221Y-127252104D01*
X173995738Y-127513748D01*
X173832425Y-127744747D01*
X173619843Y-127954904D01*
X173347552Y-128154023D01*
X173005112Y-128351905D01*
X172881547Y-128415299D01*
X172597054Y-128555864D01*
X172285914Y-128706290D01*
X171957574Y-128862304D01*
X171621479Y-129019635D01*
X171287075Y-129174012D01*
X170963811Y-129321163D01*
X170661131Y-129456818D01*
X170388482Y-129576704D01*
X170155311Y-129676551D01*
X169971063Y-129752088D01*
X169845186Y-129799042D01*
X169789657Y-129813334D01*
X169747831Y-129778150D01*
X169697973Y-129691537D01*
X169689443Y-129672063D01*
X169626966Y-129517696D01*
X169600693Y-129421285D01*
X169614125Y-129362690D01*
X169670766Y-129321770D01*
X169756680Y-129285369D01*
X169955468Y-129202779D01*
X170215649Y-129090054D01*
X170522398Y-128953931D01*
X170860890Y-128801145D01*
X171216302Y-128638431D01*
X171573808Y-128472527D01*
X171918586Y-128310167D01*
X172207919Y-128171591D01*
X172508991Y-128024245D01*
X172744825Y-127904176D01*
X172927556Y-127804292D01*
X173069324Y-127717501D01*
X173182264Y-127636709D01*
X173278515Y-127554825D01*
X173303334Y-127531496D01*
X173401490Y-127431715D01*
X173457057Y-127363071D01*
X173461345Y-127336859D01*
X173451500Y-127338898D01*
X173011625Y-127488109D01*
X172637004Y-127595840D01*
X172319355Y-127662571D01*
X172050395Y-127688783D01*
X171821842Y-127674955D01*
X171625412Y-127621568D01*
X171452823Y-127529102D01*
X171362978Y-127459985D01*
X171184515Y-127257880D01*
X171064058Y-127017227D01*
X171005360Y-126756984D01*
X171006729Y-126704536D01*
X171512768Y-126704536D01*
X171524962Y-126764037D01*
X171597298Y-126948856D01*
X171697606Y-127079535D01*
X171833598Y-127157674D01*
X172012985Y-127184871D01*
X172243480Y-127162728D01*
X172532795Y-127092842D01*
X172761963Y-127020584D01*
X173100617Y-126903151D01*
X173363731Y-126804282D01*
X173549629Y-126724683D01*
X173656634Y-126665063D01*
X173684334Y-126631434D01*
X173660686Y-126550187D01*
X173601288Y-126432583D01*
X173523452Y-126308242D01*
X173444493Y-126206781D01*
X173423870Y-126185878D01*
X173247089Y-126063185D01*
X173027429Y-125970079D01*
X172805579Y-125922562D01*
X172746876Y-125919597D01*
X172521757Y-125943378D01*
X172265955Y-126009160D01*
X172014689Y-126105791D01*
X171813561Y-126215145D01*
X171633873Y-126367484D01*
X171532738Y-126532268D01*
X171512768Y-126704536D01*
X171006729Y-126704536D01*
X171012173Y-126496108D01*
X171088251Y-126253556D01*
X171114501Y-126204801D01*
X171245513Y-126019184D01*
X171408880Y-125865729D01*
X171624118Y-125728378D01*
X171800500Y-125640401D01*
X172206689Y-125489885D01*
X172596166Y-125422111D01*
X172968616Y-125437096D01*
X173323723Y-125534854D01*
X173385556Y-125561144D01*
X173631695Y-125707753D01*
X173850082Y-125905944D01*
X174018938Y-126133551D01*
X174087716Y-126275791D01*
X174158525Y-126461204D01*
X174524679Y-126293147D01*
X174687089Y-126216819D01*
X174820343Y-126150868D01*
X174905497Y-126104834D01*
X174924810Y-126091619D01*
X174926643Y-126038515D01*
X174897727Y-125933259D01*
X174850726Y-125813807D01*
X174761708Y-125552324D01*
X174745089Y-125332813D01*
X174800891Y-125153313D01*
X174859084Y-125074541D01*
X174906050Y-125041343D01*
X175009795Y-124982411D01*
X175171599Y-124897134D01*
X175392740Y-124784902D01*
X175674497Y-124645103D01*
X176018149Y-124477128D01*
X176424976Y-124280366D01*
X176896257Y-124054207D01*
X177433270Y-123798039D01*
X178037295Y-123511252D01*
X178709610Y-123193237D01*
X179451496Y-122843381D01*
X180264230Y-122461075D01*
X181149093Y-122045708D01*
X182107362Y-121596670D01*
X183140318Y-121113349D01*
X183971334Y-120724950D01*
X185050834Y-120220633D01*
X185402501Y-119715679D01*
X185526311Y-119531855D01*
X185628310Y-119368772D01*
X185700279Y-119240502D01*
X185734006Y-119161113D01*
X185734973Y-119146280D01*
X185709125Y-119070410D01*
X185665108Y-118950352D01*
X185639250Y-118882078D01*
X185592041Y-118736115D01*
X185583449Y-118622577D01*
X185622017Y-118529404D01*
X185716285Y-118444540D01*
X185874797Y-118355927D01*
X186077098Y-118264021D01*
X186267299Y-118182391D01*
X186416004Y-118127536D01*
X186533201Y-118106039D01*
X186628876Y-118124487D01*
X186713016Y-118189464D01*
X186795606Y-118307555D01*
X186886634Y-118485345D01*
X186996086Y-118729417D01*
X187081713Y-118926436D01*
X187184544Y-119160980D01*
X187277567Y-119369104D01*
X187354992Y-119538174D01*
X187411026Y-119655557D01*
X187439879Y-119708619D01*
X187440710Y-119709577D01*
X187483270Y-119697686D01*
X187598284Y-119653850D01*
X187780706Y-119580215D01*
X188025490Y-119478928D01*
X188327590Y-119352136D01*
X188681960Y-119201985D01*
X189083554Y-119030621D01*
X189527327Y-118840191D01*
X190008232Y-118632842D01*
X190521223Y-118410720D01*
X191061256Y-118175971D01*
X191623283Y-117930743D01*
X191660277Y-117914570D01*
X192303843Y-117633700D01*
X192908056Y-117371048D01*
X193469235Y-117128174D01*
X193983702Y-116906640D01*
X194447777Y-116708006D01*
X194857781Y-116533832D01*
X195210035Y-116385679D01*
X195500860Y-116265108D01*
X195726577Y-116173680D01*
X195883506Y-116112954D01*
X195967969Y-116084493D01*
X195979461Y-116082444D01*
X196114926Y-116104013D01*
X196222037Y-116181686D01*
X196315571Y-116327813D01*
X196342953Y-116386306D01*
X196400960Y-116491837D01*
X196454131Y-116546403D01*
X196473656Y-116548667D01*
X196524440Y-116526669D01*
X196641961Y-116475418D01*
X196815411Y-116399639D01*
X197033978Y-116304057D01*
X197286852Y-116193398D01*
X197539167Y-116082922D01*
X197885393Y-115932381D01*
X198164706Y-115814106D01*
X198387076Y-115724901D01*
X198562471Y-115661568D01*
X198700860Y-115620910D01*
X198812212Y-115599730D01*
X198906496Y-115594830D01*
X198993681Y-115603012D01*
G36*
X197956852Y-137784074D02*
G01*
X198001878Y-137794458D01*
X198200747Y-137873446D01*
X198341601Y-137989657D01*
X198413810Y-138132838D01*
X198421111Y-138198760D01*
X198387552Y-138333075D01*
X198299524Y-138418544D01*
X198176006Y-138448441D01*
X198035974Y-138416045D01*
X197952885Y-138364667D01*
X197859749Y-138305112D01*
X197785875Y-138280003D01*
X197785356Y-138280000D01*
X197676933Y-138309060D01*
X197518705Y-138392480D01*
X197320605Y-138524620D01*
X197211084Y-138606140D01*
X196967667Y-138792949D01*
X196967667Y-139465334D01*
X197381581Y-139465334D01*
X197624082Y-139471771D01*
X197794067Y-139494562D01*
X197902949Y-139538922D01*
X197962145Y-139610069D01*
X197983067Y-139713218D01*
X197983667Y-139740500D01*
X197978892Y-139825061D01*
X197958140Y-139890327D01*
X197911765Y-139938779D01*
X197830123Y-139972898D01*
X197703572Y-139995164D01*
X197522468Y-140008058D01*
X197277165Y-140014061D01*
X196958021Y-140015654D01*
X196913990Y-140015667D01*
X196032485Y-140015667D01*
X195924521Y-139907703D01*
X195850455Y-139812033D01*
X195838136Y-139719248D01*
X195844775Y-139685453D01*
X195877982Y-139586515D01*
X195930908Y-139526677D01*
X196024285Y-139493749D01*
X196178844Y-139475536D01*
X196205037Y-139473576D01*
X196459667Y-139455157D01*
X196459667Y-138322334D01*
X196275728Y-138322334D01*
X196113556Y-138294291D01*
X196002489Y-138220324D01*
X195951144Y-138115670D01*
X195968139Y-137995568D01*
X196036334Y-137899000D01*
X196086447Y-137859467D01*
X196153680Y-137834375D01*
X196256748Y-137820604D01*
X196414365Y-137815035D01*
X196544334Y-137814334D01*
X196967667Y-137814334D01*
X196967667Y-138109615D01*
X197200451Y-137960705D01*
X197461597Y-137825758D01*
X197709031Y-137767856D01*
X197956852Y-137784074D01*
G37*
X197956852Y-137784074D02*
X198001878Y-137794458D01*
X198200747Y-137873446D01*
X198341601Y-137989657D01*
X198413810Y-138132838D01*
X198421111Y-138198760D01*
X198387552Y-138333075D01*
X198299524Y-138418544D01*
X198176006Y-138448441D01*
X198035974Y-138416045D01*
X197952885Y-138364667D01*
X197859749Y-138305112D01*
X197785875Y-138280003D01*
X197785356Y-138280000D01*
X197676933Y-138309060D01*
X197518705Y-138392480D01*
X197320605Y-138524620D01*
X197211084Y-138606140D01*
X196967667Y-138792949D01*
X196967667Y-139465334D01*
X197381581Y-139465334D01*
X197624082Y-139471771D01*
X197794067Y-139494562D01*
X197902949Y-139538922D01*
X197962145Y-139610069D01*
X197983067Y-139713218D01*
X197983667Y-139740500D01*
X197978892Y-139825061D01*
X197958140Y-139890327D01*
X197911765Y-139938779D01*
X197830123Y-139972898D01*
X197703572Y-139995164D01*
X197522468Y-140008058D01*
X197277165Y-140014061D01*
X196958021Y-140015654D01*
X196913990Y-140015667D01*
X196032485Y-140015667D01*
X195924521Y-139907703D01*
X195850455Y-139812033D01*
X195838136Y-139719248D01*
X195844775Y-139685453D01*
X195877982Y-139586515D01*
X195930908Y-139526677D01*
X196024285Y-139493749D01*
X196178844Y-139475536D01*
X196205037Y-139473576D01*
X196459667Y-139455157D01*
X196459667Y-138322334D01*
X196275728Y-138322334D01*
X196113556Y-138294291D01*
X196002489Y-138220324D01*
X195951144Y-138115670D01*
X195968139Y-137995568D01*
X196036334Y-137899000D01*
X196086447Y-137859467D01*
X196153680Y-137834375D01*
X196256748Y-137820604D01*
X196414365Y-137815035D01*
X196544334Y-137814334D01*
X196967667Y-137814334D01*
X196967667Y-138109615D01*
X197200451Y-137960705D01*
X197461597Y-137825758D01*
X197709031Y-137767856D01*
X197956852Y-137784074D01*
G36*
X188458667Y-139457161D02*
G01*
X188864290Y-139471830D01*
X189059828Y-139481368D01*
X189188493Y-139495457D01*
X189268075Y-139517795D01*
X189316362Y-139552084D01*
X189329957Y-139568675D01*
X189385723Y-139710049D01*
X189362403Y-139856573D01*
X189329972Y-139912326D01*
X189306457Y-139937996D01*
X189271107Y-139957926D01*
X189213509Y-139973013D01*
X189123249Y-139984154D01*
X188989914Y-139992247D01*
X188803092Y-139998189D01*
X188552370Y-140002878D01*
X188229483Y-140007186D01*
X187189023Y-140019871D01*
X187078957Y-139909805D01*
X187003909Y-139814066D01*
X186990010Y-139722814D01*
X186997108Y-139685453D01*
X187032419Y-139585193D01*
X187066709Y-139528834D01*
X187124867Y-139508935D01*
X187246622Y-139490615D01*
X187410915Y-139476595D01*
X187508213Y-139471830D01*
X187908334Y-139457161D01*
X187908334Y-137433334D01*
X187652409Y-137433334D01*
X187498083Y-137427705D01*
X187397648Y-137404810D01*
X187320733Y-137355640D01*
X187288521Y-137325370D01*
X187214455Y-137229699D01*
X187202136Y-137136915D01*
X187208775Y-137103120D01*
X187244068Y-137002860D01*
X187278324Y-136946500D01*
X187333959Y-136929900D01*
X187457276Y-136914189D01*
X187631293Y-136900929D01*
X187839027Y-136891683D01*
X187889162Y-136890304D01*
X188458667Y-136876440D01*
X188458667Y-139457161D01*
G37*
X188458667Y-139457161D02*
X188864290Y-139471830D01*
X189059828Y-139481368D01*
X189188493Y-139495457D01*
X189268075Y-139517795D01*
X189316362Y-139552084D01*
X189329957Y-139568675D01*
X189385723Y-139710049D01*
X189362403Y-139856573D01*
X189329972Y-139912326D01*
X189306457Y-139937996D01*
X189271107Y-139957926D01*
X189213509Y-139973013D01*
X189123249Y-139984154D01*
X188989914Y-139992247D01*
X188803092Y-139998189D01*
X188552370Y-140002878D01*
X188229483Y-140007186D01*
X187189023Y-140019871D01*
X187078957Y-139909805D01*
X187003909Y-139814066D01*
X186990010Y-139722814D01*
X186997108Y-139685453D01*
X187032419Y-139585193D01*
X187066709Y-139528834D01*
X187124867Y-139508935D01*
X187246622Y-139490615D01*
X187410915Y-139476595D01*
X187508213Y-139471830D01*
X187908334Y-139457161D01*
X187908334Y-137433334D01*
X187652409Y-137433334D01*
X187498083Y-137427705D01*
X187397648Y-137404810D01*
X187320733Y-137355640D01*
X187288521Y-137325370D01*
X187214455Y-137229699D01*
X187202136Y-137136915D01*
X187208775Y-137103120D01*
X187244068Y-137002860D01*
X187278324Y-136946500D01*
X187333959Y-136929900D01*
X187457276Y-136914189D01*
X187631293Y-136900929D01*
X187839027Y-136891683D01*
X187889162Y-136890304D01*
X188458667Y-136876440D01*
X188458667Y-139457161D01*
G36*
X176781475Y-137785574D02*
G01*
X177006120Y-137881761D01*
X177189734Y-138032302D01*
X177269607Y-138141847D01*
X177316211Y-138227789D01*
X177348849Y-138311466D01*
X177370770Y-138411530D01*
X177385224Y-138546631D01*
X177395462Y-138735418D01*
X177401493Y-138898669D01*
X177410362Y-139128820D01*
X177420195Y-139288113D01*
X177433317Y-139390347D01*
X177452054Y-139449321D01*
X177478734Y-139478833D01*
X177500946Y-139488599D01*
X177611675Y-139559564D01*
X177672606Y-139669741D01*
X177680958Y-139793312D01*
X177633951Y-139904460D01*
X177552585Y-139968022D01*
X177442372Y-139995430D01*
X177279011Y-140010408D01*
X177091511Y-140013197D01*
X176908883Y-140004038D01*
X176760138Y-139983171D01*
X176690000Y-139960876D01*
X176617979Y-139906773D01*
X176588191Y-139822373D01*
X176584167Y-139739250D01*
X176592984Y-139624682D01*
X176633363Y-139559391D01*
X176721750Y-139510610D01*
X176859334Y-139450054D01*
X176859334Y-138975550D01*
X176855033Y-138721867D01*
X176837217Y-138540666D01*
X176798513Y-138419985D01*
X176731548Y-138347863D01*
X176628948Y-138312337D01*
X176483342Y-138301445D01*
X176443670Y-138301167D01*
X176287336Y-138307445D01*
X176177972Y-138334123D01*
X176078322Y-138392969D01*
X176027180Y-138432709D01*
X175864500Y-138564252D01*
X175852485Y-139014793D01*
X175848323Y-139215149D01*
X175850058Y-139345647D01*
X175859803Y-139421013D01*
X175879672Y-139455971D01*
X175911778Y-139465246D01*
X175917149Y-139465334D01*
X176008797Y-139488864D01*
X176090230Y-139532856D01*
X176163500Y-139629510D01*
X176180248Y-139754569D01*
X176143120Y-139875876D01*
X176055000Y-139961153D01*
X175951075Y-139989254D01*
X175789819Y-140006751D01*
X175597901Y-140013643D01*
X175401988Y-140009930D01*
X175228750Y-139995611D01*
X175104855Y-139970687D01*
X175081334Y-139961161D01*
X174993100Y-139880639D01*
X174962028Y-139768519D01*
X174973355Y-139623617D01*
X175047135Y-139531844D01*
X175168925Y-139485858D01*
X175293000Y-139458606D01*
X175293000Y-138890470D01*
X175292163Y-138661042D01*
X175288443Y-138503092D01*
X175280029Y-138403439D01*
X175265107Y-138348899D01*
X175241867Y-138326291D01*
X175214895Y-138322334D01*
X175114498Y-138285345D01*
X175032723Y-138194886D01*
X174996774Y-138081718D01*
X174996667Y-138075583D01*
X175022322Y-137957940D01*
X175104472Y-137877889D01*
X175250896Y-137831429D01*
X175469371Y-137814562D01*
X175504667Y-137814334D01*
X175673687Y-137816219D01*
X175775011Y-137824599D01*
X175825574Y-137843559D01*
X175842314Y-137877183D01*
X175843334Y-137896020D01*
X175849067Y-137939558D01*
X175878090Y-137947621D01*
X175948140Y-137917436D01*
X176044417Y-137864572D01*
X176282317Y-137772837D01*
X176534105Y-137747885D01*
X176781475Y-137785574D01*
G37*
X176781475Y-137785574D02*
X177006120Y-137881761D01*
X177189734Y-138032302D01*
X177269607Y-138141847D01*
X177316211Y-138227789D01*
X177348849Y-138311466D01*
X177370770Y-138411530D01*
X177385224Y-138546631D01*
X177395462Y-138735418D01*
X177401493Y-138898669D01*
X177410362Y-139128820D01*
X177420195Y-139288113D01*
X177433317Y-139390347D01*
X177452054Y-139449321D01*
X177478734Y-139478833D01*
X177500946Y-139488599D01*
X177611675Y-139559564D01*
X177672606Y-139669741D01*
X177680958Y-139793312D01*
X177633951Y-139904460D01*
X177552585Y-139968022D01*
X177442372Y-139995430D01*
X177279011Y-140010408D01*
X177091511Y-140013197D01*
X176908883Y-140004038D01*
X176760138Y-139983171D01*
X176690000Y-139960876D01*
X176617979Y-139906773D01*
X176588191Y-139822373D01*
X176584167Y-139739250D01*
X176592984Y-139624682D01*
X176633363Y-139559391D01*
X176721750Y-139510610D01*
X176859334Y-139450054D01*
X176859334Y-138975550D01*
X176855033Y-138721867D01*
X176837217Y-138540666D01*
X176798513Y-138419985D01*
X176731548Y-138347863D01*
X176628948Y-138312337D01*
X176483342Y-138301445D01*
X176443670Y-138301167D01*
X176287336Y-138307445D01*
X176177972Y-138334123D01*
X176078322Y-138392969D01*
X176027180Y-138432709D01*
X175864500Y-138564252D01*
X175852485Y-139014793D01*
X175848323Y-139215149D01*
X175850058Y-139345647D01*
X175859803Y-139421013D01*
X175879672Y-139455971D01*
X175911778Y-139465246D01*
X175917149Y-139465334D01*
X176008797Y-139488864D01*
X176090230Y-139532856D01*
X176163500Y-139629510D01*
X176180248Y-139754569D01*
X176143120Y-139875876D01*
X176055000Y-139961153D01*
X175951075Y-139989254D01*
X175789819Y-140006751D01*
X175597901Y-140013643D01*
X175401988Y-140009930D01*
X175228750Y-139995611D01*
X175104855Y-139970687D01*
X175081334Y-139961161D01*
X174993100Y-139880639D01*
X174962028Y-139768519D01*
X174973355Y-139623617D01*
X175047135Y-139531844D01*
X175168925Y-139485858D01*
X175293000Y-139458606D01*
X175293000Y-138890470D01*
X175292163Y-138661042D01*
X175288443Y-138503092D01*
X175280029Y-138403439D01*
X175265107Y-138348899D01*
X175241867Y-138326291D01*
X175214895Y-138322334D01*
X175114498Y-138285345D01*
X175032723Y-138194886D01*
X174996774Y-138081718D01*
X174996667Y-138075583D01*
X175022322Y-137957940D01*
X175104472Y-137877889D01*
X175250896Y-137831429D01*
X175469371Y-137814562D01*
X175504667Y-137814334D01*
X175673687Y-137816219D01*
X175775011Y-137824599D01*
X175825574Y-137843559D01*
X175842314Y-137877183D01*
X175843334Y-137896020D01*
X175849067Y-137939558D01*
X175878090Y-137947621D01*
X175948140Y-137917436D01*
X176044417Y-137864572D01*
X176282317Y-137772837D01*
X176534105Y-137747885D01*
X176781475Y-137785574D01*
G36*
X164777132Y-137096686D02*
G01*
X165045589Y-137102473D01*
X165257497Y-137111624D01*
X165403510Y-137123735D01*
X165474283Y-137138401D01*
X165474450Y-137138490D01*
X165529873Y-137209610D01*
X165556512Y-137325068D01*
X165551643Y-137448647D01*
X165512542Y-137544130D01*
X165505534Y-137551867D01*
X165433884Y-137579315D01*
X165291864Y-137596829D01*
X165103367Y-137602667D01*
X164752000Y-137602667D01*
X164752000Y-139465334D01*
X165060081Y-139465334D01*
X165281789Y-139476197D01*
X165430789Y-139512575D01*
X165516682Y-139580152D01*
X165549073Y-139684611D01*
X165548066Y-139754133D01*
X165536089Y-139834913D01*
X165508780Y-139897077D01*
X165456196Y-139943040D01*
X165368393Y-139975220D01*
X165235426Y-139996031D01*
X165047353Y-140007891D01*
X164794229Y-140013214D01*
X164476834Y-140014419D01*
X164139300Y-140012239D01*
X163880250Y-140005472D01*
X163693609Y-139993778D01*
X163573300Y-139976819D01*
X163524334Y-139961153D01*
X163442845Y-139891946D01*
X163407769Y-139775877D01*
X163405601Y-139754133D01*
X163414338Y-139628614D01*
X163471667Y-139542883D01*
X163587190Y-139491258D01*
X163770511Y-139468054D01*
X163893586Y-139465334D01*
X164201667Y-139465334D01*
X164201667Y-137602667D01*
X163866024Y-137602667D01*
X163655926Y-137594225D01*
X163516757Y-137564396D01*
X163436050Y-137506424D01*
X163401342Y-137413554D01*
X163397334Y-137348667D01*
X163400728Y-137270567D01*
X163417393Y-137210355D01*
X163457054Y-137165709D01*
X163529434Y-137134308D01*
X163644257Y-137113830D01*
X163811247Y-137101956D01*
X164040129Y-137096363D01*
X164340626Y-137094732D01*
X164461474Y-137094667D01*
X164777132Y-137096686D01*
G37*
X164777132Y-137096686D02*
X165045589Y-137102473D01*
X165257497Y-137111624D01*
X165403510Y-137123735D01*
X165474283Y-137138401D01*
X165474450Y-137138490D01*
X165529873Y-137209610D01*
X165556512Y-137325068D01*
X165551643Y-137448647D01*
X165512542Y-137544130D01*
X165505534Y-137551867D01*
X165433884Y-137579315D01*
X165291864Y-137596829D01*
X165103367Y-137602667D01*
X164752000Y-137602667D01*
X164752000Y-139465334D01*
X165060081Y-139465334D01*
X165281789Y-139476197D01*
X165430789Y-139512575D01*
X165516682Y-139580152D01*
X165549073Y-139684611D01*
X165548066Y-139754133D01*
X165536089Y-139834913D01*
X165508780Y-139897077D01*
X165456196Y-139943040D01*
X165368393Y-139975220D01*
X165235426Y-139996031D01*
X165047353Y-140007891D01*
X164794229Y-140013214D01*
X164476834Y-140014419D01*
X164139300Y-140012239D01*
X163880250Y-140005472D01*
X163693609Y-139993778D01*
X163573300Y-139976819D01*
X163524334Y-139961153D01*
X163442845Y-139891946D01*
X163407769Y-139775877D01*
X163405601Y-139754133D01*
X163414338Y-139628614D01*
X163471667Y-139542883D01*
X163587190Y-139491258D01*
X163770511Y-139468054D01*
X163893586Y-139465334D01*
X164201667Y-139465334D01*
X164201667Y-137602667D01*
X163866024Y-137602667D01*
X163655926Y-137594225D01*
X163516757Y-137564396D01*
X163436050Y-137506424D01*
X163401342Y-137413554D01*
X163397334Y-137348667D01*
X163400728Y-137270567D01*
X163417393Y-137210355D01*
X163457054Y-137165709D01*
X163529434Y-137134308D01*
X163644257Y-137113830D01*
X163811247Y-137101956D01*
X164040129Y-137096363D01*
X164340626Y-137094732D01*
X164461474Y-137094667D01*
X164777132Y-137096686D01*
G36*
X192311000Y-139465334D02*
G01*
X192412144Y-139465334D01*
X192547974Y-139501428D01*
X192652720Y-139594058D01*
X192701601Y-139719747D01*
X192702584Y-139740500D01*
X192682596Y-139856631D01*
X192616043Y-139937305D01*
X192493040Y-139987332D01*
X192303703Y-140011521D01*
X192136977Y-140015667D01*
X191952414Y-140013143D01*
X191837880Y-140003937D01*
X191778846Y-139985597D01*
X191760780Y-139955671D01*
X191760667Y-139952167D01*
X191758134Y-139908821D01*
X191738012Y-139894553D01*
X191681513Y-139911109D01*
X191569851Y-139960238D01*
X191543040Y-139972404D01*
X191360991Y-140025752D01*
X191131167Y-140051748D01*
X190886098Y-140049860D01*
X190658314Y-140019558D01*
X190546726Y-139988678D01*
X190292872Y-139857054D01*
X190089004Y-139667878D01*
X189939125Y-139434686D01*
X189847237Y-139171017D01*
X189817345Y-138890409D01*
X189822944Y-138846365D01*
X190366787Y-138846365D01*
X190376601Y-139046091D01*
X190449951Y-139233149D01*
X190588377Y-139389245D01*
X190614487Y-139408604D01*
X190811869Y-139500013D01*
X191042211Y-139534431D01*
X191274998Y-139510898D01*
X191468102Y-139435478D01*
X191629770Y-139297015D01*
X191727245Y-139121635D01*
X191761262Y-138926758D01*
X191732556Y-138729808D01*
X191641862Y-138548205D01*
X191489915Y-138399371D01*
X191422661Y-138358385D01*
X191235539Y-138297506D01*
X191016487Y-138283119D01*
X190804484Y-138315452D01*
X190703177Y-138354149D01*
X190531614Y-138482098D01*
X190418971Y-138652269D01*
X190366787Y-138846365D01*
X189822944Y-138846365D01*
X189853449Y-138606401D01*
X189959555Y-138332529D01*
X190025209Y-138224872D01*
X190211053Y-138025048D01*
X190450554Y-137875792D01*
X190726571Y-137781237D01*
X191021963Y-137745517D01*
X191319589Y-137772765D01*
X191570125Y-137852287D01*
X191760667Y-137936573D01*
X191760667Y-137690245D01*
X191758465Y-137551781D01*
X191744517Y-137475470D01*
X191707815Y-137438802D01*
X191637347Y-137419265D01*
X191627118Y-137417207D01*
X191481207Y-137369594D01*
X191403665Y-137290345D01*
X191379722Y-137163831D01*
X191379667Y-137155384D01*
X191396183Y-137041387D01*
X191453154Y-136962582D01*
X191561715Y-136913550D01*
X191733003Y-136888874D01*
X191939420Y-136883000D01*
X192311000Y-136883000D01*
X192311000Y-139465334D01*
G37*
X192311000Y-139465334D02*
X192412144Y-139465334D01*
X192547974Y-139501428D01*
X192652720Y-139594058D01*
X192701601Y-139719747D01*
X192702584Y-139740500D01*
X192682596Y-139856631D01*
X192616043Y-139937305D01*
X192493040Y-139987332D01*
X192303703Y-140011521D01*
X192136977Y-140015667D01*
X191952414Y-140013143D01*
X191837880Y-140003937D01*
X191778846Y-139985597D01*
X191760780Y-139955671D01*
X191760667Y-139952167D01*
X191758134Y-139908821D01*
X191738012Y-139894553D01*
X191681513Y-139911109D01*
X191569851Y-139960238D01*
X191543040Y-139972404D01*
X191360991Y-140025752D01*
X191131167Y-140051748D01*
X190886098Y-140049860D01*
X190658314Y-140019558D01*
X190546726Y-139988678D01*
X190292872Y-139857054D01*
X190089004Y-139667878D01*
X189939125Y-139434686D01*
X189847237Y-139171017D01*
X189817345Y-138890409D01*
X189822944Y-138846365D01*
X190366787Y-138846365D01*
X190376601Y-139046091D01*
X190449951Y-139233149D01*
X190588377Y-139389245D01*
X190614487Y-139408604D01*
X190811869Y-139500013D01*
X191042211Y-139534431D01*
X191274998Y-139510898D01*
X191468102Y-139435478D01*
X191629770Y-139297015D01*
X191727245Y-139121635D01*
X191761262Y-138926758D01*
X191732556Y-138729808D01*
X191641862Y-138548205D01*
X191489915Y-138399371D01*
X191422661Y-138358385D01*
X191235539Y-138297506D01*
X191016487Y-138283119D01*
X190804484Y-138315452D01*
X190703177Y-138354149D01*
X190531614Y-138482098D01*
X190418971Y-138652269D01*
X190366787Y-138846365D01*
X189822944Y-138846365D01*
X189853449Y-138606401D01*
X189959555Y-138332529D01*
X190025209Y-138224872D01*
X190211053Y-138025048D01*
X190450554Y-137875792D01*
X190726571Y-137781237D01*
X191021963Y-137745517D01*
X191319589Y-137772765D01*
X191570125Y-137852287D01*
X191760667Y-137936573D01*
X191760667Y-137690245D01*
X191758465Y-137551781D01*
X191744517Y-137475470D01*
X191707815Y-137438802D01*
X191637347Y-137419265D01*
X191627118Y-137417207D01*
X191481207Y-137369594D01*
X191403665Y-137290345D01*
X191379722Y-137163831D01*
X191379667Y-137155384D01*
X191396183Y-137041387D01*
X191453154Y-136962582D01*
X191561715Y-136913550D01*
X191733003Y-136888874D01*
X191939420Y-136883000D01*
X192311000Y-136883000D01*
X192311000Y-139465334D01*
G36*
X194262041Y-137759526D02*
G01*
X194403582Y-137777994D01*
X194534626Y-137818938D01*
X194692149Y-137890591D01*
X194701639Y-137895254D01*
X194972402Y-138068573D01*
X195171244Y-138286565D01*
X195298209Y-138549300D01*
X195353343Y-138856850D01*
X195355780Y-138925584D01*
X195359000Y-139169000D01*
X194363808Y-139169000D01*
X194049055Y-139169154D01*
X193809428Y-139170203D01*
X193635386Y-139173029D01*
X193517389Y-139178515D01*
X193445896Y-139187541D01*
X193411366Y-139200991D01*
X193404258Y-139219746D01*
X193415032Y-139244688D01*
X193421891Y-139256071D01*
X193558921Y-139400229D01*
X193760214Y-139494150D01*
X194021365Y-139537125D01*
X194337969Y-139528445D01*
X194705620Y-139467402D01*
X194718096Y-139464595D01*
X194911126Y-139421913D01*
X195040764Y-139398071D01*
X195125965Y-139392218D01*
X195185683Y-139403501D01*
X195238871Y-139431070D01*
X195253582Y-139440546D01*
X195336769Y-139538013D01*
X195352429Y-139660179D01*
X195301854Y-139782424D01*
X195232000Y-139851789D01*
X195095566Y-139920199D01*
X194896575Y-139980400D01*
X194656985Y-140029302D01*
X194398751Y-140063820D01*
X194143829Y-140080863D01*
X193914175Y-140077346D01*
X193765364Y-140058063D01*
X193456444Y-139956880D01*
X193197303Y-139796953D01*
X192994950Y-139587075D01*
X192856395Y-139336038D01*
X192788651Y-139052634D01*
X192787789Y-138831993D01*
X192826400Y-138656262D01*
X193396613Y-138656262D01*
X193409135Y-138676029D01*
X193455000Y-138689342D01*
X193545387Y-138697462D01*
X193691473Y-138701652D01*
X193904437Y-138703175D01*
X194066344Y-138703334D01*
X194310083Y-138701085D01*
X194513604Y-138694797D01*
X194664614Y-138685156D01*
X194750820Y-138672848D01*
X194766334Y-138664257D01*
X194732562Y-138594751D01*
X194646928Y-138505997D01*
X194532948Y-138417297D01*
X194414141Y-138347950D01*
X194351834Y-138324076D01*
X194102090Y-138287730D01*
X193861648Y-138312821D01*
X193648451Y-138393567D01*
X193480445Y-138524186D01*
X193406256Y-138628777D01*
X193396613Y-138656262D01*
X192826400Y-138656262D01*
X192855020Y-138526008D01*
X192995675Y-138260398D01*
X193206526Y-138039581D01*
X193484348Y-137867974D01*
X193496076Y-137862532D01*
X193646202Y-137802876D01*
X193793006Y-137769748D01*
X193972130Y-137756524D01*
X194073023Y-137755301D01*
X194262041Y-137759526D01*
G37*
X194262041Y-137759526D02*
X194403582Y-137777994D01*
X194534626Y-137818938D01*
X194692149Y-137890591D01*
X194701639Y-137895254D01*
X194972402Y-138068573D01*
X195171244Y-138286565D01*
X195298209Y-138549300D01*
X195353343Y-138856850D01*
X195355780Y-138925584D01*
X195359000Y-139169000D01*
X194363808Y-139169000D01*
X194049055Y-139169154D01*
X193809428Y-139170203D01*
X193635386Y-139173029D01*
X193517389Y-139178515D01*
X193445896Y-139187541D01*
X193411366Y-139200991D01*
X193404258Y-139219746D01*
X193415032Y-139244688D01*
X193421891Y-139256071D01*
X193558921Y-139400229D01*
X193760214Y-139494150D01*
X194021365Y-139537125D01*
X194337969Y-139528445D01*
X194705620Y-139467402D01*
X194718096Y-139464595D01*
X194911126Y-139421913D01*
X195040764Y-139398071D01*
X195125965Y-139392218D01*
X195185683Y-139403501D01*
X195238871Y-139431070D01*
X195253582Y-139440546D01*
X195336769Y-139538013D01*
X195352429Y-139660179D01*
X195301854Y-139782424D01*
X195232000Y-139851789D01*
X195095566Y-139920199D01*
X194896575Y-139980400D01*
X194656985Y-140029302D01*
X194398751Y-140063820D01*
X194143829Y-140080863D01*
X193914175Y-140077346D01*
X193765364Y-140058063D01*
X193456444Y-139956880D01*
X193197303Y-139796953D01*
X192994950Y-139587075D01*
X192856395Y-139336038D01*
X192788651Y-139052634D01*
X192787789Y-138831993D01*
X192826400Y-138656262D01*
X193396613Y-138656262D01*
X193409135Y-138676029D01*
X193455000Y-138689342D01*
X193545387Y-138697462D01*
X193691473Y-138701652D01*
X193904437Y-138703175D01*
X194066344Y-138703334D01*
X194310083Y-138701085D01*
X194513604Y-138694797D01*
X194664614Y-138685156D01*
X194750820Y-138672848D01*
X194766334Y-138664257D01*
X194732562Y-138594751D01*
X194646928Y-138505997D01*
X194532948Y-138417297D01*
X194414141Y-138347950D01*
X194351834Y-138324076D01*
X194102090Y-138287730D01*
X193861648Y-138312821D01*
X193648451Y-138393567D01*
X193480445Y-138524186D01*
X193406256Y-138628777D01*
X193396613Y-138656262D01*
X192826400Y-138656262D01*
X192855020Y-138526008D01*
X192995675Y-138260398D01*
X193206526Y-138039581D01*
X193484348Y-137867974D01*
X193496076Y-137862532D01*
X193646202Y-137802876D01*
X193793006Y-137769748D01*
X193972130Y-137756524D01*
X194073023Y-137755301D01*
X194262041Y-137759526D01*
G36*
X185641716Y-137805234D02*
G01*
X185931003Y-137937979D01*
X186184227Y-138145952D01*
X186199725Y-138162498D01*
X186382037Y-138410725D01*
X186482853Y-138674471D01*
X186504972Y-138961346D01*
X186503269Y-138987623D01*
X186450758Y-139272782D01*
X186333371Y-139516679D01*
X186182662Y-139701077D01*
X185955319Y-139878351D01*
X185678965Y-140003692D01*
X185375568Y-140071321D01*
X185067096Y-140075463D01*
X184881500Y-140043249D01*
X184688693Y-139985072D01*
X184537738Y-139912759D01*
X184390919Y-139805835D01*
X184303189Y-139729311D01*
X184125848Y-139539344D01*
X184015604Y-139340437D01*
X183961792Y-139107858D01*
X183951988Y-138915000D01*
X184479334Y-138915000D01*
X184493145Y-139071502D01*
X184544517Y-139190812D01*
X184593999Y-139256443D01*
X184786470Y-139422864D01*
X185017981Y-139518956D01*
X185275635Y-139541252D01*
X185502552Y-139500503D01*
X185644578Y-139430893D01*
X185785541Y-139318727D01*
X185814380Y-139288714D01*
X185906012Y-139174041D01*
X185949230Y-139070234D01*
X185960915Y-138934264D01*
X185961000Y-138915000D01*
X185951813Y-138772700D01*
X185912999Y-138667417D01*
X185827674Y-138556124D01*
X185814380Y-138541286D01*
X185623529Y-138388442D01*
X185400835Y-138303810D01*
X185163967Y-138286924D01*
X184930596Y-138337315D01*
X184718390Y-138454516D01*
X184593999Y-138573558D01*
X184515707Y-138691315D01*
X184483148Y-138821929D01*
X184479334Y-138915000D01*
X183951988Y-138915000D01*
X183966214Y-138673240D01*
X184017523Y-138480830D01*
X184118493Y-138306253D01*
X184261748Y-138138830D01*
X184451904Y-137972304D01*
X184665697Y-137858208D01*
X184929860Y-137782936D01*
X184979824Y-137773362D01*
X185322584Y-137749700D01*
X185641716Y-137805234D01*
G37*
X185641716Y-137805234D02*
X185931003Y-137937979D01*
X186184227Y-138145952D01*
X186199725Y-138162498D01*
X186382037Y-138410725D01*
X186482853Y-138674471D01*
X186504972Y-138961346D01*
X186503269Y-138987623D01*
X186450758Y-139272782D01*
X186333371Y-139516679D01*
X186182662Y-139701077D01*
X185955319Y-139878351D01*
X185678965Y-140003692D01*
X185375568Y-140071321D01*
X185067096Y-140075463D01*
X184881500Y-140043249D01*
X184688693Y-139985072D01*
X184537738Y-139912759D01*
X184390919Y-139805835D01*
X184303189Y-139729311D01*
X184125848Y-139539344D01*
X184015604Y-139340437D01*
X183961792Y-139107858D01*
X183951988Y-138915000D01*
X184479334Y-138915000D01*
X184493145Y-139071502D01*
X184544517Y-139190812D01*
X184593999Y-139256443D01*
X184786470Y-139422864D01*
X185017981Y-139518956D01*
X185275635Y-139541252D01*
X185502552Y-139500503D01*
X185644578Y-139430893D01*
X185785541Y-139318727D01*
X185814380Y-139288714D01*
X185906012Y-139174041D01*
X185949230Y-139070234D01*
X185960915Y-138934264D01*
X185961000Y-138915000D01*
X185951813Y-138772700D01*
X185912999Y-138667417D01*
X185827674Y-138556124D01*
X185814380Y-138541286D01*
X185623529Y-138388442D01*
X185400835Y-138303810D01*
X185163967Y-138286924D01*
X184930596Y-138337315D01*
X184718390Y-138454516D01*
X184593999Y-138573558D01*
X184515707Y-138691315D01*
X184483148Y-138821929D01*
X184479334Y-138915000D01*
X183951988Y-138915000D01*
X183966214Y-138673240D01*
X184017523Y-138480830D01*
X184118493Y-138306253D01*
X184261748Y-138138830D01*
X184451904Y-137972304D01*
X184665697Y-137858208D01*
X184929860Y-137782936D01*
X184979824Y-137773362D01*
X185322584Y-137749700D01*
X185641716Y-137805234D01*
G36*
X183132656Y-137752509D02*
G01*
X183209334Y-137814334D01*
X183262289Y-137914446D01*
X183291790Y-138065583D01*
X183297026Y-138237189D01*
X183277192Y-138398705D01*
X183231481Y-138519577D01*
X183228100Y-138524581D01*
X183128275Y-138603853D01*
X183003561Y-138613152D01*
X182875363Y-138553393D01*
X182825129Y-138507378D01*
X182638539Y-138365264D01*
X182409484Y-138291778D01*
X182147901Y-138289049D01*
X181971084Y-138324559D01*
X181862245Y-138373549D01*
X181811742Y-138435506D01*
X181829911Y-138495020D01*
X181847693Y-138508523D01*
X181901079Y-138524001D01*
X182020289Y-138549986D01*
X182187670Y-138582851D01*
X182385391Y-138618941D01*
X182720906Y-138690550D01*
X182979361Y-138776204D01*
X183167912Y-138881249D01*
X183293717Y-139011032D01*
X183363935Y-139170895D01*
X183385722Y-139365967D01*
X183358050Y-139558002D01*
X183268017Y-139717607D01*
X183105096Y-139862599D01*
X183083421Y-139877641D01*
X182878562Y-139978630D01*
X182622048Y-140047898D01*
X182342349Y-140081078D01*
X182067938Y-140073802D01*
X181939334Y-140053136D01*
X181780670Y-140026945D01*
X181595208Y-140007579D01*
X181511274Y-140002618D01*
X181338169Y-139987963D01*
X181227435Y-139949963D01*
X181166562Y-139873356D01*
X181143039Y-139742879D01*
X181143921Y-139554448D01*
X181152079Y-139390190D01*
X181166030Y-139289426D01*
X181193223Y-139231003D01*
X181241107Y-139193764D01*
X181277381Y-139175402D01*
X181409281Y-139146306D01*
X181530902Y-139174998D01*
X181614114Y-139252337D01*
X181629080Y-139289674D01*
X181676885Y-139361430D01*
X181767999Y-139437539D01*
X181783600Y-139447405D01*
X181918241Y-139497564D01*
X182101898Y-139526305D01*
X182305569Y-139533401D01*
X182500251Y-139518625D01*
X182656940Y-139481751D01*
X182712418Y-139454666D01*
X182796200Y-139375659D01*
X182796121Y-139303851D01*
X182712710Y-139239607D01*
X182546497Y-139183293D01*
X182298010Y-139135271D01*
X182235667Y-139126307D01*
X181923482Y-139074263D01*
X181684180Y-139011932D01*
X181506212Y-138935367D01*
X181378032Y-138840618D01*
X181366657Y-138829106D01*
X181294178Y-138742764D01*
X181256306Y-138656670D01*
X181242281Y-138537849D01*
X181240834Y-138443516D01*
X181244609Y-138297579D01*
X181265484Y-138202117D01*
X181317777Y-138122987D01*
X181415809Y-138026042D01*
X181415986Y-138025877D01*
X181556161Y-137918302D01*
X181710110Y-137833988D01*
X181775820Y-137809792D01*
X181934954Y-137779828D01*
X182134430Y-137763764D01*
X182345338Y-137761624D01*
X182538771Y-137773428D01*
X182685820Y-137799200D01*
X182715108Y-137809068D01*
X182820625Y-137835042D01*
X182907198Y-137805590D01*
X182925611Y-137793332D01*
X183038442Y-137736679D01*
X183132656Y-137752509D01*
G37*
X183132656Y-137752509D02*
X183209334Y-137814334D01*
X183262289Y-137914446D01*
X183291790Y-138065583D01*
X183297026Y-138237189D01*
X183277192Y-138398705D01*
X183231481Y-138519577D01*
X183228100Y-138524581D01*
X183128275Y-138603853D01*
X183003561Y-138613152D01*
X182875363Y-138553393D01*
X182825129Y-138507378D01*
X182638539Y-138365264D01*
X182409484Y-138291778D01*
X182147901Y-138289049D01*
X181971084Y-138324559D01*
X181862245Y-138373549D01*
X181811742Y-138435506D01*
X181829911Y-138495020D01*
X181847693Y-138508523D01*
X181901079Y-138524001D01*
X182020289Y-138549986D01*
X182187670Y-138582851D01*
X182385391Y-138618941D01*
X182720906Y-138690550D01*
X182979361Y-138776204D01*
X183167912Y-138881249D01*
X183293717Y-139011032D01*
X183363935Y-139170895D01*
X183385722Y-139365967D01*
X183358050Y-139558002D01*
X183268017Y-139717607D01*
X183105096Y-139862599D01*
X183083421Y-139877641D01*
X182878562Y-139978630D01*
X182622048Y-140047898D01*
X182342349Y-140081078D01*
X182067938Y-140073802D01*
X181939334Y-140053136D01*
X181780670Y-140026945D01*
X181595208Y-140007579D01*
X181511274Y-140002618D01*
X181338169Y-139987963D01*
X181227435Y-139949963D01*
X181166562Y-139873356D01*
X181143039Y-139742879D01*
X181143921Y-139554448D01*
X181152079Y-139390190D01*
X181166030Y-139289426D01*
X181193223Y-139231003D01*
X181241107Y-139193764D01*
X181277381Y-139175402D01*
X181409281Y-139146306D01*
X181530902Y-139174998D01*
X181614114Y-139252337D01*
X181629080Y-139289674D01*
X181676885Y-139361430D01*
X181767999Y-139437539D01*
X181783600Y-139447405D01*
X181918241Y-139497564D01*
X182101898Y-139526305D01*
X182305569Y-139533401D01*
X182500251Y-139518625D01*
X182656940Y-139481751D01*
X182712418Y-139454666D01*
X182796200Y-139375659D01*
X182796121Y-139303851D01*
X182712710Y-139239607D01*
X182546497Y-139183293D01*
X182298010Y-139135271D01*
X182235667Y-139126307D01*
X181923482Y-139074263D01*
X181684180Y-139011932D01*
X181506212Y-138935367D01*
X181378032Y-138840618D01*
X181366657Y-138829106D01*
X181294178Y-138742764D01*
X181256306Y-138656670D01*
X181242281Y-138537849D01*
X181240834Y-138443516D01*
X181244609Y-138297579D01*
X181265484Y-138202117D01*
X181317777Y-138122987D01*
X181415809Y-138026042D01*
X181415986Y-138025877D01*
X181556161Y-137918302D01*
X181710110Y-137833988D01*
X181775820Y-137809792D01*
X181934954Y-137779828D01*
X182134430Y-137763764D01*
X182345338Y-137761624D01*
X182538771Y-137773428D01*
X182685820Y-137799200D01*
X182715108Y-137809068D01*
X182820625Y-137835042D01*
X182907198Y-137805590D01*
X182925611Y-137793332D01*
X183038442Y-137736679D01*
X183132656Y-137752509D01*
G36*
X173609302Y-137775533D02*
G01*
X173780753Y-137808630D01*
X173790167Y-137811679D01*
X173970970Y-137882949D01*
X174106268Y-137967381D01*
X174202300Y-138077622D01*
X174265306Y-138226320D01*
X174301525Y-138426121D01*
X174317197Y-138689672D01*
X174319334Y-138884237D01*
X174319334Y-139454512D01*
X174489985Y-139481801D01*
X174615081Y-139516074D01*
X174683444Y-139578521D01*
X174701721Y-139617149D01*
X174725048Y-139768284D01*
X174680051Y-139894242D01*
X174589252Y-139968022D01*
X174499852Y-139990859D01*
X174363225Y-140006206D01*
X174201927Y-140013963D01*
X174038514Y-140014030D01*
X173895541Y-140006310D01*
X173795563Y-139990700D01*
X173761391Y-139971673D01*
X173712861Y-139953978D01*
X173596866Y-139980809D01*
X173573433Y-139988820D01*
X173403669Y-140033127D01*
X173199006Y-140064245D01*
X172991561Y-140079357D01*
X172813454Y-140075645D01*
X172731834Y-140062651D01*
X172510472Y-139976490D01*
X172317322Y-139847041D01*
X172171297Y-139690195D01*
X172092162Y-139525293D01*
X172084325Y-139388049D01*
X172638026Y-139388049D01*
X172649541Y-139426842D01*
X172738143Y-139495677D01*
X172885639Y-139531323D01*
X173073195Y-139534154D01*
X173281976Y-139504546D01*
X173493147Y-139442871D01*
X173576019Y-139408415D01*
X173711827Y-139339740D01*
X173784176Y-139282171D01*
X173810076Y-139220500D01*
X173811334Y-139198048D01*
X173797046Y-139126908D01*
X173738685Y-139088190D01*
X173652584Y-139069172D01*
X173368364Y-139044168D01*
X173107341Y-139062888D01*
X172895143Y-139123480D01*
X172893999Y-139123998D01*
X172758721Y-139205360D01*
X172668917Y-139298928D01*
X172638026Y-139388049D01*
X172084325Y-139388049D01*
X172080048Y-139313164D01*
X172148034Y-139109467D01*
X172291562Y-138921551D01*
X172506070Y-138756763D01*
X172602107Y-138703334D01*
X172738377Y-138636245D01*
X172847339Y-138593329D01*
X172955283Y-138569328D01*
X173088498Y-138558986D01*
X173273275Y-138557046D01*
X173332656Y-138557268D01*
X173529282Y-138557267D01*
X173655886Y-138553097D01*
X173727099Y-138541896D01*
X173757556Y-138520803D01*
X173761889Y-138486957D01*
X173760250Y-138473661D01*
X173705617Y-138372273D01*
X173579120Y-138309584D01*
X173384467Y-138286117D01*
X173125364Y-138302394D01*
X172861306Y-138347022D01*
X172694307Y-138379561D01*
X172586525Y-138392628D01*
X172514767Y-138386168D01*
X172455841Y-138360130D01*
X172433445Y-138346046D01*
X172360090Y-138257322D01*
X172327635Y-138135814D01*
X172340325Y-138016903D01*
X172385659Y-137947564D01*
X172504909Y-137885211D01*
X172686807Y-137833547D01*
X172909776Y-137794659D01*
X173152234Y-137770636D01*
X173392603Y-137763565D01*
X173609302Y-137775533D01*
G37*
X173609302Y-137775533D02*
X173780753Y-137808630D01*
X173790167Y-137811679D01*
X173970970Y-137882949D01*
X174106268Y-137967381D01*
X174202300Y-138077622D01*
X174265306Y-138226320D01*
X174301525Y-138426121D01*
X174317197Y-138689672D01*
X174319334Y-138884237D01*
X174319334Y-139454512D01*
X174489985Y-139481801D01*
X174615081Y-139516074D01*
X174683444Y-139578521D01*
X174701721Y-139617149D01*
X174725048Y-139768284D01*
X174680051Y-139894242D01*
X174589252Y-139968022D01*
X174499852Y-139990859D01*
X174363225Y-140006206D01*
X174201927Y-140013963D01*
X174038514Y-140014030D01*
X173895541Y-140006310D01*
X173795563Y-139990700D01*
X173761391Y-139971673D01*
X173712861Y-139953978D01*
X173596866Y-139980809D01*
X173573433Y-139988820D01*
X173403669Y-140033127D01*
X173199006Y-140064245D01*
X172991561Y-140079357D01*
X172813454Y-140075645D01*
X172731834Y-140062651D01*
X172510472Y-139976490D01*
X172317322Y-139847041D01*
X172171297Y-139690195D01*
X172092162Y-139525293D01*
X172084325Y-139388049D01*
X172638026Y-139388049D01*
X172649541Y-139426842D01*
X172738143Y-139495677D01*
X172885639Y-139531323D01*
X173073195Y-139534154D01*
X173281976Y-139504546D01*
X173493147Y-139442871D01*
X173576019Y-139408415D01*
X173711827Y-139339740D01*
X173784176Y-139282171D01*
X173810076Y-139220500D01*
X173811334Y-139198048D01*
X173797046Y-139126908D01*
X173738685Y-139088190D01*
X173652584Y-139069172D01*
X173368364Y-139044168D01*
X173107341Y-139062888D01*
X172895143Y-139123480D01*
X172893999Y-139123998D01*
X172758721Y-139205360D01*
X172668917Y-139298928D01*
X172638026Y-139388049D01*
X172084325Y-139388049D01*
X172080048Y-139313164D01*
X172148034Y-139109467D01*
X172291562Y-138921551D01*
X172506070Y-138756763D01*
X172602107Y-138703334D01*
X172738377Y-138636245D01*
X172847339Y-138593329D01*
X172955283Y-138569328D01*
X173088498Y-138558986D01*
X173273275Y-138557046D01*
X173332656Y-138557268D01*
X173529282Y-138557267D01*
X173655886Y-138553097D01*
X173727099Y-138541896D01*
X173757556Y-138520803D01*
X173761889Y-138486957D01*
X173760250Y-138473661D01*
X173705617Y-138372273D01*
X173579120Y-138309584D01*
X173384467Y-138286117D01*
X173125364Y-138302394D01*
X172861306Y-138347022D01*
X172694307Y-138379561D01*
X172586525Y-138392628D01*
X172514767Y-138386168D01*
X172455841Y-138360130D01*
X172433445Y-138346046D01*
X172360090Y-138257322D01*
X172327635Y-138135814D01*
X172340325Y-138016903D01*
X172385659Y-137947564D01*
X172504909Y-137885211D01*
X172686807Y-137833547D01*
X172909776Y-137794659D01*
X173152234Y-137770636D01*
X173392603Y-137763565D01*
X173609302Y-137775533D01*
G36*
X171446078Y-137751061D02*
G01*
X171525334Y-137814334D01*
X171566897Y-137867977D01*
X171592401Y-137940685D01*
X171605501Y-138052561D01*
X171609851Y-138223708D01*
X171610000Y-138280000D01*
X171607316Y-138469721D01*
X171596826Y-138594980D01*
X171574876Y-138675878D01*
X171537810Y-138732520D01*
X171525334Y-138745667D01*
X171404876Y-138818667D01*
X171280084Y-138813989D01*
X171165443Y-138736503D01*
X171077029Y-138594924D01*
X170989971Y-138453583D01*
X170859727Y-138360616D01*
X170671793Y-138307858D01*
X170541073Y-138293202D01*
X170274587Y-138306364D01*
X170050463Y-138383480D01*
X169877038Y-138518395D01*
X169762645Y-138704952D01*
X169717899Y-138901263D01*
X169718919Y-139068531D01*
X169761903Y-139200230D01*
X169785438Y-139241028D01*
X169880492Y-139362913D01*
X169996901Y-139446638D01*
X170150983Y-139498169D01*
X170359057Y-139523470D01*
X170572834Y-139528834D01*
X170773618Y-139526750D01*
X170913887Y-139517490D01*
X171017753Y-139496534D01*
X171109324Y-139459367D01*
X171194205Y-139412417D01*
X171382600Y-139322672D01*
X171529418Y-139301720D01*
X171641629Y-139348986D01*
X171666939Y-139373417D01*
X171728624Y-139493824D01*
X171715794Y-139623555D01*
X171636206Y-139751937D01*
X171497616Y-139868295D01*
X171307781Y-139961953D01*
X171218228Y-139990952D01*
X170995554Y-140037548D01*
X170736271Y-140067764D01*
X170474731Y-140079372D01*
X170245285Y-140070144D01*
X170165190Y-140059241D01*
X169840792Y-139967350D01*
X169578851Y-139820536D01*
X169381723Y-139621459D01*
X169251764Y-139372776D01*
X169191329Y-139077146D01*
X169187067Y-138955363D01*
X169227054Y-138630524D01*
X169340097Y-138344802D01*
X169522254Y-138104343D01*
X169769581Y-137915295D01*
X169895500Y-137851111D01*
X170092129Y-137792269D01*
X170337985Y-137760670D01*
X170601728Y-137757527D01*
X170852018Y-137784058D01*
X170965210Y-137809635D01*
X171090186Y-137837462D01*
X171172807Y-137830916D01*
X171239212Y-137795012D01*
X171352489Y-137737260D01*
X171446078Y-137751061D01*
G37*
X171446078Y-137751061D02*
X171525334Y-137814334D01*
X171566897Y-137867977D01*
X171592401Y-137940685D01*
X171605501Y-138052561D01*
X171609851Y-138223708D01*
X171610000Y-138280000D01*
X171607316Y-138469721D01*
X171596826Y-138594980D01*
X171574876Y-138675878D01*
X171537810Y-138732520D01*
X171525334Y-138745667D01*
X171404876Y-138818667D01*
X171280084Y-138813989D01*
X171165443Y-138736503D01*
X171077029Y-138594924D01*
X170989971Y-138453583D01*
X170859727Y-138360616D01*
X170671793Y-138307858D01*
X170541073Y-138293202D01*
X170274587Y-138306364D01*
X170050463Y-138383480D01*
X169877038Y-138518395D01*
X169762645Y-138704952D01*
X169717899Y-138901263D01*
X169718919Y-139068531D01*
X169761903Y-139200230D01*
X169785438Y-139241028D01*
X169880492Y-139362913D01*
X169996901Y-139446638D01*
X170150983Y-139498169D01*
X170359057Y-139523470D01*
X170572834Y-139528834D01*
X170773618Y-139526750D01*
X170913887Y-139517490D01*
X171017753Y-139496534D01*
X171109324Y-139459367D01*
X171194205Y-139412417D01*
X171382600Y-139322672D01*
X171529418Y-139301720D01*
X171641629Y-139348986D01*
X171666939Y-139373417D01*
X171728624Y-139493824D01*
X171715794Y-139623555D01*
X171636206Y-139751937D01*
X171497616Y-139868295D01*
X171307781Y-139961953D01*
X171218228Y-139990952D01*
X170995554Y-140037548D01*
X170736271Y-140067764D01*
X170474731Y-140079372D01*
X170245285Y-140070144D01*
X170165190Y-140059241D01*
X169840792Y-139967350D01*
X169578851Y-139820536D01*
X169381723Y-139621459D01*
X169251764Y-139372776D01*
X169191329Y-139077146D01*
X169187067Y-138955363D01*
X169227054Y-138630524D01*
X169340097Y-138344802D01*
X169522254Y-138104343D01*
X169769581Y-137915295D01*
X169895500Y-137851111D01*
X170092129Y-137792269D01*
X170337985Y-137760670D01*
X170601728Y-137757527D01*
X170852018Y-137784058D01*
X170965210Y-137809635D01*
X171090186Y-137837462D01*
X171172807Y-137830916D01*
X171239212Y-137795012D01*
X171352489Y-137737260D01*
X171446078Y-137751061D01*
%TD*%
D11*
%TO.C,H1*%
X180962489Y-98000000D03*
%TD*%
D12*
%TO.C,D1*%
X169040000Y-108000000D03*
G36*
G01*
X165550000Y-108900000D02*
X165550000Y-107100000D01*
G75*
G02*
X165600000Y-107050000I50000J0D01*
G01*
X167400000Y-107050000D01*
G75*
G02*
X167450000Y-107100000I0J-50000D01*
G01*
X167450000Y-108900000D01*
G75*
G02*
X167400000Y-108950000I-50000J0D01*
G01*
X165600000Y-108950000D01*
G75*
G02*
X165550000Y-108900000I0J50000D01*
G01*
G37*
%TD*%
%TO.C,D3*%
X194540000Y-108000000D03*
G36*
G01*
X191050000Y-108900000D02*
X191050000Y-107100000D01*
G75*
G02*
X191100000Y-107050000I50000J0D01*
G01*
X192900000Y-107050000D01*
G75*
G02*
X192950000Y-107100000I0J-50000D01*
G01*
X192950000Y-108900000D01*
G75*
G02*
X192900000Y-108950000I-50000J0D01*
G01*
X191100000Y-108950000D01*
G75*
G02*
X191050000Y-108900000I0J50000D01*
G01*
G37*
%TD*%
%TO.C,D2*%
X182540000Y-130000000D03*
G36*
G01*
X179050000Y-130900000D02*
X179050000Y-129100000D01*
G75*
G02*
X179100000Y-129050000I50000J0D01*
G01*
X180900000Y-129050000D01*
G75*
G02*
X180950000Y-129100000I0J-50000D01*
G01*
X180950000Y-130900000D01*
G75*
G02*
X180900000Y-130950000I-50000J0D01*
G01*
X179100000Y-130950000D01*
G75*
G02*
X179050000Y-130900000I0J50000D01*
G01*
G37*
%TD*%
D13*
%TO.C,BT1*%
X171200000Y-115400000D03*
X191197420Y-115400000D03*
%TD*%
M02*
