%TF.GenerationSoftware,KiCad,Pcbnew,5.1.6*%
%TF.CreationDate,2020-09-20T17:35:54+02:00*%
%TF.ProjectId,ICanSolder,4943616e-536f-46c6-9465-722e6b696361,rev?*%
%TF.SameCoordinates,Original*%
%TF.FileFunction,Copper,L1,Top*%
%TF.FilePolarity,Positive*%
%FSLAX46Y46*%
G04 Gerber Fmt 4.6, Leading zero omitted, Abs format (unit mm)*
G04 Created by KiCad (PCBNEW 5.1.6) date 2020-09-20 17:35:54*
%MOMM*%
%LPD*%
G01*
G04 APERTURE LIST*
%TA.AperFunction,ComponentPad*%
%ADD10C,3.800000*%
%TD*%
%TA.AperFunction,ComponentPad*%
%ADD11C,1.800000*%
%TD*%
%TA.AperFunction,ComponentPad*%
%ADD12R,1.800000X1.800000*%
%TD*%
%TA.AperFunction,ComponentPad*%
%ADD13C,1.948180*%
%TD*%
%TA.AperFunction,Conductor*%
%ADD14C,0.254000*%
%TD*%
G04 APERTURE END LIST*
D10*
%TO.P,H1,1*%
%TO.N,GND*%
X180962489Y-98000000D03*
%TD*%
D11*
%TO.P,D1,2*%
%TO.N,VCC*%
X169040000Y-108000000D03*
D12*
%TO.P,D1,1*%
%TO.N,GND*%
X166500000Y-108000000D03*
%TD*%
D11*
%TO.P,D3,2*%
%TO.N,VCC*%
X194540000Y-108000000D03*
D12*
%TO.P,D3,1*%
%TO.N,GND*%
X192000000Y-108000000D03*
%TD*%
D11*
%TO.P,D2,2*%
%TO.N,VCC*%
X182540000Y-130000000D03*
D12*
%TO.P,D2,1*%
%TO.N,GND*%
X180000000Y-130000000D03*
%TD*%
D13*
%TO.P,BT1,2*%
%TO.N,GND*%
X171351680Y-114000000D03*
%TO.P,BT1,1*%
%TO.N,VCC*%
X191349100Y-114000000D03*
%TD*%
D14*
%TO.N,GND*%
G36*
X182935944Y-96285054D02*
G01*
X183901653Y-96407837D01*
X184851881Y-96577510D01*
X185784727Y-96792532D01*
X186699616Y-97052435D01*
X187596323Y-97355809D01*
X188472331Y-97700992D01*
X189326644Y-98087702D01*
X190158597Y-98513390D01*
X190966324Y-98977877D01*
X191749165Y-99479902D01*
X192505489Y-100018071D01*
X193234810Y-100590541D01*
X193934835Y-101197315D01*
X194604798Y-101836349D01*
X195243713Y-102506216D01*
X195850092Y-103206427D01*
X196423142Y-103935777D01*
X196961280Y-104691880D01*
X197463065Y-105474831D01*
X197927866Y-106282829D01*
X198353909Y-107114432D01*
X198739910Y-107969127D01*
X199085349Y-108844933D01*
X199388780Y-109740877D01*
X199648497Y-110656139D01*
X199863606Y-111589723D01*
X200033256Y-112539351D01*
X200155918Y-113505132D01*
X200230802Y-114484983D01*
X200255915Y-115481003D01*
X200242924Y-116193933D01*
X200203585Y-116904385D01*
X200138164Y-117609661D01*
X200047952Y-118308454D01*
X199932476Y-119001030D01*
X199792464Y-119686676D01*
X199628193Y-120364303D01*
X199440194Y-121033310D01*
X199228080Y-121694162D01*
X198993550Y-122345912D01*
X198735582Y-122986746D01*
X198455367Y-123618000D01*
X198153692Y-124237699D01*
X197829750Y-124845474D01*
X197484666Y-125441575D01*
X197119144Y-126024210D01*
X196732170Y-126593938D01*
X196325780Y-127150105D01*
X195899826Y-127690718D01*
X195453682Y-128216585D01*
X194989090Y-128726665D01*
X194505425Y-129220806D01*
X194003704Y-129697991D01*
X193484398Y-130158036D01*
X192947128Y-130599502D01*
X192393181Y-131022884D01*
X191821651Y-131427069D01*
X191686893Y-131515332D01*
X191673023Y-131521655D01*
X191630575Y-131552220D01*
X191615073Y-131562373D01*
X191603259Y-131571888D01*
X191563523Y-131600500D01*
X191550825Y-131614120D01*
X191536318Y-131625804D01*
X191504897Y-131663382D01*
X191471509Y-131699193D01*
X191461713Y-131715027D01*
X191449763Y-131729318D01*
X191426280Y-131772298D01*
X191400516Y-131813941D01*
X191393995Y-131831387D01*
X191385066Y-131847730D01*
X191370422Y-131894457D01*
X191365112Y-131908664D01*
X191360357Y-131926574D01*
X191344714Y-131976488D01*
X191343081Y-131991641D01*
X191330552Y-132038828D01*
X191323677Y-132062146D01*
X191321929Y-132071308D01*
X191319533Y-132080331D01*
X191315626Y-132104335D01*
X191297728Y-132198129D01*
X191292176Y-132224395D01*
X191291432Y-132231126D01*
X191290161Y-132237785D01*
X191287736Y-132264547D01*
X191277069Y-132361010D01*
X191273740Y-132385082D01*
X191273373Y-132394433D01*
X191272345Y-132403728D01*
X191272054Y-132428016D01*
X191268291Y-132523874D01*
X191266676Y-132548026D01*
X191266972Y-132557456D01*
X191266602Y-132566888D01*
X191268028Y-132591059D01*
X191270215Y-132660675D01*
X191270049Y-132680714D01*
X191271271Y-132694277D01*
X191271699Y-132707890D01*
X191274289Y-132727764D01*
X191280198Y-132793333D01*
X191281387Y-132814965D01*
X191283215Y-132826812D01*
X191284291Y-132838752D01*
X191288342Y-132860040D01*
X191298040Y-132922894D01*
X191300126Y-132941737D01*
X191303165Y-132956109D01*
X191305407Y-132970637D01*
X191310124Y-132989012D01*
X191323201Y-133050850D01*
X191327014Y-133072493D01*
X191330154Y-133083726D01*
X191332570Y-133095152D01*
X191339208Y-133116119D01*
X191356164Y-133176784D01*
X191360714Y-133196034D01*
X191365206Y-133209134D01*
X191368941Y-133222499D01*
X191376119Y-133240965D01*
X191395993Y-133298933D01*
X191401956Y-133318738D01*
X191406904Y-133330754D01*
X191411114Y-133343034D01*
X191419699Y-133361828D01*
X191442700Y-133417690D01*
X191449350Y-133435956D01*
X191455502Y-133448779D01*
X191460915Y-133461926D01*
X191470040Y-133479084D01*
X191496243Y-133533705D01*
X191504844Y-133553392D01*
X191510767Y-133563980D01*
X191516028Y-133574946D01*
X191527199Y-133593352D01*
X191555956Y-133644756D01*
X191564013Y-133660843D01*
X191572380Y-133674115D01*
X191580031Y-133687791D01*
X191590300Y-133702539D01*
X191620948Y-133751152D01*
X191631149Y-133768811D01*
X191638868Y-133779577D01*
X191645939Y-133790793D01*
X191658467Y-133806912D01*
X191693205Y-133855363D01*
X191704324Y-133872231D01*
X191712791Y-133882681D01*
X191720630Y-133893614D01*
X191733955Y-133908801D01*
X191770795Y-133954267D01*
X191782383Y-133969849D01*
X191791959Y-133980386D01*
X191800928Y-133991456D01*
X191814576Y-134005276D01*
X191853358Y-134047953D01*
X191865769Y-134062810D01*
X191875968Y-134072833D01*
X191885584Y-134083415D01*
X191899943Y-134096395D01*
X191941028Y-134136772D01*
X191954318Y-134150963D01*
X191965008Y-134160339D01*
X191975148Y-134170304D01*
X191990284Y-134182507D01*
X192033387Y-134220311D01*
X192047344Y-134233627D01*
X192058664Y-134242480D01*
X192069468Y-134251956D01*
X192085148Y-134263193D01*
X192135499Y-134302573D01*
X192181438Y-134340274D01*
X192218380Y-134360020D01*
X192253727Y-134382455D01*
X192277730Y-134391743D01*
X192300439Y-134403881D01*
X192340520Y-134416039D01*
X192379568Y-134431149D01*
X192404924Y-134435576D01*
X192429562Y-134443050D01*
X192471243Y-134447155D01*
X192512490Y-134454357D01*
X192571852Y-134452962D01*
X197917547Y-134452962D01*
X198173228Y-134465724D01*
X198404072Y-134500893D01*
X198626113Y-134557629D01*
X198838291Y-134634933D01*
X199040524Y-134732176D01*
X199230862Y-134847396D01*
X199408662Y-134980543D01*
X199572983Y-135129740D01*
X199722374Y-135294255D01*
X199855158Y-135471639D01*
X199970433Y-135662270D01*
X200067880Y-135864927D01*
X200145290Y-136076836D01*
X200201759Y-136298633D01*
X200237004Y-136529779D01*
X200249988Y-136785709D01*
X200249987Y-140695367D01*
X200237004Y-140951056D01*
X200201746Y-141182487D01*
X200145290Y-141404234D01*
X200067880Y-141616143D01*
X199970506Y-141818648D01*
X199855157Y-142009198D01*
X199722372Y-142186788D01*
X199572979Y-142351100D01*
X199408664Y-142500497D01*
X199231078Y-142633279D01*
X199040524Y-142748630D01*
X198838026Y-142846000D01*
X198626109Y-142923412D01*
X198404356Y-142979869D01*
X198172933Y-143015126D01*
X197917250Y-143028108D01*
X164007775Y-143028108D01*
X163752073Y-143015126D01*
X163520683Y-142979871D01*
X163298968Y-142923418D01*
X163087047Y-142845998D01*
X162884392Y-142748571D01*
X162693866Y-142633311D01*
X162516470Y-142500534D01*
X162351978Y-142351089D01*
X162202712Y-142186806D01*
X162069704Y-142009025D01*
X161954391Y-141818671D01*
X161857187Y-141616307D01*
X161779718Y-141404179D01*
X161723200Y-141182428D01*
X161687993Y-140951204D01*
X161675097Y-140695490D01*
X161675097Y-136785565D01*
X161687994Y-136529631D01*
X161723187Y-136298692D01*
X161779718Y-136076891D01*
X161857187Y-135864763D01*
X161954462Y-135662251D01*
X162069702Y-135471813D01*
X162202714Y-135294233D01*
X162351967Y-135129758D01*
X162516469Y-134980508D01*
X162694079Y-134847366D01*
X162884392Y-134732235D01*
X163086789Y-134634933D01*
X163298965Y-134557622D01*
X163520971Y-134500891D01*
X163751784Y-134465724D01*
X164007495Y-134452962D01*
X169610195Y-134452962D01*
X169669732Y-134454328D01*
X169710786Y-134447136D01*
X169752273Y-134443050D01*
X169777095Y-134435520D01*
X169802642Y-134431045D01*
X169841504Y-134415982D01*
X169881396Y-134403881D01*
X169904274Y-134391653D01*
X169928455Y-134382280D01*
X169963630Y-134359926D01*
X170000397Y-134340274D01*
X170046469Y-134302463D01*
X170096381Y-134263381D01*
X170111525Y-134252561D01*
X170122859Y-134242649D01*
X170134704Y-134233374D01*
X170148159Y-134220523D01*
X170191339Y-134182759D01*
X170206901Y-134170207D01*
X170216638Y-134160633D01*
X170226923Y-134151639D01*
X170240615Y-134137060D01*
X170282245Y-134096131D01*
X170296773Y-134082974D01*
X170306218Y-134072561D01*
X170316244Y-134062704D01*
X170328805Y-134047660D01*
X170367679Y-134004804D01*
X170381322Y-133990962D01*
X170390265Y-133979904D01*
X170399823Y-133969366D01*
X170411410Y-133953755D01*
X170447903Y-133908628D01*
X170460960Y-133893756D01*
X170469050Y-133882479D01*
X170477769Y-133871697D01*
X170488639Y-133855173D01*
X170522803Y-133807548D01*
X170534976Y-133791952D01*
X170542396Y-133780236D01*
X170550483Y-133768963D01*
X170560388Y-133751828D01*
X170591667Y-133702440D01*
X170602781Y-133686396D01*
X170609664Y-133674023D01*
X170617231Y-133662075D01*
X170625998Y-133644660D01*
X170654624Y-133593202D01*
X170665047Y-133576102D01*
X170670962Y-133563832D01*
X170677590Y-133551918D01*
X170685567Y-133533538D01*
X170711702Y-133479326D01*
X170721300Y-133461231D01*
X170726305Y-133449038D01*
X170732027Y-133437168D01*
X170739071Y-133417935D01*
X170762273Y-133361404D01*
X170770739Y-133342856D01*
X170775044Y-133330289D01*
X170780082Y-133318014D01*
X170785932Y-133298503D01*
X170805739Y-133240682D01*
X170812940Y-133222124D01*
X170816638Y-133208865D01*
X170821096Y-133195850D01*
X170825668Y-133176486D01*
X170842344Y-133116690D01*
X170848729Y-133096680D01*
X170851378Y-133084294D01*
X170854777Y-133072107D01*
X170858407Y-133051435D01*
X170871719Y-132989196D01*
X170876745Y-132969474D01*
X170878753Y-132956311D01*
X170881536Y-132943298D01*
X170883820Y-132923085D01*
X170893481Y-132859746D01*
X170897383Y-132839337D01*
X170898550Y-132826512D01*
X170900491Y-132813785D01*
X170901596Y-132793033D01*
X170907551Y-132727579D01*
X170910214Y-132706916D01*
X170910599Y-132694075D01*
X170911761Y-132681305D01*
X170911606Y-132660497D01*
X170913787Y-132587807D01*
X170915133Y-132561356D01*
X170914794Y-132554204D01*
X170915009Y-132547049D01*
X170913205Y-132520639D01*
X170907907Y-132408727D01*
X170907042Y-132380725D01*
X170906317Y-132375140D01*
X170906051Y-132369519D01*
X170901994Y-132341829D01*
X170887835Y-132232738D01*
X170881345Y-132172890D01*
X170869048Y-132133744D01*
X170859802Y-132093760D01*
X170848876Y-132069527D01*
X170840907Y-132044159D01*
X170821205Y-132008157D01*
X170804340Y-131970752D01*
X170788894Y-131949113D01*
X170776131Y-131925791D01*
X170749789Y-131894330D01*
X170725946Y-131860928D01*
X170706574Y-131842718D01*
X170689507Y-131822334D01*
X170657524Y-131796609D01*
X170627632Y-131768509D01*
X170576564Y-131736622D01*
X170103110Y-131426969D01*
X169531940Y-131022914D01*
X169371121Y-130900000D01*
X178461928Y-130900000D01*
X178474188Y-131024482D01*
X178510498Y-131144180D01*
X178569463Y-131254494D01*
X178648815Y-131351185D01*
X178745506Y-131430537D01*
X178855820Y-131489502D01*
X178975518Y-131525812D01*
X179100000Y-131538072D01*
X179714250Y-131535000D01*
X179873000Y-131376250D01*
X179873000Y-130127000D01*
X178623750Y-130127000D01*
X178465000Y-130285750D01*
X178461928Y-130900000D01*
X169371121Y-130900000D01*
X168977948Y-130599498D01*
X168440506Y-130157996D01*
X167921221Y-129698015D01*
X167419557Y-129220862D01*
X167301283Y-129100000D01*
X178461928Y-129100000D01*
X178465000Y-129714250D01*
X178623750Y-129873000D01*
X179873000Y-129873000D01*
X179873000Y-128623750D01*
X180127000Y-128623750D01*
X180127000Y-129873000D01*
X180147000Y-129873000D01*
X180147000Y-130127000D01*
X180127000Y-130127000D01*
X180127000Y-131376250D01*
X180285750Y-131535000D01*
X180900000Y-131538072D01*
X181024482Y-131525812D01*
X181144180Y-131489502D01*
X181254494Y-131430537D01*
X181351185Y-131351185D01*
X181430537Y-131254494D01*
X181489502Y-131144180D01*
X181495056Y-131125873D01*
X181561495Y-131192312D01*
X181812905Y-131360299D01*
X182092257Y-131476011D01*
X182388816Y-131535000D01*
X182691184Y-131535000D01*
X182987743Y-131476011D01*
X183267095Y-131360299D01*
X183518505Y-131192312D01*
X183732312Y-130978505D01*
X183900299Y-130727095D01*
X184016011Y-130447743D01*
X184075000Y-130151184D01*
X184075000Y-129848816D01*
X184016011Y-129552257D01*
X183900299Y-129272905D01*
X183732312Y-129021495D01*
X183518505Y-128807688D01*
X183267095Y-128639701D01*
X182987743Y-128523989D01*
X182691184Y-128465000D01*
X182388816Y-128465000D01*
X182092257Y-128523989D01*
X181812905Y-128639701D01*
X181561495Y-128807688D01*
X181495056Y-128874127D01*
X181489502Y-128855820D01*
X181430537Y-128745506D01*
X181351185Y-128648815D01*
X181254494Y-128569463D01*
X181144180Y-128510498D01*
X181024482Y-128474188D01*
X180900000Y-128461928D01*
X180285750Y-128465000D01*
X180127000Y-128623750D01*
X179873000Y-128623750D01*
X179714250Y-128465000D01*
X179100000Y-128461928D01*
X178975518Y-128474188D01*
X178855820Y-128510498D01*
X178745506Y-128569463D01*
X178648815Y-128648815D01*
X178569463Y-128745506D01*
X178510498Y-128855820D01*
X178474188Y-128975518D01*
X178461928Y-129100000D01*
X167301283Y-129100000D01*
X166935961Y-128726688D01*
X166471370Y-128216695D01*
X166025596Y-127690722D01*
X165599052Y-127149976D01*
X165192845Y-126593990D01*
X164805905Y-126024202D01*
X164440230Y-125441566D01*
X164095300Y-124845553D01*
X163771419Y-124237706D01*
X163469540Y-123617955D01*
X163189456Y-122986828D01*
X162931548Y-122345956D01*
X162697007Y-121694171D01*
X162484854Y-121033282D01*
X162296798Y-120364351D01*
X162132604Y-119686622D01*
X161992395Y-119001006D01*
X161877132Y-118308479D01*
X161786784Y-117609619D01*
X161721392Y-116904387D01*
X161681976Y-116193946D01*
X161669062Y-115481024D01*
X161678227Y-115116935D01*
X170414350Y-115116935D01*
X170506985Y-115378688D01*
X170792185Y-115516989D01*
X171098885Y-115596992D01*
X171415300Y-115615624D01*
X171729270Y-115572169D01*
X172028730Y-115468297D01*
X172196375Y-115378688D01*
X172289010Y-115116935D01*
X171351680Y-114179605D01*
X170414350Y-115116935D01*
X161678227Y-115116935D01*
X161694074Y-114487436D01*
X161726307Y-114063620D01*
X169736056Y-114063620D01*
X169779511Y-114377590D01*
X169883383Y-114677050D01*
X169972992Y-114844695D01*
X170234745Y-114937330D01*
X171172075Y-114000000D01*
X171531285Y-114000000D01*
X172468615Y-114937330D01*
X172730368Y-114844695D01*
X172868669Y-114559495D01*
X172948672Y-114252795D01*
X172967304Y-113936380D01*
X172954175Y-113841518D01*
X189740010Y-113841518D01*
X189740010Y-114158482D01*
X189801846Y-114469354D01*
X189923143Y-114762190D01*
X190099238Y-115025735D01*
X190323365Y-115249862D01*
X190586910Y-115425957D01*
X190879746Y-115547254D01*
X191190618Y-115609090D01*
X191507582Y-115609090D01*
X191818454Y-115547254D01*
X192111290Y-115425957D01*
X192374835Y-115249862D01*
X192598962Y-115025735D01*
X192775057Y-114762190D01*
X192896354Y-114469354D01*
X192958190Y-114158482D01*
X192958190Y-113841518D01*
X192896354Y-113530646D01*
X192775057Y-113237810D01*
X192598962Y-112974265D01*
X192374835Y-112750138D01*
X192111290Y-112574043D01*
X191818454Y-112452746D01*
X191507582Y-112390910D01*
X191190618Y-112390910D01*
X190879746Y-112452746D01*
X190586910Y-112574043D01*
X190323365Y-112750138D01*
X190099238Y-112974265D01*
X189923143Y-113237810D01*
X189801846Y-113530646D01*
X189740010Y-113841518D01*
X172954175Y-113841518D01*
X172923849Y-113622410D01*
X172819977Y-113322950D01*
X172730368Y-113155305D01*
X172468615Y-113062670D01*
X171531285Y-114000000D01*
X171172075Y-114000000D01*
X170234745Y-113062670D01*
X169972992Y-113155305D01*
X169834691Y-113440505D01*
X169754688Y-113747205D01*
X169736056Y-114063620D01*
X161726307Y-114063620D01*
X161768443Y-113509606D01*
X161847952Y-112883065D01*
X170414350Y-112883065D01*
X171351680Y-113820395D01*
X172289010Y-112883065D01*
X172196375Y-112621312D01*
X171911175Y-112483011D01*
X171604475Y-112403008D01*
X171288060Y-112384376D01*
X170974090Y-112427831D01*
X170674630Y-112531703D01*
X170506985Y-112621312D01*
X170414350Y-112883065D01*
X161847952Y-112883065D01*
X161890754Y-112545785D01*
X162059401Y-111597682D01*
X162273920Y-110666328D01*
X162532848Y-109752802D01*
X162820614Y-108900000D01*
X164961928Y-108900000D01*
X164974188Y-109024482D01*
X165010498Y-109144180D01*
X165069463Y-109254494D01*
X165148815Y-109351185D01*
X165245506Y-109430537D01*
X165355820Y-109489502D01*
X165475518Y-109525812D01*
X165600000Y-109538072D01*
X166214250Y-109535000D01*
X166373000Y-109376250D01*
X166373000Y-108127000D01*
X165123750Y-108127000D01*
X164965000Y-108285750D01*
X164961928Y-108900000D01*
X162820614Y-108900000D01*
X162834690Y-108858287D01*
X163178928Y-107983694D01*
X163563626Y-107130485D01*
X163579207Y-107100000D01*
X164961928Y-107100000D01*
X164965000Y-107714250D01*
X165123750Y-107873000D01*
X166373000Y-107873000D01*
X166373000Y-106623750D01*
X166627000Y-106623750D01*
X166627000Y-107873000D01*
X166647000Y-107873000D01*
X166647000Y-108127000D01*
X166627000Y-108127000D01*
X166627000Y-109376250D01*
X166785750Y-109535000D01*
X167400000Y-109538072D01*
X167524482Y-109525812D01*
X167644180Y-109489502D01*
X167754494Y-109430537D01*
X167851185Y-109351185D01*
X167930537Y-109254494D01*
X167989502Y-109144180D01*
X167995056Y-109125873D01*
X168061495Y-109192312D01*
X168312905Y-109360299D01*
X168592257Y-109476011D01*
X168888816Y-109535000D01*
X169191184Y-109535000D01*
X169487743Y-109476011D01*
X169767095Y-109360299D01*
X170018505Y-109192312D01*
X170232312Y-108978505D01*
X170284767Y-108900000D01*
X190461928Y-108900000D01*
X190474188Y-109024482D01*
X190510498Y-109144180D01*
X190569463Y-109254494D01*
X190648815Y-109351185D01*
X190745506Y-109430537D01*
X190855820Y-109489502D01*
X190975518Y-109525812D01*
X191100000Y-109538072D01*
X191714250Y-109535000D01*
X191873000Y-109376250D01*
X191873000Y-108127000D01*
X190623750Y-108127000D01*
X190465000Y-108285750D01*
X190461928Y-108900000D01*
X170284767Y-108900000D01*
X170400299Y-108727095D01*
X170516011Y-108447743D01*
X170575000Y-108151184D01*
X170575000Y-107848816D01*
X170516011Y-107552257D01*
X170400299Y-107272905D01*
X170284768Y-107100000D01*
X190461928Y-107100000D01*
X190465000Y-107714250D01*
X190623750Y-107873000D01*
X191873000Y-107873000D01*
X191873000Y-106623750D01*
X192127000Y-106623750D01*
X192127000Y-107873000D01*
X192147000Y-107873000D01*
X192147000Y-108127000D01*
X192127000Y-108127000D01*
X192127000Y-109376250D01*
X192285750Y-109535000D01*
X192900000Y-109538072D01*
X193024482Y-109525812D01*
X193144180Y-109489502D01*
X193254494Y-109430537D01*
X193351185Y-109351185D01*
X193430537Y-109254494D01*
X193489502Y-109144180D01*
X193495056Y-109125873D01*
X193561495Y-109192312D01*
X193812905Y-109360299D01*
X194092257Y-109476011D01*
X194388816Y-109535000D01*
X194691184Y-109535000D01*
X194987743Y-109476011D01*
X195267095Y-109360299D01*
X195518505Y-109192312D01*
X195732312Y-108978505D01*
X195900299Y-108727095D01*
X196016011Y-108447743D01*
X196075000Y-108151184D01*
X196075000Y-107848816D01*
X196016011Y-107552257D01*
X195900299Y-107272905D01*
X195732312Y-107021495D01*
X195518505Y-106807688D01*
X195267095Y-106639701D01*
X194987743Y-106523989D01*
X194691184Y-106465000D01*
X194388816Y-106465000D01*
X194092257Y-106523989D01*
X193812905Y-106639701D01*
X193561495Y-106807688D01*
X193495056Y-106874127D01*
X193489502Y-106855820D01*
X193430537Y-106745506D01*
X193351185Y-106648815D01*
X193254494Y-106569463D01*
X193144180Y-106510498D01*
X193024482Y-106474188D01*
X192900000Y-106461928D01*
X192285750Y-106465000D01*
X192127000Y-106623750D01*
X191873000Y-106623750D01*
X191714250Y-106465000D01*
X191100000Y-106461928D01*
X190975518Y-106474188D01*
X190855820Y-106510498D01*
X190745506Y-106569463D01*
X190648815Y-106648815D01*
X190569463Y-106745506D01*
X190510498Y-106855820D01*
X190474188Y-106975518D01*
X190461928Y-107100000D01*
X170284768Y-107100000D01*
X170232312Y-107021495D01*
X170018505Y-106807688D01*
X169767095Y-106639701D01*
X169487743Y-106523989D01*
X169191184Y-106465000D01*
X168888816Y-106465000D01*
X168592257Y-106523989D01*
X168312905Y-106639701D01*
X168061495Y-106807688D01*
X167995056Y-106874127D01*
X167989502Y-106855820D01*
X167930537Y-106745506D01*
X167851185Y-106648815D01*
X167754494Y-106569463D01*
X167644180Y-106510498D01*
X167524482Y-106474188D01*
X167400000Y-106461928D01*
X166785750Y-106465000D01*
X166627000Y-106623750D01*
X166373000Y-106623750D01*
X166214250Y-106465000D01*
X165600000Y-106461928D01*
X165475518Y-106474188D01*
X165355820Y-106510498D01*
X165245506Y-106569463D01*
X165148815Y-106648815D01*
X165069463Y-106745506D01*
X165010498Y-106855820D01*
X164974188Y-106975518D01*
X164961928Y-107100000D01*
X163579207Y-107100000D01*
X163988283Y-106299642D01*
X164450823Y-105492796D01*
X164950894Y-104711275D01*
X165487002Y-103955010D01*
X166057420Y-103226888D01*
X166661822Y-102527174D01*
X167298683Y-101857375D01*
X167966636Y-101218869D01*
X168664461Y-100611899D01*
X169391101Y-100038978D01*
X169758969Y-99776349D01*
X179365745Y-99776349D01*
X179569851Y-100132867D01*
X180012712Y-100363575D01*
X180492072Y-100503452D01*
X180989510Y-100547123D01*
X181485911Y-100492909D01*
X181962196Y-100342894D01*
X182355127Y-100132867D01*
X182559233Y-99776349D01*
X180962489Y-98179605D01*
X179365745Y-99776349D01*
X169758969Y-99776349D01*
X170144744Y-99500936D01*
X170925345Y-98998338D01*
X171730642Y-98532820D01*
X172559972Y-98106181D01*
X173411755Y-97718463D01*
X174285269Y-97371749D01*
X175178874Y-97066900D01*
X176091747Y-96805008D01*
X177022277Y-96587968D01*
X177969927Y-96415801D01*
X178933095Y-96290541D01*
X179082241Y-96278740D01*
X179071931Y-96289050D01*
X179186138Y-96403257D01*
X178829622Y-96607362D01*
X178598914Y-97050223D01*
X178459037Y-97529583D01*
X178415366Y-98027021D01*
X178469580Y-98523422D01*
X178619595Y-98999707D01*
X178829622Y-99392638D01*
X179186140Y-99596744D01*
X180782884Y-98000000D01*
X180768742Y-97985858D01*
X180948347Y-97806253D01*
X180962489Y-97820395D01*
X180976632Y-97806253D01*
X181156237Y-97985858D01*
X181142094Y-98000000D01*
X182738838Y-99596744D01*
X183095356Y-99392638D01*
X183326064Y-98949777D01*
X183465941Y-98470417D01*
X183509612Y-97972979D01*
X183455398Y-97476578D01*
X183305383Y-97000293D01*
X183095356Y-96607362D01*
X182738840Y-96403257D01*
X182853047Y-96289050D01*
X182841866Y-96277869D01*
X182935944Y-96285054D01*
G37*
X182935944Y-96285054D02*
X183901653Y-96407837D01*
X184851881Y-96577510D01*
X185784727Y-96792532D01*
X186699616Y-97052435D01*
X187596323Y-97355809D01*
X188472331Y-97700992D01*
X189326644Y-98087702D01*
X190158597Y-98513390D01*
X190966324Y-98977877D01*
X191749165Y-99479902D01*
X192505489Y-100018071D01*
X193234810Y-100590541D01*
X193934835Y-101197315D01*
X194604798Y-101836349D01*
X195243713Y-102506216D01*
X195850092Y-103206427D01*
X196423142Y-103935777D01*
X196961280Y-104691880D01*
X197463065Y-105474831D01*
X197927866Y-106282829D01*
X198353909Y-107114432D01*
X198739910Y-107969127D01*
X199085349Y-108844933D01*
X199388780Y-109740877D01*
X199648497Y-110656139D01*
X199863606Y-111589723D01*
X200033256Y-112539351D01*
X200155918Y-113505132D01*
X200230802Y-114484983D01*
X200255915Y-115481003D01*
X200242924Y-116193933D01*
X200203585Y-116904385D01*
X200138164Y-117609661D01*
X200047952Y-118308454D01*
X199932476Y-119001030D01*
X199792464Y-119686676D01*
X199628193Y-120364303D01*
X199440194Y-121033310D01*
X199228080Y-121694162D01*
X198993550Y-122345912D01*
X198735582Y-122986746D01*
X198455367Y-123618000D01*
X198153692Y-124237699D01*
X197829750Y-124845474D01*
X197484666Y-125441575D01*
X197119144Y-126024210D01*
X196732170Y-126593938D01*
X196325780Y-127150105D01*
X195899826Y-127690718D01*
X195453682Y-128216585D01*
X194989090Y-128726665D01*
X194505425Y-129220806D01*
X194003704Y-129697991D01*
X193484398Y-130158036D01*
X192947128Y-130599502D01*
X192393181Y-131022884D01*
X191821651Y-131427069D01*
X191686893Y-131515332D01*
X191673023Y-131521655D01*
X191630575Y-131552220D01*
X191615073Y-131562373D01*
X191603259Y-131571888D01*
X191563523Y-131600500D01*
X191550825Y-131614120D01*
X191536318Y-131625804D01*
X191504897Y-131663382D01*
X191471509Y-131699193D01*
X191461713Y-131715027D01*
X191449763Y-131729318D01*
X191426280Y-131772298D01*
X191400516Y-131813941D01*
X191393995Y-131831387D01*
X191385066Y-131847730D01*
X191370422Y-131894457D01*
X191365112Y-131908664D01*
X191360357Y-131926574D01*
X191344714Y-131976488D01*
X191343081Y-131991641D01*
X191330552Y-132038828D01*
X191323677Y-132062146D01*
X191321929Y-132071308D01*
X191319533Y-132080331D01*
X191315626Y-132104335D01*
X191297728Y-132198129D01*
X191292176Y-132224395D01*
X191291432Y-132231126D01*
X191290161Y-132237785D01*
X191287736Y-132264547D01*
X191277069Y-132361010D01*
X191273740Y-132385082D01*
X191273373Y-132394433D01*
X191272345Y-132403728D01*
X191272054Y-132428016D01*
X191268291Y-132523874D01*
X191266676Y-132548026D01*
X191266972Y-132557456D01*
X191266602Y-132566888D01*
X191268028Y-132591059D01*
X191270215Y-132660675D01*
X191270049Y-132680714D01*
X191271271Y-132694277D01*
X191271699Y-132707890D01*
X191274289Y-132727764D01*
X191280198Y-132793333D01*
X191281387Y-132814965D01*
X191283215Y-132826812D01*
X191284291Y-132838752D01*
X191288342Y-132860040D01*
X191298040Y-132922894D01*
X191300126Y-132941737D01*
X191303165Y-132956109D01*
X191305407Y-132970637D01*
X191310124Y-132989012D01*
X191323201Y-133050850D01*
X191327014Y-133072493D01*
X191330154Y-133083726D01*
X191332570Y-133095152D01*
X191339208Y-133116119D01*
X191356164Y-133176784D01*
X191360714Y-133196034D01*
X191365206Y-133209134D01*
X191368941Y-133222499D01*
X191376119Y-133240965D01*
X191395993Y-133298933D01*
X191401956Y-133318738D01*
X191406904Y-133330754D01*
X191411114Y-133343034D01*
X191419699Y-133361828D01*
X191442700Y-133417690D01*
X191449350Y-133435956D01*
X191455502Y-133448779D01*
X191460915Y-133461926D01*
X191470040Y-133479084D01*
X191496243Y-133533705D01*
X191504844Y-133553392D01*
X191510767Y-133563980D01*
X191516028Y-133574946D01*
X191527199Y-133593352D01*
X191555956Y-133644756D01*
X191564013Y-133660843D01*
X191572380Y-133674115D01*
X191580031Y-133687791D01*
X191590300Y-133702539D01*
X191620948Y-133751152D01*
X191631149Y-133768811D01*
X191638868Y-133779577D01*
X191645939Y-133790793D01*
X191658467Y-133806912D01*
X191693205Y-133855363D01*
X191704324Y-133872231D01*
X191712791Y-133882681D01*
X191720630Y-133893614D01*
X191733955Y-133908801D01*
X191770795Y-133954267D01*
X191782383Y-133969849D01*
X191791959Y-133980386D01*
X191800928Y-133991456D01*
X191814576Y-134005276D01*
X191853358Y-134047953D01*
X191865769Y-134062810D01*
X191875968Y-134072833D01*
X191885584Y-134083415D01*
X191899943Y-134096395D01*
X191941028Y-134136772D01*
X191954318Y-134150963D01*
X191965008Y-134160339D01*
X191975148Y-134170304D01*
X191990284Y-134182507D01*
X192033387Y-134220311D01*
X192047344Y-134233627D01*
X192058664Y-134242480D01*
X192069468Y-134251956D01*
X192085148Y-134263193D01*
X192135499Y-134302573D01*
X192181438Y-134340274D01*
X192218380Y-134360020D01*
X192253727Y-134382455D01*
X192277730Y-134391743D01*
X192300439Y-134403881D01*
X192340520Y-134416039D01*
X192379568Y-134431149D01*
X192404924Y-134435576D01*
X192429562Y-134443050D01*
X192471243Y-134447155D01*
X192512490Y-134454357D01*
X192571852Y-134452962D01*
X197917547Y-134452962D01*
X198173228Y-134465724D01*
X198404072Y-134500893D01*
X198626113Y-134557629D01*
X198838291Y-134634933D01*
X199040524Y-134732176D01*
X199230862Y-134847396D01*
X199408662Y-134980543D01*
X199572983Y-135129740D01*
X199722374Y-135294255D01*
X199855158Y-135471639D01*
X199970433Y-135662270D01*
X200067880Y-135864927D01*
X200145290Y-136076836D01*
X200201759Y-136298633D01*
X200237004Y-136529779D01*
X200249988Y-136785709D01*
X200249987Y-140695367D01*
X200237004Y-140951056D01*
X200201746Y-141182487D01*
X200145290Y-141404234D01*
X200067880Y-141616143D01*
X199970506Y-141818648D01*
X199855157Y-142009198D01*
X199722372Y-142186788D01*
X199572979Y-142351100D01*
X199408664Y-142500497D01*
X199231078Y-142633279D01*
X199040524Y-142748630D01*
X198838026Y-142846000D01*
X198626109Y-142923412D01*
X198404356Y-142979869D01*
X198172933Y-143015126D01*
X197917250Y-143028108D01*
X164007775Y-143028108D01*
X163752073Y-143015126D01*
X163520683Y-142979871D01*
X163298968Y-142923418D01*
X163087047Y-142845998D01*
X162884392Y-142748571D01*
X162693866Y-142633311D01*
X162516470Y-142500534D01*
X162351978Y-142351089D01*
X162202712Y-142186806D01*
X162069704Y-142009025D01*
X161954391Y-141818671D01*
X161857187Y-141616307D01*
X161779718Y-141404179D01*
X161723200Y-141182428D01*
X161687993Y-140951204D01*
X161675097Y-140695490D01*
X161675097Y-136785565D01*
X161687994Y-136529631D01*
X161723187Y-136298692D01*
X161779718Y-136076891D01*
X161857187Y-135864763D01*
X161954462Y-135662251D01*
X162069702Y-135471813D01*
X162202714Y-135294233D01*
X162351967Y-135129758D01*
X162516469Y-134980508D01*
X162694079Y-134847366D01*
X162884392Y-134732235D01*
X163086789Y-134634933D01*
X163298965Y-134557622D01*
X163520971Y-134500891D01*
X163751784Y-134465724D01*
X164007495Y-134452962D01*
X169610195Y-134452962D01*
X169669732Y-134454328D01*
X169710786Y-134447136D01*
X169752273Y-134443050D01*
X169777095Y-134435520D01*
X169802642Y-134431045D01*
X169841504Y-134415982D01*
X169881396Y-134403881D01*
X169904274Y-134391653D01*
X169928455Y-134382280D01*
X169963630Y-134359926D01*
X170000397Y-134340274D01*
X170046469Y-134302463D01*
X170096381Y-134263381D01*
X170111525Y-134252561D01*
X170122859Y-134242649D01*
X170134704Y-134233374D01*
X170148159Y-134220523D01*
X170191339Y-134182759D01*
X170206901Y-134170207D01*
X170216638Y-134160633D01*
X170226923Y-134151639D01*
X170240615Y-134137060D01*
X170282245Y-134096131D01*
X170296773Y-134082974D01*
X170306218Y-134072561D01*
X170316244Y-134062704D01*
X170328805Y-134047660D01*
X170367679Y-134004804D01*
X170381322Y-133990962D01*
X170390265Y-133979904D01*
X170399823Y-133969366D01*
X170411410Y-133953755D01*
X170447903Y-133908628D01*
X170460960Y-133893756D01*
X170469050Y-133882479D01*
X170477769Y-133871697D01*
X170488639Y-133855173D01*
X170522803Y-133807548D01*
X170534976Y-133791952D01*
X170542396Y-133780236D01*
X170550483Y-133768963D01*
X170560388Y-133751828D01*
X170591667Y-133702440D01*
X170602781Y-133686396D01*
X170609664Y-133674023D01*
X170617231Y-133662075D01*
X170625998Y-133644660D01*
X170654624Y-133593202D01*
X170665047Y-133576102D01*
X170670962Y-133563832D01*
X170677590Y-133551918D01*
X170685567Y-133533538D01*
X170711702Y-133479326D01*
X170721300Y-133461231D01*
X170726305Y-133449038D01*
X170732027Y-133437168D01*
X170739071Y-133417935D01*
X170762273Y-133361404D01*
X170770739Y-133342856D01*
X170775044Y-133330289D01*
X170780082Y-133318014D01*
X170785932Y-133298503D01*
X170805739Y-133240682D01*
X170812940Y-133222124D01*
X170816638Y-133208865D01*
X170821096Y-133195850D01*
X170825668Y-133176486D01*
X170842344Y-133116690D01*
X170848729Y-133096680D01*
X170851378Y-133084294D01*
X170854777Y-133072107D01*
X170858407Y-133051435D01*
X170871719Y-132989196D01*
X170876745Y-132969474D01*
X170878753Y-132956311D01*
X170881536Y-132943298D01*
X170883820Y-132923085D01*
X170893481Y-132859746D01*
X170897383Y-132839337D01*
X170898550Y-132826512D01*
X170900491Y-132813785D01*
X170901596Y-132793033D01*
X170907551Y-132727579D01*
X170910214Y-132706916D01*
X170910599Y-132694075D01*
X170911761Y-132681305D01*
X170911606Y-132660497D01*
X170913787Y-132587807D01*
X170915133Y-132561356D01*
X170914794Y-132554204D01*
X170915009Y-132547049D01*
X170913205Y-132520639D01*
X170907907Y-132408727D01*
X170907042Y-132380725D01*
X170906317Y-132375140D01*
X170906051Y-132369519D01*
X170901994Y-132341829D01*
X170887835Y-132232738D01*
X170881345Y-132172890D01*
X170869048Y-132133744D01*
X170859802Y-132093760D01*
X170848876Y-132069527D01*
X170840907Y-132044159D01*
X170821205Y-132008157D01*
X170804340Y-131970752D01*
X170788894Y-131949113D01*
X170776131Y-131925791D01*
X170749789Y-131894330D01*
X170725946Y-131860928D01*
X170706574Y-131842718D01*
X170689507Y-131822334D01*
X170657524Y-131796609D01*
X170627632Y-131768509D01*
X170576564Y-131736622D01*
X170103110Y-131426969D01*
X169531940Y-131022914D01*
X169371121Y-130900000D01*
X178461928Y-130900000D01*
X178474188Y-131024482D01*
X178510498Y-131144180D01*
X178569463Y-131254494D01*
X178648815Y-131351185D01*
X178745506Y-131430537D01*
X178855820Y-131489502D01*
X178975518Y-131525812D01*
X179100000Y-131538072D01*
X179714250Y-131535000D01*
X179873000Y-131376250D01*
X179873000Y-130127000D01*
X178623750Y-130127000D01*
X178465000Y-130285750D01*
X178461928Y-130900000D01*
X169371121Y-130900000D01*
X168977948Y-130599498D01*
X168440506Y-130157996D01*
X167921221Y-129698015D01*
X167419557Y-129220862D01*
X167301283Y-129100000D01*
X178461928Y-129100000D01*
X178465000Y-129714250D01*
X178623750Y-129873000D01*
X179873000Y-129873000D01*
X179873000Y-128623750D01*
X180127000Y-128623750D01*
X180127000Y-129873000D01*
X180147000Y-129873000D01*
X180147000Y-130127000D01*
X180127000Y-130127000D01*
X180127000Y-131376250D01*
X180285750Y-131535000D01*
X180900000Y-131538072D01*
X181024482Y-131525812D01*
X181144180Y-131489502D01*
X181254494Y-131430537D01*
X181351185Y-131351185D01*
X181430537Y-131254494D01*
X181489502Y-131144180D01*
X181495056Y-131125873D01*
X181561495Y-131192312D01*
X181812905Y-131360299D01*
X182092257Y-131476011D01*
X182388816Y-131535000D01*
X182691184Y-131535000D01*
X182987743Y-131476011D01*
X183267095Y-131360299D01*
X183518505Y-131192312D01*
X183732312Y-130978505D01*
X183900299Y-130727095D01*
X184016011Y-130447743D01*
X184075000Y-130151184D01*
X184075000Y-129848816D01*
X184016011Y-129552257D01*
X183900299Y-129272905D01*
X183732312Y-129021495D01*
X183518505Y-128807688D01*
X183267095Y-128639701D01*
X182987743Y-128523989D01*
X182691184Y-128465000D01*
X182388816Y-128465000D01*
X182092257Y-128523989D01*
X181812905Y-128639701D01*
X181561495Y-128807688D01*
X181495056Y-128874127D01*
X181489502Y-128855820D01*
X181430537Y-128745506D01*
X181351185Y-128648815D01*
X181254494Y-128569463D01*
X181144180Y-128510498D01*
X181024482Y-128474188D01*
X180900000Y-128461928D01*
X180285750Y-128465000D01*
X180127000Y-128623750D01*
X179873000Y-128623750D01*
X179714250Y-128465000D01*
X179100000Y-128461928D01*
X178975518Y-128474188D01*
X178855820Y-128510498D01*
X178745506Y-128569463D01*
X178648815Y-128648815D01*
X178569463Y-128745506D01*
X178510498Y-128855820D01*
X178474188Y-128975518D01*
X178461928Y-129100000D01*
X167301283Y-129100000D01*
X166935961Y-128726688D01*
X166471370Y-128216695D01*
X166025596Y-127690722D01*
X165599052Y-127149976D01*
X165192845Y-126593990D01*
X164805905Y-126024202D01*
X164440230Y-125441566D01*
X164095300Y-124845553D01*
X163771419Y-124237706D01*
X163469540Y-123617955D01*
X163189456Y-122986828D01*
X162931548Y-122345956D01*
X162697007Y-121694171D01*
X162484854Y-121033282D01*
X162296798Y-120364351D01*
X162132604Y-119686622D01*
X161992395Y-119001006D01*
X161877132Y-118308479D01*
X161786784Y-117609619D01*
X161721392Y-116904387D01*
X161681976Y-116193946D01*
X161669062Y-115481024D01*
X161678227Y-115116935D01*
X170414350Y-115116935D01*
X170506985Y-115378688D01*
X170792185Y-115516989D01*
X171098885Y-115596992D01*
X171415300Y-115615624D01*
X171729270Y-115572169D01*
X172028730Y-115468297D01*
X172196375Y-115378688D01*
X172289010Y-115116935D01*
X171351680Y-114179605D01*
X170414350Y-115116935D01*
X161678227Y-115116935D01*
X161694074Y-114487436D01*
X161726307Y-114063620D01*
X169736056Y-114063620D01*
X169779511Y-114377590D01*
X169883383Y-114677050D01*
X169972992Y-114844695D01*
X170234745Y-114937330D01*
X171172075Y-114000000D01*
X171531285Y-114000000D01*
X172468615Y-114937330D01*
X172730368Y-114844695D01*
X172868669Y-114559495D01*
X172948672Y-114252795D01*
X172967304Y-113936380D01*
X172954175Y-113841518D01*
X189740010Y-113841518D01*
X189740010Y-114158482D01*
X189801846Y-114469354D01*
X189923143Y-114762190D01*
X190099238Y-115025735D01*
X190323365Y-115249862D01*
X190586910Y-115425957D01*
X190879746Y-115547254D01*
X191190618Y-115609090D01*
X191507582Y-115609090D01*
X191818454Y-115547254D01*
X192111290Y-115425957D01*
X192374835Y-115249862D01*
X192598962Y-115025735D01*
X192775057Y-114762190D01*
X192896354Y-114469354D01*
X192958190Y-114158482D01*
X192958190Y-113841518D01*
X192896354Y-113530646D01*
X192775057Y-113237810D01*
X192598962Y-112974265D01*
X192374835Y-112750138D01*
X192111290Y-112574043D01*
X191818454Y-112452746D01*
X191507582Y-112390910D01*
X191190618Y-112390910D01*
X190879746Y-112452746D01*
X190586910Y-112574043D01*
X190323365Y-112750138D01*
X190099238Y-112974265D01*
X189923143Y-113237810D01*
X189801846Y-113530646D01*
X189740010Y-113841518D01*
X172954175Y-113841518D01*
X172923849Y-113622410D01*
X172819977Y-113322950D01*
X172730368Y-113155305D01*
X172468615Y-113062670D01*
X171531285Y-114000000D01*
X171172075Y-114000000D01*
X170234745Y-113062670D01*
X169972992Y-113155305D01*
X169834691Y-113440505D01*
X169754688Y-113747205D01*
X169736056Y-114063620D01*
X161726307Y-114063620D01*
X161768443Y-113509606D01*
X161847952Y-112883065D01*
X170414350Y-112883065D01*
X171351680Y-113820395D01*
X172289010Y-112883065D01*
X172196375Y-112621312D01*
X171911175Y-112483011D01*
X171604475Y-112403008D01*
X171288060Y-112384376D01*
X170974090Y-112427831D01*
X170674630Y-112531703D01*
X170506985Y-112621312D01*
X170414350Y-112883065D01*
X161847952Y-112883065D01*
X161890754Y-112545785D01*
X162059401Y-111597682D01*
X162273920Y-110666328D01*
X162532848Y-109752802D01*
X162820614Y-108900000D01*
X164961928Y-108900000D01*
X164974188Y-109024482D01*
X165010498Y-109144180D01*
X165069463Y-109254494D01*
X165148815Y-109351185D01*
X165245506Y-109430537D01*
X165355820Y-109489502D01*
X165475518Y-109525812D01*
X165600000Y-109538072D01*
X166214250Y-109535000D01*
X166373000Y-109376250D01*
X166373000Y-108127000D01*
X165123750Y-108127000D01*
X164965000Y-108285750D01*
X164961928Y-108900000D01*
X162820614Y-108900000D01*
X162834690Y-108858287D01*
X163178928Y-107983694D01*
X163563626Y-107130485D01*
X163579207Y-107100000D01*
X164961928Y-107100000D01*
X164965000Y-107714250D01*
X165123750Y-107873000D01*
X166373000Y-107873000D01*
X166373000Y-106623750D01*
X166627000Y-106623750D01*
X166627000Y-107873000D01*
X166647000Y-107873000D01*
X166647000Y-108127000D01*
X166627000Y-108127000D01*
X166627000Y-109376250D01*
X166785750Y-109535000D01*
X167400000Y-109538072D01*
X167524482Y-109525812D01*
X167644180Y-109489502D01*
X167754494Y-109430537D01*
X167851185Y-109351185D01*
X167930537Y-109254494D01*
X167989502Y-109144180D01*
X167995056Y-109125873D01*
X168061495Y-109192312D01*
X168312905Y-109360299D01*
X168592257Y-109476011D01*
X168888816Y-109535000D01*
X169191184Y-109535000D01*
X169487743Y-109476011D01*
X169767095Y-109360299D01*
X170018505Y-109192312D01*
X170232312Y-108978505D01*
X170284767Y-108900000D01*
X190461928Y-108900000D01*
X190474188Y-109024482D01*
X190510498Y-109144180D01*
X190569463Y-109254494D01*
X190648815Y-109351185D01*
X190745506Y-109430537D01*
X190855820Y-109489502D01*
X190975518Y-109525812D01*
X191100000Y-109538072D01*
X191714250Y-109535000D01*
X191873000Y-109376250D01*
X191873000Y-108127000D01*
X190623750Y-108127000D01*
X190465000Y-108285750D01*
X190461928Y-108900000D01*
X170284767Y-108900000D01*
X170400299Y-108727095D01*
X170516011Y-108447743D01*
X170575000Y-108151184D01*
X170575000Y-107848816D01*
X170516011Y-107552257D01*
X170400299Y-107272905D01*
X170284768Y-107100000D01*
X190461928Y-107100000D01*
X190465000Y-107714250D01*
X190623750Y-107873000D01*
X191873000Y-107873000D01*
X191873000Y-106623750D01*
X192127000Y-106623750D01*
X192127000Y-107873000D01*
X192147000Y-107873000D01*
X192147000Y-108127000D01*
X192127000Y-108127000D01*
X192127000Y-109376250D01*
X192285750Y-109535000D01*
X192900000Y-109538072D01*
X193024482Y-109525812D01*
X193144180Y-109489502D01*
X193254494Y-109430537D01*
X193351185Y-109351185D01*
X193430537Y-109254494D01*
X193489502Y-109144180D01*
X193495056Y-109125873D01*
X193561495Y-109192312D01*
X193812905Y-109360299D01*
X194092257Y-109476011D01*
X194388816Y-109535000D01*
X194691184Y-109535000D01*
X194987743Y-109476011D01*
X195267095Y-109360299D01*
X195518505Y-109192312D01*
X195732312Y-108978505D01*
X195900299Y-108727095D01*
X196016011Y-108447743D01*
X196075000Y-108151184D01*
X196075000Y-107848816D01*
X196016011Y-107552257D01*
X195900299Y-107272905D01*
X195732312Y-107021495D01*
X195518505Y-106807688D01*
X195267095Y-106639701D01*
X194987743Y-106523989D01*
X194691184Y-106465000D01*
X194388816Y-106465000D01*
X194092257Y-106523989D01*
X193812905Y-106639701D01*
X193561495Y-106807688D01*
X193495056Y-106874127D01*
X193489502Y-106855820D01*
X193430537Y-106745506D01*
X193351185Y-106648815D01*
X193254494Y-106569463D01*
X193144180Y-106510498D01*
X193024482Y-106474188D01*
X192900000Y-106461928D01*
X192285750Y-106465000D01*
X192127000Y-106623750D01*
X191873000Y-106623750D01*
X191714250Y-106465000D01*
X191100000Y-106461928D01*
X190975518Y-106474188D01*
X190855820Y-106510498D01*
X190745506Y-106569463D01*
X190648815Y-106648815D01*
X190569463Y-106745506D01*
X190510498Y-106855820D01*
X190474188Y-106975518D01*
X190461928Y-107100000D01*
X170284768Y-107100000D01*
X170232312Y-107021495D01*
X170018505Y-106807688D01*
X169767095Y-106639701D01*
X169487743Y-106523989D01*
X169191184Y-106465000D01*
X168888816Y-106465000D01*
X168592257Y-106523989D01*
X168312905Y-106639701D01*
X168061495Y-106807688D01*
X167995056Y-106874127D01*
X167989502Y-106855820D01*
X167930537Y-106745506D01*
X167851185Y-106648815D01*
X167754494Y-106569463D01*
X167644180Y-106510498D01*
X167524482Y-106474188D01*
X167400000Y-106461928D01*
X166785750Y-106465000D01*
X166627000Y-106623750D01*
X166373000Y-106623750D01*
X166214250Y-106465000D01*
X165600000Y-106461928D01*
X165475518Y-106474188D01*
X165355820Y-106510498D01*
X165245506Y-106569463D01*
X165148815Y-106648815D01*
X165069463Y-106745506D01*
X165010498Y-106855820D01*
X164974188Y-106975518D01*
X164961928Y-107100000D01*
X163579207Y-107100000D01*
X163988283Y-106299642D01*
X164450823Y-105492796D01*
X164950894Y-104711275D01*
X165487002Y-103955010D01*
X166057420Y-103226888D01*
X166661822Y-102527174D01*
X167298683Y-101857375D01*
X167966636Y-101218869D01*
X168664461Y-100611899D01*
X169391101Y-100038978D01*
X169758969Y-99776349D01*
X179365745Y-99776349D01*
X179569851Y-100132867D01*
X180012712Y-100363575D01*
X180492072Y-100503452D01*
X180989510Y-100547123D01*
X181485911Y-100492909D01*
X181962196Y-100342894D01*
X182355127Y-100132867D01*
X182559233Y-99776349D01*
X180962489Y-98179605D01*
X179365745Y-99776349D01*
X169758969Y-99776349D01*
X170144744Y-99500936D01*
X170925345Y-98998338D01*
X171730642Y-98532820D01*
X172559972Y-98106181D01*
X173411755Y-97718463D01*
X174285269Y-97371749D01*
X175178874Y-97066900D01*
X176091747Y-96805008D01*
X177022277Y-96587968D01*
X177969927Y-96415801D01*
X178933095Y-96290541D01*
X179082241Y-96278740D01*
X179071931Y-96289050D01*
X179186138Y-96403257D01*
X178829622Y-96607362D01*
X178598914Y-97050223D01*
X178459037Y-97529583D01*
X178415366Y-98027021D01*
X178469580Y-98523422D01*
X178619595Y-98999707D01*
X178829622Y-99392638D01*
X179186140Y-99596744D01*
X180782884Y-98000000D01*
X180768742Y-97985858D01*
X180948347Y-97806253D01*
X180962489Y-97820395D01*
X180976632Y-97806253D01*
X181156237Y-97985858D01*
X181142094Y-98000000D01*
X182738838Y-99596744D01*
X183095356Y-99392638D01*
X183326064Y-98949777D01*
X183465941Y-98470417D01*
X183509612Y-97972979D01*
X183455398Y-97476578D01*
X183305383Y-97000293D01*
X183095356Y-96607362D01*
X182738840Y-96403257D01*
X182853047Y-96289050D01*
X182841866Y-96277869D01*
X182935944Y-96285054D01*
%TD*%
M02*
